<svg width="800" height="400" viewBox="0 0 800 400" xmlns="http://www.w3.org/2000/svg"><mask id="satori_om-id"><rect x="0" y="0" width="800" height="400" fill="#fff"/></mask><rect x="0" y="0" width="800" height="400" fill="#fff"/><clipPath id="satori_cp-id-0"><rect x="356" y="129" width="88" height="64"/></clipPath><mask id="satori_om-id-0"><rect x="356" y="129" width="88" height="64" fill="#fff"/></mask><image x="356" y="129" width="88" height="64" href="data:image/svg+xml;utf8,%3Csvg  class=%22w-10 h-10%22 fill=%22none%22 xmlns=%22http://www.w3.org/2000/svg%22 width=%22null%22 height=%22null%22 viewBox=%220 0 88 64%22%3E%3Cpath fill-rule=%22evenodd%22 clip-rule=%22evenodd%22 d=%22M44 0L7.62939e-06 64H88L44 0ZM81.0847 63.3H6.91531L44 55.7145L81.0847 63.3ZM5.42343 62.8907L44 55L82.5766 62.8907L44 49.7396L5.42343 62.8907ZM44 43.7756L5.68805 62.0609L44 49L82.312 62.0609L44 43.7756ZM6.02277 61.1255L44 43L81.9772 61.1255L44 37.8213L6.02277 61.1255ZM44 31.875L6.41667 60.0625L44 37L81.5833 60.0625L44 31.875ZM6.85957 58.8553L44 31L81.1404 58.8553L44 25.9354L6.85957 58.8553ZM44 20.0013L7.34263 57.4918L44 25L80.6574 57.4918L44 20.0013ZM7.85829 55.9631L44 19L80.1416 55.9631L44 14.0716L7.85829 55.9631ZM44 7.1582L7.28012 55.5617L44 13L80.7199 55.5617L44 7.1582ZM9.061 52.056L44 6L78.939 52.0559L44 1.23559L9.061 52.056Z%22 fill=%22black%22%3E%3C/path%3E%3Cpath fill-rule=%22evenodd%22 clip-rule=%22evenodd%22 d=%22M44 0L7.62939e-06 64H88L44 0ZM81.0847 63.3H6.91531L44 55.7145L81.0847 63.3ZM5.42343 62.8907L44 55L82.5766 62.8907L44 49.7396L5.42343 62.8907ZM44 43.7756L5.68805 62.0609L44 49L82.312 62.0609L44 43.7756ZM6.02277 61.1255L44 43L81.9772 61.1255L44 37.8213L6.02277 61.1255ZM44 31.875L6.41667 60.0625L44 37L81.5833 60.0625L44 31.875ZM6.85957 58.8553L44 31L81.1404 58.8553L44 25.9354L6.85957 58.8553ZM44 20.0013L7.34263 57.4918L44 25L80.6574 57.4918L44 20.0013ZM7.85829 55.9631L44 19L80.1416 55.9631L44 14.0716L7.85829 55.9631ZM44 7.1582L7.28012 55.5617L44 13L80.7199 55.5617L44 7.1582ZM9.061 52.056L44 6L78.939 52.0559L44 1.23559L9.061 52.056Z%22 fill=%22black%22 fill-opacity=%220.2%22%3E%3C/path%3E%3C/svg%3E" preserveAspectRatio="none" clip-path="url(#satori_cp-id-0)" mask="url(#satori_om-id-0)"/><mask id="satori_om-id-0-0"><rect x="356" y="129" width="0" height="64" fill="#fff"/></mask><mask id="satori_om-id-0-1"><rect x="356" y="129" width="0" height="64" fill="#fff"/></mask><mask id="satori_om-id-1"><rect x="203" y="233" width="394" height="38" fill="#fff"/></mask><path fill="black" d="M226.4 252.4L226.4 252.4Q226.4 256.2 225.0 258.8Q223.5 261.5 221.1 262.9Q218.6 264.3 215.5 264.3L215.5 264.3Q212.4 264.3 209.9 262.9Q207.5 261.5 206.0 258.8Q204.6 256.2 204.6 252.4L204.6 252.4Q204.6 248.6 206.0 245.9Q207.5 243.2 209.9 241.8Q212.4 240.4 215.5 240.4L215.5 240.4Q218.6 240.4 221.1 241.8Q223.5 243.2 225.0 245.9Q226.4 248.6 226.4 252.4ZM221.4 252.4L221.4 252.4Q221.4 249.9 220.7 248.2Q220.0 246.5 218.6 245.6Q217.3 244.8 215.5 244.8L215.5 244.8Q213.7 244.8 212.4 245.6Q211.1 246.5 210.3 248.2Q209.6 249.9 209.6 252.4L209.6 252.4Q209.6 254.8 210.3 256.5Q211.1 258.2 212.4 259.1Q213.7 260.0 215.5 260.0L215.5 260.0Q217.3 260.0 218.6 259.1Q220.0 258.2 220.7 256.5Q221.4 254.8 221.4 252.4ZM234.8 264L230.0 264L230.0 246.5L234.6 246.5L234.6 249.6L234.8 249.6Q235.3 248.0 236.4 247.1Q237.6 246.3 239.0 246.3L239.0 246.3Q239.4 246.3 239.8 246.3Q240.2 246.4 240.5 246.5L240.5 246.5L240.5 250.8Q240.2 250.7 239.6 250.6Q239 250.5 238.5 250.5L238.5 250.5Q237.4 250.5 236.6 251.0Q235.8 251.4 235.3 252.2Q234.8 253.1 234.8 254.1L234.8 254.1L234.8 264ZM250.1 270.9L250.1 270.9Q247.7 270.9 246.1 270.3Q244.4 269.6 243.4 268.5Q242.4 267.4 242.1 266.0L242.1 266.0L246.6 265.4Q246.8 266.0 247.2 266.4Q247.7 266.9 248.4 267.2Q249.1 267.4 250.2 267.4L250.2 267.4Q251.8 267.4 252.8 266.7Q253.8 265.9 253.8 264.1L253.8 264.1L253.8 260.9L253.6 260.9Q253.3 261.6 252.7 262.3Q252.0 262.9 251.0 263.3Q250.0 263.8 248.6 263.8L248.6 263.8Q246.7 263.8 245.1 262.8Q243.5 261.9 242.5 260.0Q241.6 258.1 241.6 255.2L241.6 255.2Q241.6 252.3 242.5 250.3Q243.5 248.3 245.1 247.3Q246.7 246.3 248.6 246.3L248.6 246.3Q250.1 246.3 251.1 246.8Q252.1 247.3 252.7 248.0Q253.3 248.8 253.6 249.5L253.6 249.5L253.8 249.5L253.8 246.5L258.6 246.5L258.6 264.2Q258.6 266.4 257.5 267.9Q256.4 269.4 254.5 270.2Q252.6 270.9 250.1 270.9ZM250.2 260.1L250.2 260.1Q251.4 260.1 252.2 259.5Q253.0 258.9 253.4 257.8Q253.9 256.8 253.9 255.2L253.9 255.2Q253.9 253.7 253.4 252.6Q253.0 251.4 252.2 250.8Q251.4 250.2 250.2 250.2L250.2 250.2Q249.0 250.2 248.2 250.8Q247.4 251.5 246.9 252.6Q246.5 253.7 246.5 255.2L246.5 255.2Q246.5 256.7 246.9 257.8Q247.4 258.9 248.2 259.5Q249.0 260.1 250.2 260.1ZM267.5 264.3L267.5 264.3Q265.8 264.3 264.5 263.7Q263.2 263.2 262.4 262.0Q261.7 260.9 261.7 259.1L261.7 259.1Q261.7 257.7 262.2 256.7Q262.7 255.7 263.6 255.1Q264.6 254.5 265.7 254.2Q266.9 253.9 268.2 253.8L268.2 253.8Q269.7 253.6 270.7 253.4Q271.6 253.3 272.0 253.0Q272.4 252.7 272.4 252.2L272.4 252.2L272.4 252.1Q272.4 251.0 271.8 250.4Q271.1 249.9 269.9 249.9L269.9 249.9Q268.5 249.9 267.8 250.4Q267 251 266.8 251.9L266.8 251.9L262.3 251.5Q262.6 249.9 263.6 248.7Q264.6 247.6 266.2 246.9Q267.8 246.3 269.9 246.3L269.9 246.3Q271.3 246.3 272.7 246.7Q274 247 275.0 247.7Q276.1 248.4 276.7 249.6Q277.3 250.7 277.3 252.2L277.3 252.2L277.3 264L272.7 264L272.7 261.6L272.6 261.6Q272.1 262.4 271.4 263.0Q270.7 263.6 269.7 264.0Q268.8 264.3 267.5 264.3ZM268.8 261.0L268.8 261.0Q269.9 261.0 270.7 260.6Q271.5 260.1 272.0 259.4Q272.5 258.7 272.5 257.8L272.5 257.8L272.5 255.9Q272.3 256.1 271.9 256.2Q271.5 256.3 271.0 256.4Q270.5 256.5 270 256.6Q269.5 256.6 269.1 256.7L269.1 256.7Q268.3 256.8 267.6 257.1Q267.0 257.4 266.6 257.8Q266.3 258.3 266.3 259.0L266.3 259.0Q266.3 260.0 267.0 260.5Q267.7 261.0 268.8 261.0ZM285.9 253.9L285.9 253.9L285.9 264L281.0 264L281.0 246.5L285.7 246.5L285.7 249.6L285.9 249.6Q286.4 248.1 287.8 247.2Q289.2 246.3 291.1 246.3L291.1 246.3Q292.9 246.3 294.3 247.1Q295.6 247.9 296.4 249.4Q297.1 250.9 297.1 252.9L297.1 252.9L297.1 264L292.3 264L292.3 253.8Q292.3 252.1 291.5 251.2Q290.6 250.3 289.2 250.3L289.2 250.3Q288.2 250.3 287.5 250.8Q286.7 251.2 286.3 252.0Q285.9 252.8 285.9 253.9ZM305.8 264L300.9 264L300.9 246.5L305.8 246.5L305.8 264ZM303.4 244.3L303.4 244.3Q302.3 244.3 301.5 243.6Q300.8 242.9 300.8 241.8L300.8 241.8Q300.8 240.8 301.5 240.1Q302.3 239.4 303.4 239.4L303.4 239.4Q304.5 239.4 305.2 240.1Q306.0 240.8 306.0 241.8L306.0 241.8Q306.0 242.9 305.2 243.6Q304.5 244.3 303.4 244.3ZM324.2 264L309.6 264L309.6 261.1L318.1 250.5L318.1 250.4L309.9 250.4L309.9 246.5L323.9 246.5L323.9 249.7L315.9 260.0L315.9 260.1L324.2 260.1L324.2 264ZM332.9 264.3L332.9 264.3Q331.3 264.3 329.9 263.7Q328.6 263.2 327.9 262.0Q327.1 260.9 327.1 259.1L327.1 259.1Q327.1 257.7 327.7 256.7Q328.2 255.7 329.1 255.1Q330.0 254.5 331.2 254.2Q332.4 253.9 333.7 253.8L333.7 253.8Q335.2 253.6 336.1 253.4Q337.1 253.3 337.5 253.0Q337.9 252.7 337.9 252.2L337.9 252.2L337.9 252.1Q337.9 251.0 337.2 250.4Q336.6 249.9 335.3 249.9L335.3 249.9Q334.0 249.9 333.2 250.4Q332.5 251 332.2 251.9L332.2 251.9L327.7 251.5Q328.1 249.9 329.1 248.7Q330.1 247.6 331.7 246.9Q333.3 246.3 335.3 246.3L335.3 246.3Q336.8 246.3 338.1 246.7Q339.5 247 340.5 247.7Q341.5 248.4 342.1 249.6Q342.8 250.7 342.8 252.2L342.8 252.2L342.8 264L338.2 264L338.2 261.6L338.0 261.6Q337.6 262.4 336.9 263.0Q336.2 263.6 335.2 264.0Q334.2 264.3 332.9 264.3ZM334.3 261.0L334.3 261.0Q335.4 261.0 336.2 260.6Q337.0 260.1 337.5 259.4Q337.9 258.7 337.9 257.8L337.9 257.8L337.9 255.9Q337.7 256.1 337.3 256.2Q336.9 256.3 336.4 256.4Q336.0 256.5 335.5 256.6Q335.0 256.6 334.6 256.7L334.6 256.7Q333.7 256.8 333.1 257.1Q332.5 257.4 332.1 257.8Q331.8 258.3 331.8 259.0L331.8 259.0Q331.8 260.0 332.5 260.5Q333.2 261.0 334.3 261.0ZM345.3 246.5L355.8 246.5L355.8 250.2L345.3 250.2L345.3 246.5ZM347.7 259.3L347.7 242.4L352.5 242.4L352.5 258.6Q352.5 259.3 352.7 259.7Q352.9 260.0 353.3 260.2Q353.7 260.3 354.1 260.3L354.1 260.3Q354.5 260.3 354.8 260.3Q355.2 260.2 355.4 260.2L355.4 260.2L356.1 263.8Q355.8 263.9 355.1 264.1Q354.4 264.2 353.5 264.2L353.5 264.2Q351.7 264.3 350.4 263.8Q349.1 263.2 348.4 262.1Q347.7 261.0 347.7 259.3L347.7 259.3ZM363.8 264L358.9 264L358.9 246.5L363.8 246.5L363.8 264ZM361.4 244.3L361.4 244.3Q360.3 244.3 359.5 243.6Q358.8 242.9 358.8 241.8L358.8 241.8Q358.8 240.8 359.5 240.1Q360.3 239.4 361.4 239.4L361.4 239.4Q362.5 239.4 363.2 240.1Q364.0 240.8 364.0 241.8L364.0 241.8Q364.0 242.9 363.2 243.6Q362.5 244.3 361.4 244.3ZM375.5 264.3L375.5 264.3Q372.9 264.3 371.0 263.2Q369.0 262.1 368.0 260.1Q366.9 258.0 366.9 255.3L366.9 255.3Q366.9 252.6 368.0 250.6Q369.0 248.6 371.0 247.4Q372.9 246.3 375.5 246.3L375.5 246.3Q378.2 246.3 380.1 247.4Q382.0 248.6 383.1 250.6Q384.1 252.6 384.1 255.3L384.1 255.3Q384.1 258.0 383.1 260.1Q382.0 262.1 380.1 263.2Q378.2 264.3 375.5 264.3ZM375.6 260.6L375.6 260.6Q376.8 260.6 377.6 259.9Q378.4 259.2 378.8 258.0Q379.2 256.8 379.2 255.3L379.2 255.3Q379.2 253.8 378.8 252.6Q378.4 251.4 377.6 250.7Q376.8 250.0 375.6 250.0L375.6 250.0Q374.3 250.0 373.5 250.7Q372.7 251.4 372.3 252.6Q371.9 253.8 371.9 255.3L371.9 255.3Q371.9 256.8 372.3 258.0Q372.7 259.2 373.5 259.9Q374.3 260.6 375.6 260.6ZM392.1 253.9L392.1 253.9L392.1 264L387.3 264L387.3 246.5L391.9 246.5L391.9 249.6L392.1 249.6Q392.7 248.1 394.0 247.2Q395.4 246.3 397.4 246.3L397.4 246.3Q399.2 246.3 400.5 247.1Q401.9 247.9 402.6 249.4Q403.4 250.9 403.4 252.9L403.4 252.9L403.4 264L398.5 264L398.5 253.8Q398.5 252.1 397.7 251.2Q396.9 250.3 395.4 250.3L395.4 250.3Q394.5 250.3 393.7 250.8Q393.0 251.2 392.6 252.0Q392.1 252.8 392.1 253.9ZM421.7 251.5L421.7 251.5L417.3 251.8Q417.2 251.2 416.8 250.8Q416.4 250.3 415.8 250.0Q415.2 249.8 414.4 249.8L414.4 249.8Q413.2 249.8 412.5 250.2Q411.7 250.7 411.7 251.5L411.7 251.5Q411.7 252.1 412.2 252.5Q412.7 253.0 413.9 253.2L413.9 253.2L417.1 253.9Q419.6 254.4 420.9 255.5Q422.1 256.7 422.1 258.6L422.1 258.6Q422.1 260.3 421.1 261.6Q420.1 262.9 418.3 263.6Q416.6 264.3 414.3 264.3L414.3 264.3Q410.9 264.3 408.8 262.9Q406.8 261.4 406.4 258.9L406.4 258.9L411.2 258.7Q411.4 259.8 412.2 260.3Q413.0 260.9 414.3 260.9L414.3 260.9Q415.6 260.9 416.4 260.4Q417.2 259.9 417.2 259.1L417.2 259.1Q417.2 258.4 416.6 258.0Q416.1 257.6 414.9 257.3L414.9 257.3L411.9 256.7Q409.4 256.2 408.1 255.0Q406.9 253.7 406.9 251.8L406.9 251.8Q406.9 250.1 407.8 248.9Q408.7 247.6 410.4 247.0Q412.0 246.3 414.3 246.3L414.3 246.3Q417.6 246.3 419.5 247.7Q421.4 249.1 421.7 251.5Z M444.6 256.6L444.6 256.6L444.6 246.5L449.4 246.5L449.4 264L444.8 264L444.8 260.8L444.6 260.8Q444.0 262.4 442.6 263.3Q441.3 264.2 439.3 264.2L439.3 264.2Q437.6 264.2 436.2 263.4Q434.9 262.6 434.2 261.2Q433.4 259.7 433.4 257.7L433.4 257.7L433.4 246.5L438.2 246.5L438.2 256.8Q438.3 258.3 439.1 259.2Q439.9 260.1 441.3 260.1L441.3 260.1Q442.1 260.1 442.9 259.7Q443.7 259.3 444.1 258.5Q444.6 257.7 444.6 256.6ZM467.8 251.5L467.8 251.5L463.4 251.8Q463.3 251.2 462.9 250.8Q462.5 250.3 461.9 250.0Q461.3 249.8 460.5 249.8L460.5 249.8Q459.3 249.8 458.6 250.2Q457.8 250.7 457.8 251.5L457.8 251.5Q457.8 252.1 458.3 252.5Q458.8 253.0 460.0 253.2L460.0 253.2L463.2 253.9Q465.7 254.4 467.0 255.5Q468.2 256.7 468.2 258.6L468.2 258.6Q468.2 260.3 467.2 261.6Q466.2 262.9 464.5 263.6Q462.7 264.3 460.4 264.3L460.4 264.3Q457.0 264.3 454.9 262.9Q452.9 261.4 452.5 258.9L452.5 258.9L457.3 258.7Q457.5 259.8 458.3 260.3Q459.2 260.9 460.5 260.9L460.5 260.9Q461.7 260.9 462.5 260.4Q463.3 259.9 463.3 259.1L463.3 259.1Q463.3 258.4 462.7 258.0Q462.2 257.6 461.1 257.3L461.1 257.3L458.0 256.7Q455.5 256.2 454.2 255.0Q453.0 253.7 453.0 251.8L453.0 251.8Q453.0 250.1 453.9 248.9Q454.8 247.6 456.5 247.0Q458.1 246.3 460.4 246.3L460.4 246.3Q463.7 246.3 465.6 247.7Q467.5 249.1 467.8 251.5ZM476.1 264L471.3 264L471.3 246.5L476.1 246.5L476.1 264ZM473.7 244.3L473.7 244.3Q472.6 244.3 471.9 243.6Q471.1 242.9 471.1 241.8L471.1 241.8Q471.1 240.8 471.9 240.1Q472.6 239.4 473.7 239.4L473.7 239.4Q474.8 239.4 475.6 240.1Q476.3 240.8 476.3 241.8L476.3 241.8Q476.3 242.9 475.6 243.6Q474.8 244.3 473.7 244.3ZM484.8 253.9L484.8 253.9L484.8 264L480.0 264L480.0 246.5L484.6 246.5L484.6 249.6L484.8 249.6Q485.4 248.1 486.7 247.2Q488.1 246.3 490.0 246.3L490.0 246.3Q491.9 246.3 493.2 247.1Q494.6 247.9 495.3 249.4Q496.1 250.9 496.1 252.9L496.1 252.9L496.1 264L491.2 264L491.2 253.8Q491.2 252.1 490.4 251.2Q489.6 250.3 488.1 250.3L488.1 250.3Q487.1 250.3 486.4 250.8Q485.7 251.2 485.2 252.0Q484.8 252.8 484.8 253.9ZM507.7 270.9L507.7 270.9Q505.4 270.9 503.7 270.3Q502.0 269.6 501.0 268.5Q500.1 267.4 499.8 266.0L499.8 266.0L504.2 265.4Q504.4 266.0 504.9 266.4Q505.3 266.9 506.1 267.2Q506.8 267.4 507.9 267.4L507.9 267.4Q509.4 267.4 510.5 266.7Q511.5 265.9 511.5 264.1L511.5 264.1L511.5 260.9L511.3 260.9Q511.0 261.6 510.3 262.3Q509.7 262.9 508.7 263.3Q507.7 263.8 506.3 263.8L506.3 263.8Q504.3 263.8 502.7 262.8Q501.1 261.9 500.2 260.0Q499.2 258.1 499.2 255.2L499.2 255.2Q499.2 252.3 500.2 250.3Q501.2 248.3 502.8 247.3Q504.4 246.3 506.3 246.3L506.3 246.3Q507.8 246.3 508.8 246.8Q509.7 247.3 510.3 248.0Q511.0 248.8 511.3 249.5L511.3 249.5L511.5 249.5L511.5 246.5L516.3 246.5L516.3 264.2Q516.3 266.4 515.2 267.9Q514.1 269.4 512.2 270.2Q510.2 270.9 507.7 270.9ZM507.8 260.1L507.8 260.1Q509.0 260.1 509.8 259.5Q510.6 258.9 511.1 257.8Q511.5 256.8 511.5 255.2L511.5 255.2Q511.5 253.7 511.1 252.6Q510.6 251.4 509.8 250.8Q509.0 250.2 507.8 250.2L507.8 250.2Q506.6 250.2 505.8 250.8Q505.0 251.5 504.6 252.6Q504.2 253.7 504.2 255.2L504.2 255.2Q504.2 256.7 504.6 257.8Q505.0 258.9 505.8 259.5Q506.6 260.1 507.8 260.1Z M532.6 264L527.6 264L527.6 240.7L536.8 240.7Q539.5 240.7 541.3 241.7Q543.2 242.6 544.2 244.3Q545.2 246.0 545.2 248.3L545.2 248.3Q545.2 250.6 544.2 252.3Q543.2 254.0 541.3 254.9Q539.4 255.8 536.7 255.8L536.7 255.8L530.6 255.8L530.6 251.8L535.9 251.8Q537.3 251.8 538.3 251.4Q539.2 251.0 539.6 250.3Q540.1 249.5 540.1 248.3L540.1 248.3Q540.1 247.2 539.6 246.4Q539.2 245.6 538.2 245.2Q537.3 244.8 535.9 244.8L535.9 244.8L532.6 244.8L532.6 264ZM534.9 253.4L540.2 253.4L546 264L540.6 264L534.9 253.4ZM559.8 256.6L559.8 256.6L559.8 246.5L564.6 246.5L564.6 264L559.9 264L559.9 260.8L559.8 260.8Q559.2 262.4 557.8 263.3Q556.4 264.2 554.5 264.2L554.5 264.2Q552.7 264.2 551.4 263.4Q550.1 262.6 549.3 261.2Q548.6 259.7 548.6 257.7L548.6 257.7L548.6 246.5L553.4 246.5L553.4 256.8Q553.4 258.3 554.2 259.2Q555.0 260.1 556.4 260.1L556.4 260.1Q557.3 260.1 558.1 259.7Q558.8 259.3 559.3 258.5Q559.8 257.7 559.8 256.6ZM583.0 251.5L583.0 251.5L578.5 251.8Q578.4 251.2 578.1 250.8Q577.7 250.3 577.1 250.0Q576.5 249.8 575.6 249.8L575.6 249.8Q574.5 249.8 573.7 250.2Q573.0 250.7 573.0 251.5L573.0 251.5Q573.0 252.1 573.5 252.5Q574.0 253.0 575.2 253.2L575.2 253.2L578.3 253.9Q580.9 254.4 582.1 255.5Q583.4 256.7 583.4 258.6L583.4 258.6Q583.4 260.3 582.4 261.6Q581.4 262.9 579.6 263.6Q577.9 264.3 575.6 264.3L575.6 264.3Q572.1 264.3 570.1 262.9Q568.0 261.4 567.7 258.9L567.7 258.9L572.4 258.7Q572.7 259.8 573.5 260.3Q574.3 260.9 575.6 260.9L575.6 260.9Q576.9 260.9 577.7 260.4Q578.4 259.9 578.5 259.1L578.5 259.1Q578.4 258.4 577.9 258.0Q577.4 257.6 576.2 257.3L576.2 257.3L573.2 256.7Q570.6 256.2 569.4 255.0Q568.1 253.7 568.1 251.8L568.1 251.8Q568.1 250.1 569.1 248.9Q570.0 247.6 571.6 247.0Q573.3 246.3 575.5 246.3L575.5 246.3Q578.9 246.3 580.8 247.7Q582.7 249.1 583.0 251.5ZM585.2 246.5L595.7 246.5L595.7 250.2L585.2 250.2L585.2 246.5ZM587.6 259.3L587.6 242.4L592.4 242.4L592.4 258.6Q592.4 259.3 592.6 259.7Q592.8 260.0 593.2 260.2Q593.6 260.3 594.1 260.3L594.1 260.3Q594.4 260.3 594.8 260.3Q595.1 260.2 595.3 260.2L595.3 260.2L596.0 263.8Q595.7 263.9 595.0 264.1Q594.4 264.2 593.4 264.2L593.4 264.2Q591.7 264.3 590.3 263.8Q589.0 263.2 588.3 262.1Q587.6 261.0 587.6 259.3L587.6 259.3Z "/></svg>