<svg width="800" height="400" viewBox="0 0 800 400" xmlns="http://www.w3.org/2000/svg"><mask id="satori_om-id"><rect x="0" y="0" width="800" height="400" fill="#fff"/></mask><rect x="0" y="0" width="800" height="400" fill="#fff"/><clipPath id="satori_cp-id-0"><rect x="356" y="129" width="88" height="64"/></clipPath><mask id="satori_om-id-0"><rect x="356" y="129" width="88" height="64" fill="#fff"/></mask><image x="356" y="129" width="88" height="64" href="data:image/svg+xml;utf8,%3Csvg  class=%22w-10 h-10%22 fill=%22none%22 xmlns=%22http://www.w3.org/2000/svg%22 width=%22null%22 height=%22null%22 viewBox=%220 0 88 64%22%3E%3Cpath fill-rule=%22evenodd%22 clip-rule=%22evenodd%22 d=%22M44 0L7.62939e-06 64H88L44 0ZM81.0847 63.3H6.91531L44 55.7145L81.0847 63.3ZM5.42343 62.8907L44 55L82.5766 62.8907L44 49.7396L5.42343 62.8907ZM44 43.7756L5.68805 62.0609L44 49L82.312 62.0609L44 43.7756ZM6.02277 61.1255L44 43L81.9772 61.1255L44 37.8213L6.02277 61.1255ZM44 31.875L6.41667 60.0625L44 37L81.5833 60.0625L44 31.875ZM6.85957 58.8553L44 31L81.1404 58.8553L44 25.9354L6.85957 58.8553ZM44 20.0013L7.34263 57.4918L44 25L80.6574 57.4918L44 20.0013ZM7.85829 55.9631L44 19L80.1416 55.9631L44 14.0716L7.85829 55.9631ZM44 7.1582L7.28012 55.5617L44 13L80.7199 55.5617L44 7.1582ZM9.061 52.056L44 6L78.939 52.0559L44 1.23559L9.061 52.056Z%22 fill=%22black%22%3E%3C/path%3E%3Cpath fill-rule=%22evenodd%22 clip-rule=%22evenodd%22 d=%22M44 0L7.62939e-06 64H88L44 0ZM81.0847 63.3H6.91531L44 55.7145L81.0847 63.3ZM5.42343 62.8907L44 55L82.5766 62.8907L44 49.7396L5.42343 62.8907ZM44 43.7756L5.68805 62.0609L44 49L82.312 62.0609L44 43.7756ZM6.02277 61.1255L44 43L81.9772 61.1255L44 37.8213L6.02277 61.1255ZM44 31.875L6.41667 60.0625L44 37L81.5833 60.0625L44 31.875ZM6.85957 58.8553L44 31L81.1404 58.8553L44 25.9354L6.85957 58.8553ZM44 20.0013L7.34263 57.4918L44 25L80.6574 57.4918L44 20.0013ZM7.85829 55.9631L44 19L80.1416 55.9631L44 14.0716L7.85829 55.9631ZM44 7.1582L7.28012 55.5617L44 13L80.7199 55.5617L44 7.1582ZM9.061 52.056L44 6L78.939 52.0559L44 1.23559L9.061 52.056Z%22 fill=%22black%22 fill-opacity=%220.2%22%3E%3C/path%3E%3C/svg%3E" preserveAspectRatio="none" clip-path="url(#satori_cp-id-0)" mask="url(#satori_om-id-0)"/><mask id="satori_om-id-0-0"><rect x="356" y="129" width="0" height="64" fill="#fff"/></mask><mask id="satori_om-id-0-1"><rect x="356" y="129" width="0" height="64" fill="#fff"/></mask><mask id="satori_om-id-1"><rect x="275" y="233" width="250" height="38" fill="#fff"/></mask><path fill="black" d="M281.9 264L277.0 264L277.0 240.7L286.2 240.7Q288.9 240.7 290.7 241.7Q292.6 242.7 293.6 244.5Q294.5 246.3 294.5 248.6L294.5 248.6Q294.5 250.9 293.5 252.7Q292.5 254.5 290.7 255.5Q288.8 256.5 286.1 256.5L286.1 256.5L280.2 256.5L280.2 252.5L285.3 252.5Q286.7 252.5 287.6 252.0Q288.6 251.5 289.0 250.6Q289.5 249.8 289.5 248.6L289.5 248.6Q289.5 247.5 289.0 246.6Q288.6 245.7 287.6 245.2Q286.7 244.8 285.3 244.8L285.3 244.8L281.9 244.8L281.9 264ZM305.3 264.3L305.3 264.3Q302.6 264.3 300.7 263.2Q298.8 262.1 297.7 260.1Q296.7 258.0 296.7 255.3L296.7 255.3Q296.7 252.6 297.7 250.6Q298.8 248.6 300.7 247.4Q302.6 246.3 305.3 246.3L305.3 246.3Q307.9 246.3 309.8 247.4Q311.8 248.6 312.8 250.6Q313.8 252.6 313.8 255.3L313.8 255.3Q313.8 258.0 312.8 260.1Q311.8 262.1 309.8 263.2Q307.9 264.3 305.3 264.3ZM305.3 260.6L305.3 260.6Q306.5 260.6 307.3 259.9Q308.1 259.2 308.5 258.0Q308.9 256.8 308.9 255.3L308.9 255.3Q308.9 253.8 308.5 252.6Q308.1 251.4 307.3 250.7Q306.5 250.0 305.3 250.0L305.3 250.0Q304.1 250.0 303.2 250.7Q302.4 251.4 302.0 252.6Q301.6 253.8 301.6 255.3L301.6 255.3Q301.6 256.8 302.0 258.0Q302.4 259.2 303.2 259.9Q304.1 260.6 305.3 260.6ZM321.8 264L317 264L317 246.5L321.7 246.5L321.7 249.6L321.9 249.6Q322.4 248.0 323.5 247.1Q324.6 246.3 326.1 246.3L326.1 246.3Q326.4 246.3 326.9 246.3Q327.3 246.4 327.6 246.5L327.6 246.5L327.6 250.8Q327.3 250.7 326.6 250.6Q326.0 250.5 325.5 250.5L325.5 250.5Q324.5 250.5 323.6 251.0Q322.8 251.4 322.3 252.2Q321.8 253.1 321.8 254.1L321.8 254.1L321.8 264ZM329.7 246.5L340.2 246.5L340.2 250.2L329.7 250.2L329.7 246.5ZM332.1 259.3L332.1 242.4L337.0 242.4L337.0 258.6Q337.0 259.3 337.2 259.7Q337.4 260.0 337.7 260.2Q338.1 260.3 338.6 260.3L338.6 260.3Q338.9 260.3 339.3 260.3Q339.6 260.2 339.8 260.2L339.8 260.2L340.6 263.8Q340.2 263.9 339.5 264.1Q338.9 264.2 337.9 264.2L337.9 264.2Q336.2 264.3 334.9 263.8Q333.6 263.2 332.8 262.1Q332.1 261.0 332.1 259.3L332.1 259.3ZM342 246.5L352.8 246.5L352.8 250.2L342 250.2L342 246.5ZM349.3 264L344.5 264L344.5 245.3Q344.5 243.4 345.2 242.1Q346.0 240.9 347.3 240.3Q348.5 239.6 350.2 239.6L350.2 239.6Q351.3 239.6 352.2 239.8Q353.2 240.0 353.6 240.1L353.6 240.1L352.8 243.8Q352.5 243.7 352.1 243.6Q351.6 243.5 351.2 243.5L351.2 243.5Q350.1 243.5 349.7 244.0Q349.3 244.5 349.3 245.4L349.3 245.4L349.3 264ZM363.0 264.3L363.0 264.3Q360.4 264.3 358.4 263.2Q356.5 262.1 355.5 260.1Q354.4 258.0 354.4 255.3L354.4 255.3Q354.4 252.6 355.5 250.6Q356.5 248.6 358.4 247.4Q360.4 246.3 363.0 246.3L363.0 246.3Q365.6 246.3 367.6 247.4Q369.5 248.6 370.5 250.6Q371.6 252.6 371.6 255.3L371.6 255.3Q371.6 258.0 370.5 260.1Q369.5 262.1 367.6 263.2Q365.6 264.3 363.0 264.3ZM363.0 260.6L363.0 260.6Q364.2 260.6 365.0 259.9Q365.8 259.2 366.3 258.0Q366.7 256.8 366.7 255.3L366.7 255.3Q366.7 253.8 366.3 252.6Q365.8 251.4 365.0 250.7Q364.2 250.0 363.0 250.0L363.0 250.0Q361.8 250.0 361.0 250.7Q360.2 251.4 359.7 252.6Q359.3 253.8 359.3 255.3L359.3 255.3Q359.3 256.8 359.7 258.0Q360.2 259.2 361.0 259.9Q361.8 260.6 363.0 260.6ZM374.7 240.7L379.6 240.7L379.6 264L374.7 264L374.7 240.7ZM388.3 264L383.5 264L383.5 246.5L388.3 246.5L388.3 264ZM385.9 244.3L385.9 244.3Q384.8 244.3 384.0 243.6Q383.3 242.9 383.3 241.8L383.3 241.8Q383.3 240.8 384.0 240.1Q384.8 239.4 385.9 239.4L385.9 239.4Q387.0 239.4 387.7 240.1Q388.5 240.8 388.5 241.8L388.5 241.8Q388.5 242.9 387.7 243.6Q387.0 244.3 385.9 244.3ZM400.0 264.3L400.0 264.3Q397.4 264.3 395.5 263.2Q393.5 262.1 392.5 260.1Q391.5 258.0 391.5 255.3L391.5 255.3Q391.5 252.6 392.5 250.6Q393.5 248.6 395.5 247.4Q397.4 246.3 400.0 246.3L400.0 246.3Q402.7 246.3 404.6 247.4Q406.5 248.6 407.6 250.6Q408.6 252.6 408.6 255.3L408.6 255.3Q408.6 258.0 407.6 260.1Q406.5 262.1 404.6 263.2Q402.7 264.3 400.0 264.3ZM400.1 260.6L400.1 260.6Q401.3 260.6 402.1 259.9Q402.9 259.2 403.3 258.0Q403.7 256.8 403.7 255.3L403.7 255.3Q403.7 253.8 403.3 252.6Q402.9 251.4 402.1 250.7Q401.3 250.0 400.1 250.0L400.1 250.0Q398.9 250.0 398.0 250.7Q397.2 251.4 396.8 252.6Q396.4 253.8 396.4 255.3L396.4 255.3Q396.4 256.8 396.8 258.0Q397.2 259.2 398.0 259.9Q398.9 260.6 400.1 260.6Z M429.4 264L424.6 264L417.9 240.7L423.3 240.7L427.1 256.9L427.3 256.9L431.6 240.7L436.2 240.7L440.4 256.9L440.6 256.9L444.5 240.7L449.9 240.7L443.2 264L438.4 264L434.0 248.8L433.8 248.8L429.4 264ZM460.0 246.0L454.1 264L448.9 264L456.9 240.7L463.2 240.7L471.3 264L466.0 264L460.2 246.0L460.0 246.0ZM453.8 258.7L453.8 254.9L466.3 254.9L466.3 258.7L453.8 258.7ZM490.9 247.4L486.1 247.4Q486.0 246.0 485.0 245.3Q483.9 244.5 482.2 244.5L482.2 244.5Q481.0 244.5 480.1 244.9Q479.3 245.2 478.9 245.8Q478.4 246.4 478.4 247.1L478.4 247.1Q478.4 247.8 478.7 248.2Q479.0 248.7 479.5 249.0Q480.0 249.4 480.7 249.6Q481.3 249.8 482.1 250.0L482.1 250.0L484.2 250.5Q485.7 250.9 487.0 251.4Q488.3 252.0 489.2 252.8Q490.1 253.6 490.6 254.8Q491.2 255.9 491.2 257.4L491.2 257.4Q491.2 259.5 490.1 261.1Q489.0 262.6 487.0 263.5Q485.0 264.3 482.1 264.3L482.1 264.3Q479.3 264.3 477.2 263.5Q475.1 262.6 474.0 260.9Q472.8 259.2 472.8 256.7L472.8 256.7L477.5 256.7Q477.6 257.9 478.2 258.6Q478.8 259.4 479.8 259.8Q480.8 260.2 482.1 260.2L482.1 260.2Q483.3 260.2 484.3 259.8Q485.2 259.5 485.7 258.8Q486.2 258.2 486.2 257.3L486.2 257.3Q486.2 256.6 485.7 256.0Q485.3 255.5 484.4 255.1Q483.5 254.7 482.2 254.4L482.2 254.4L479.7 253.8Q476.8 253.1 475.1 251.6Q473.4 250.0 473.4 247.5L473.4 247.5Q473.4 245.3 474.5 243.8Q475.6 242.2 477.6 241.3Q479.6 240.4 482.2 240.4L482.2 240.4Q484.8 240.4 486.7 241.3Q488.7 242.2 489.7 243.8Q490.8 245.3 490.9 247.4L490.9 247.4ZM494.5 264L494.5 240.7L500.5 240.7L506.9 256.4L507.2 256.4L513.6 240.7L519.7 240.7L519.7 264L514.9 264L514.9 248.9L514.7 248.9L508.7 263.9L505.5 263.9L499.4 248.8L499.2 248.8L499.2 264L494.5 264Z "/></svg>