<svg width="800" height="400" viewBox="0 0 800 400" xmlns="http://www.w3.org/2000/svg"><mask id="satori_om-id"><rect x="0" y="0" width="800" height="400" fill="#fff"/></mask><rect x="0" y="0" width="800" height="400" fill="#fff"/><clipPath id="satori_cp-id-0"><rect x="356" y="129" width="88" height="64"/></clipPath><mask id="satori_om-id-0"><rect x="356" y="129" width="88" height="64" fill="#fff"/></mask><image x="356" y="129" width="88" height="64" href="data:image/svg+xml;utf8,%3Csvg  class=%22w-10 h-10%22 fill=%22none%22 xmlns=%22http://www.w3.org/2000/svg%22 width=%22null%22 height=%22null%22 viewBox=%220 0 88 64%22%3E%3Cpath fill-rule=%22evenodd%22 clip-rule=%22evenodd%22 d=%22M44 0L7.62939e-06 64H88L44 0ZM81.0847 63.3H6.91531L44 55.7145L81.0847 63.3ZM5.42343 62.8907L44 55L82.5766 62.8907L44 49.7396L5.42343 62.8907ZM44 43.7756L5.68805 62.0609L44 49L82.312 62.0609L44 43.7756ZM6.02277 61.1255L44 43L81.9772 61.1255L44 37.8213L6.02277 61.1255ZM44 31.875L6.41667 60.0625L44 37L81.5833 60.0625L44 31.875ZM6.85957 58.8553L44 31L81.1404 58.8553L44 25.9354L6.85957 58.8553ZM44 20.0013L7.34263 57.4918L44 25L80.6574 57.4918L44 20.0013ZM7.85829 55.9631L44 19L80.1416 55.9631L44 14.0716L7.85829 55.9631ZM44 7.1582L7.28012 55.5617L44 13L80.7199 55.5617L44 7.1582ZM9.061 52.056L44 6L78.939 52.0559L44 1.23559L9.061 52.056Z%22 fill=%22black%22%3E%3C/path%3E%3Cpath fill-rule=%22evenodd%22 clip-rule=%22evenodd%22 d=%22M44 0L7.62939e-06 64H88L44 0ZM81.0847 63.3H6.91531L44 55.7145L81.0847 63.3ZM5.42343 62.8907L44 55L82.5766 62.8907L44 49.7396L5.42343 62.8907ZM44 43.7756L5.68805 62.0609L44 49L82.312 62.0609L44 43.7756ZM6.02277 61.1255L44 43L81.9772 61.1255L44 37.8213L6.02277 61.1255ZM44 31.875L6.41667 60.0625L44 37L81.5833 60.0625L44 31.875ZM6.85957 58.8553L44 31L81.1404 58.8553L44 25.9354L6.85957 58.8553ZM44 20.0013L7.34263 57.4918L44 25L80.6574 57.4918L44 20.0013ZM7.85829 55.9631L44 19L80.1416 55.9631L44 14.0716L7.85829 55.9631ZM44 7.1582L7.28012 55.5617L44 13L80.7199 55.5617L44 7.1582ZM9.061 52.056L44 6L78.939 52.0559L44 1.23559L9.061 52.056Z%22 fill=%22black%22 fill-opacity=%220.2%22%3E%3C/path%3E%3C/svg%3E" preserveAspectRatio="none" clip-path="url(#satori_cp-id-0)" mask="url(#satori_om-id-0)"/><mask id="satori_om-id-0-0"><rect x="356" y="129" width="0" height="64" fill="#fff"/></mask><mask id="satori_om-id-0-1"><rect x="356" y="129" width="0" height="64" fill="#fff"/></mask><mask id="satori_om-id-1"><rect x="236" y="233" width="329" height="38" fill="#fff"/></mask><path fill="black" d="M252.4 255.4L252.4 240.7L257.3 240.7L257.3 255.8Q257.3 258.4 256.1 260.3Q254.9 262.2 252.7 263.3Q250.6 264.3 247.7 264.3L247.7 264.3Q244.8 264.3 242.6 263.3Q240.4 262.2 239.2 260.3Q238.0 258.4 238.0 255.8L238.0 255.8L238.0 240.7L242.9 240.7L242.9 255.4Q242.9 256.8 243.5 257.8Q244.1 258.8 245.2 259.4Q246.3 260 247.7 260L247.7 260Q249.1 260 250.2 259.4Q251.2 258.8 251.8 257.8Q252.4 256.8 252.4 255.4L252.4 255.4ZM266.1 270.5L261.3 270.5L261.3 246.5L266.0 246.5L266.0 249.5L266.3 249.5Q266.6 248.8 267.2 248.0Q267.8 247.3 268.8 246.8Q269.8 246.3 271.2 246.3L271.2 246.3Q273.1 246.3 274.8 247.3Q276.4 248.3 277.3 250.3Q278.3 252.3 278.3 255.3L278.3 255.3Q278.3 258.2 277.4 260.2Q276.4 262.2 274.8 263.3Q273.2 264.3 271.2 264.3L271.2 264.3Q269.8 264.3 268.8 263.8Q267.8 263.4 267.2 262.6Q266.6 261.9 266.3 261.2L266.3 261.2L266.1 261.2L266.1 270.5ZM266.0 255.3L266.0 255.3Q266.0 256.8 266.4 258.0Q266.9 259.1 267.7 259.8Q268.5 260.4 269.7 260.4L269.7 260.4Q270.9 260.4 271.7 259.8Q272.5 259.1 272.9 258.0Q273.4 256.8 273.4 255.3L273.4 255.3Q273.4 253.8 272.9 252.6Q272.5 251.5 271.7 250.8Q270.9 250.2 269.7 250.2L269.7 250.2Q268.5 250.2 267.7 250.8Q266.9 251.4 266.4 252.6Q266.0 253.7 266.0 255.3ZM287.9 264.3L287.9 264.3Q286.0 264.3 284.3 263.3Q282.7 262.2 281.8 260.2Q280.9 258.2 280.9 255.3L280.9 255.3Q280.9 252.3 281.8 250.3Q282.8 248.3 284.4 247.3Q286.0 246.3 287.9 246.3L287.9 246.3Q289.4 246.3 290.4 246.8Q291.4 247.3 292.0 248.0Q292.6 248.8 292.9 249.5L292.9 249.5L293.0 249.5L293.0 240.7L297.9 240.7L297.9 264L293.1 264L293.1 261.2L292.9 261.2Q292.6 261.9 291.9 262.6Q291.3 263.4 290.3 263.8Q289.4 264.3 287.9 264.3ZM289.5 260.4L289.5 260.4Q290.6 260.4 291.5 259.8Q292.3 259.1 292.7 258.0Q293.1 256.8 293.1 255.3L293.1 255.3Q293.1 253.7 292.7 252.6Q292.3 251.4 291.5 250.8Q290.6 250.2 289.5 250.2L289.5 250.2Q288.3 250.2 287.5 250.8Q286.6 251.5 286.2 252.6Q285.8 253.8 285.8 255.3L285.8 255.3Q285.8 256.8 286.2 258.0Q286.7 259.1 287.5 259.8Q288.3 260.4 289.5 260.4ZM306.8 264.3L306.8 264.3Q305.1 264.3 303.8 263.7Q302.5 263.2 301.8 262.0Q301.0 260.9 301.0 259.1L301.0 259.1Q301.0 257.7 301.6 256.7Q302.1 255.7 303.0 255.1Q303.9 254.5 305.1 254.2Q306.3 253.9 307.6 253.8L307.6 253.8Q309.1 253.6 310.0 253.4Q311.0 253.3 311.4 253.0Q311.8 252.7 311.8 252.2L311.8 252.2L311.8 252.1Q311.8 251.0 311.1 250.4Q310.5 249.9 309.2 249.9L309.2 249.9Q307.9 249.9 307.1 250.4Q306.4 251 306.1 251.9L306.1 251.9L301.6 251.5Q302.0 249.9 303.0 248.7Q304.0 247.6 305.6 246.9Q307.1 246.3 309.2 246.3L309.2 246.3Q310.7 246.3 312.0 246.7Q313.4 247 314.4 247.7Q315.4 248.4 316.0 249.6Q316.6 250.7 316.6 252.2L316.6 252.2L316.6 264L312.1 264L312.1 261.6L311.9 261.6Q311.5 262.4 310.8 263.0Q310.1 263.6 309.1 264.0Q308.1 264.3 306.8 264.3ZM308.2 261.0L308.2 261.0Q309.3 261.0 310.1 260.6Q310.9 260.1 311.4 259.4Q311.8 258.7 311.8 257.8L311.8 257.8L311.8 255.9Q311.6 256.1 311.2 256.2Q310.8 256.3 310.3 256.4Q309.9 256.5 309.4 256.6Q308.9 256.6 308.5 256.7L308.5 256.7Q307.6 256.8 307.0 257.1Q306.4 257.4 306.0 257.8Q305.6 258.3 305.6 259.0L305.6 259.0Q305.6 260.0 306.4 260.5Q307.1 261.0 308.2 261.0ZM319.2 246.5L329.7 246.5L329.7 250.2L319.2 250.2L319.2 246.5ZM321.6 259.3L321.6 242.4L326.4 242.4L326.4 258.6Q326.4 259.3 326.6 259.7Q326.8 260.0 327.2 260.2Q327.6 260.3 328.0 260.3L328.0 260.3Q328.4 260.3 328.7 260.3Q329.1 260.2 329.2 260.2L329.2 260.2L330.0 263.8Q329.6 263.9 329.0 264.1Q328.3 264.2 327.4 264.2L327.4 264.2Q325.6 264.3 324.3 263.8Q323.0 263.2 322.3 262.1Q321.6 261.0 321.6 259.3L321.6 259.3ZM337.7 264L332.8 264L332.8 246.5L337.7 246.5L337.7 264ZM335.3 244.3L335.3 244.3Q334.2 244.3 333.4 243.6Q332.7 242.9 332.7 241.8L332.7 241.8Q332.7 240.8 333.4 240.1Q334.2 239.4 335.3 239.4L335.3 239.4Q336.4 239.4 337.1 240.1Q337.9 240.8 337.9 241.8L337.9 241.8Q337.9 242.9 337.1 243.6Q336.4 244.3 335.3 244.3ZM346.4 253.9L346.4 253.9L346.4 264L341.5 264L341.5 246.5L346.2 246.5L346.2 249.6L346.4 249.6Q346.9 248.1 348.3 247.2Q349.7 246.3 351.6 246.3L351.6 246.3Q353.4 246.3 354.8 247.1Q356.1 247.9 356.9 249.4Q357.6 250.9 357.6 252.9L357.6 252.9L357.6 264L352.8 264L352.8 253.8Q352.8 252.1 352.0 251.2Q351.1 250.3 349.7 250.3L349.7 250.3Q348.7 250.3 348.0 250.8Q347.2 251.2 346.8 252.0Q346.4 252.8 346.4 253.9ZM369.3 270.9L369.3 270.9Q367.0 270.9 365.3 270.3Q363.6 269.6 362.6 268.5Q361.6 267.4 361.3 266.0L361.3 266.0L365.8 265.4Q366.0 266.0 366.5 266.4Q366.9 266.9 367.6 267.2Q368.4 267.4 369.4 267.4L369.4 267.4Q371.0 267.4 372.0 266.7Q373.1 265.9 373.1 264.1L373.1 264.1L373.1 260.9L372.9 260.9Q372.5 261.6 371.9 262.3Q371.3 262.9 370.3 263.3Q369.3 263.8 367.9 263.8L367.9 263.8Q365.9 263.8 364.3 262.8Q362.7 261.9 361.7 260.0Q360.8 258.1 360.8 255.2L360.8 255.2Q360.8 252.3 361.8 250.3Q362.7 248.3 364.3 247.3Q365.9 246.3 367.9 246.3L367.9 246.3Q369.3 246.3 370.3 246.8Q371.3 247.3 371.9 248.0Q372.5 248.8 372.9 249.5L372.9 249.5L373.0 249.5L373.0 246.5L377.8 246.5L377.8 264.2Q377.8 266.4 376.7 267.9Q375.7 269.4 373.7 270.2Q371.8 270.9 369.3 270.9ZM369.4 260.1L369.4 260.1Q370.6 260.1 371.4 259.5Q372.2 258.9 372.6 257.8Q373.1 256.8 373.1 255.2L373.1 255.2Q373.1 253.7 372.6 252.6Q372.2 251.4 371.4 250.8Q370.6 250.2 369.4 250.2L369.4 250.2Q368.2 250.2 367.4 250.8Q366.6 251.5 366.2 252.6Q365.7 253.7 365.7 255.2L365.7 255.2Q365.7 256.7 366.2 257.8Q366.6 258.9 367.4 259.5Q368.2 260.1 369.4 260.1Z M389.2 264L389.2 240.7L395.3 240.7L401.7 256.4L402.0 256.4L408.4 240.7L414.4 240.7L414.4 264L409.7 264L409.7 248.9L409.5 248.9L403.5 263.9L400.2 263.9L394.2 248.8L394.0 248.8L394.0 264L389.2 264ZM435.8 247.4L431.1 247.4Q431.0 246.0 429.9 245.3Q428.9 244.5 427.1 244.5L427.1 244.5Q425.9 244.5 425.1 244.9Q424.3 245.2 423.8 245.8Q423.4 246.4 423.4 247.1L423.4 247.1Q423.4 247.8 423.7 248.2Q424.0 248.7 424.5 249.0Q425.0 249.4 425.6 249.6Q426.3 249.8 427.1 250.0L427.1 250.0L429.2 250.5Q430.7 250.9 432.0 251.4Q433.2 252.0 434.2 252.8Q435.1 253.6 435.6 254.8Q436.1 255.9 436.1 257.4L436.1 257.4Q436.1 259.5 435.1 261.1Q434.0 262.6 432.0 263.5Q430.0 264.3 427.1 264.3L427.1 264.3Q424.3 264.3 422.2 263.5Q420.1 262.6 419.0 260.9Q417.8 259.2 417.7 256.7L417.7 256.7L422.5 256.7Q422.6 257.9 423.2 258.6Q423.8 259.4 424.8 259.8Q425.8 260.2 427.1 260.2L427.1 260.2Q428.3 260.2 429.2 259.8Q430.2 259.5 430.7 258.8Q431.2 258.2 431.2 257.3L431.2 257.3Q431.2 256.6 430.7 256.0Q430.3 255.5 429.4 255.1Q428.5 254.7 427.2 254.4L427.2 254.4L424.7 253.8Q421.8 253.1 420.0 251.6Q418.3 250.0 418.4 247.5L418.4 247.5Q418.3 245.3 419.5 243.8Q420.6 242.2 422.6 241.3Q424.6 240.4 427.2 240.4L427.2 240.4Q429.8 240.4 431.7 241.3Q433.6 242.2 434.7 243.8Q435.8 245.3 435.8 247.4L435.8 247.4ZM439.6 252.5L450.2 252.5L450.2 256.4L439.6 256.4L439.6 252.5ZM463.4 264.5L463.4 264.5Q460.5 264.5 458.4 263.1Q456.3 261.6 455.2 258.9Q454.0 256.2 454.0 252.4L454.0 252.4Q454.0 248.6 455.2 245.9Q456.3 243.2 458.4 241.8Q460.5 240.4 463.4 240.4L463.4 240.4Q466.4 240.4 468.5 241.8Q470.6 243.2 471.7 245.9Q472.8 248.6 472.8 252.4L472.8 252.4Q472.8 256.2 471.7 258.9Q470.6 261.6 468.5 263.1Q466.4 264.5 463.4 264.5ZM463.4 260.4L463.4 260.4Q465.4 260.4 466.6 258.4Q467.8 256.4 467.8 252.4L467.8 252.4Q467.8 249.7 467.3 248.0Q466.7 246.2 465.7 245.3Q464.8 244.4 463.4 244.4L463.4 244.4Q461.4 244.4 460.2 246.4Q459.1 248.4 459.0 252.4L459.0 252.4Q459.0 255.1 459.6 256.9Q460.1 258.6 461.1 259.5Q462.1 260.4 463.4 260.4ZM481.8 240.7L486.5 240.7L486.5 264L481.5 264L481.5 245.4L481.4 245.4L476.1 248.7L476.1 244.4L481.8 240.7Z M504.3 264L499.5 264L499.5 240.7L504.4 240.7L504.4 249.5L504.5 249.5Q504.9 248.8 505.5 248.0Q506.1 247.3 507.1 246.8Q508.0 246.3 509.5 246.3L509.5 246.3Q511.4 246.3 513.0 247.3Q514.6 248.3 515.6 250.3Q516.6 252.3 516.6 255.3L516.6 255.3Q516.6 258.2 515.6 260.2Q514.7 262.2 513.1 263.3Q511.5 264.3 509.5 264.3L509.5 264.3Q508.1 264.3 507.1 263.8Q506.1 263.4 505.5 262.6Q504.9 261.9 504.5 261.2L504.5 261.2L504.3 261.2L504.3 264ZM504.3 255.3L504.3 255.3Q504.3 256.8 504.7 258.0Q505.1 259.1 506.0 259.8Q506.8 260.4 508.0 260.4L508.0 260.4Q509.1 260.4 510.0 259.8Q510.8 259.1 511.2 258.0Q511.6 256.8 511.6 255.3L511.6 255.3Q511.6 253.8 511.2 252.6Q510.8 251.5 510.0 250.8Q509.1 250.2 508.0 250.2L508.0 250.2Q506.8 250.2 506.0 250.8Q505.1 251.4 504.7 252.6Q504.3 253.7 504.3 255.3ZM524.6 264L519.8 264L519.8 246.5L524.6 246.5L524.6 264ZM522.2 244.3L522.2 244.3Q521.1 244.3 520.4 243.6Q519.6 242.9 519.6 241.8L519.6 241.8Q519.6 240.8 520.4 240.1Q521.1 239.4 522.2 239.4L522.2 239.4Q523.3 239.4 524.1 240.1Q524.8 240.8 524.8 241.8L524.8 241.8Q524.8 242.9 524.1 243.6Q523.3 244.3 522.2 244.3ZM536.4 264.3L536.4 264.3Q533.7 264.3 531.8 263.2Q529.9 262.1 528.8 260.1Q527.8 258.0 527.8 255.3L527.8 255.3Q527.8 252.6 528.8 250.6Q529.9 248.6 531.8 247.4Q533.7 246.3 536.4 246.3L536.4 246.3Q539.0 246.3 540.9 247.4Q542.9 248.6 543.9 250.6Q545.0 252.6 545.0 255.3L545.0 255.3Q545.0 258.0 543.9 260.1Q542.9 262.1 540.9 263.2Q539.0 264.3 536.4 264.3ZM536.4 260.6L536.4 260.6Q537.6 260.6 538.4 259.9Q539.2 259.2 539.6 258.0Q540.0 256.8 540.0 255.3L540.0 255.3Q540.0 253.8 539.6 252.6Q539.2 251.4 538.4 250.7Q537.6 250.0 536.4 250.0L536.4 250.0Q535.2 250.0 534.4 250.7Q533.5 251.4 533.1 252.6Q532.7 253.8 532.7 255.3L532.7 255.3Q532.7 256.8 533.1 258.0Q533.5 259.2 534.4 259.9Q535.2 260.6 536.4 260.6ZM562.6 251.5L562.6 251.5L558.2 251.8Q558.1 251.2 557.7 250.8Q557.4 250.3 556.7 250.0Q556.1 249.8 555.3 249.8L555.3 249.8Q554.2 249.8 553.4 250.2Q552.6 250.7 552.6 251.5L552.6 251.5Q552.6 252.1 553.1 252.5Q553.6 253.0 554.8 253.2L554.8 253.2L558 253.9Q560.5 254.4 561.8 255.5Q563.0 256.7 563.0 258.6L563.0 258.6Q563.0 260.3 562.0 261.6Q561.0 262.9 559.3 263.6Q557.5 264.3 555.3 264.3L555.3 264.3Q551.8 264.3 549.8 262.9Q547.7 261.4 547.4 258.9L547.4 258.9L552.1 258.7Q552.3 259.8 553.2 260.3Q554.0 260.9 555.3 260.9L555.3 260.9Q556.6 260.9 557.3 260.4Q558.1 259.9 558.1 259.1L558.1 259.1Q558.1 258.4 557.6 258.0Q557.0 257.6 555.9 257.3L555.9 257.3L552.9 256.7Q550.3 256.2 549.1 255.0Q547.8 253.7 547.8 251.8L547.8 251.8Q547.8 250.1 548.7 248.9Q549.6 247.6 551.3 247.0Q553.0 246.3 555.2 246.3L555.2 246.3Q558.5 246.3 560.4 247.7Q562.3 249.1 562.6 251.5Z "/></svg>