<svg xmlns="http://www.w3.org/2000/svg" width="512" height="512" fill="none">
<style>
  @media (prefers-color-scheme: dark) {
    .background { fill: #ffffff; }
    .text { fill: #000000; }
  }
</style>
<rect class="background" width="512" height="512" fill="#000" rx="24"/>
<path class="text" fill="#fff" d="M137.5 435.5q-5.5 0-9-2-3-2-3-5 0-6.5 13-9.5 18-4.5 25.5-11 8-7 8-23.5V158q0-17-7-24-6.5-7-25-11-7-1.5-10-4-3-3-3-6 0-3.5 3-5 3.5-2 9-2 14.5 0 27.5.5 13.5.5 26 1t26 .5q23 0 48.5-.5 26-.5 46.5-.5 16.5-.5 27-1.5 11-1 13-1 3.5 0 7 1.5 4 1.5 4.5 6 2 16.5 5 32.5t3 28q0 4.5-2.5 7-2 2-4.5 2t-4.5-1.5q-2-2-3.5-5.5-4-11.5-7.5-20t-8-13q-6.5-7-15-11t-20.5-4h-46.5q-9 0-16.5 5.5-7.5 5-7.5 14.5v98q0 5.5 3 8.5 3.5 3 8 3h46q13.5 0 19-7.5 6-7.5 10-20.5 3.5-10 9.5-10 2.5 0 4.5 3 2 2.5 2 7-.5 5-1 12l-1 14v26q.5 7.5.5 15 .5 7 1 12 .5 5.5-1 8.5-1 3-4 3-8 0-11.5-14-4-14-9.5-21t-15-7h-47q-6.5 0-10 2.5t-3.5 9.5v95q0 16.5 7 23T265 413h41q12.5 0 22.5-2.5 10.5-2.5 18-8 8.5-6 15-16 7-10.5 13.5-23 2-4 4-5 2-1.5 5-1.5 2.5.5 3.5 3 1.5 2.5 1.5 5.5 0 7-2.5 18t-6.5 23q-3.5 11.5-6.5 21.5-1.5 3.5-4 5-2.5 2-6 2-12 0-31-.5-18.5 0-40.5-.5a45636 45636 0 0 0-45-1h-44q-10.5 0-21.5.5-10.5.5-21.5 1-11 1-22.5 1"/></svg>
