<svg xmlns="http://www.w3.org/2000/svg" x="0px" y="0px" width="100" height="100" viewBox="0 0 48 48">
<linearGradient id="MlhixmXmDM5d549Iq7Haya_53iFar0HpEW9_gr1" x1="24" x2="24" y1="8.438" y2="23" gradientUnits="userSpaceOnUse"><stop offset="0" stop-color="#41474a"></stop><stop offset="1" stop-color="#323538"></stop></linearGradient><path fill="url(#MlhixmXmDM5d549Iq7Haya_53iFar0HpEW9_gr1)" d="M12,10l12,13l12-13l0,0 c-2.17-2.17-5.719-2.066-7.758,0.228L24,15l-4.242-4.772C17.719,7.934,14.17,7.83,12,10L12,10z"></path><linearGradient id="MlhixmXmDM5d549Iq7Hayb_53iFar0HpEW9_gr2" x1="5.72" x2="23.001" y1="24" y2="24" gradientUnits="userSpaceOnUse"><stop offset="0" stop-color="#e77101"></stop><stop offset=".771" stop-color="#e46401"></stop><stop offset=".941" stop-color="#e36001"></stop></linearGradient><path fill="url(#MlhixmXmDM5d549Iq7Hayb_53iFar0HpEW9_gr2)" d="M13.613,33.896L23.001,24l-9.388-9.896 C11.48,11.855,7.912,11.808,5.72,14l0,0l9.281,10L5.72,34l0,0C7.912,36.192,11.48,36.145,13.613,33.896z"></path><linearGradient id="MlhixmXmDM5d549Iq7Hayc_53iFar0HpEW9_gr3" x1="33.641" x2="33.641" y1="12.386" y2="35.614" gradientUnits="userSpaceOnUse"><stop offset="0" stop-color="#e77101"></stop><stop offset=".771" stop-color="#e46401"></stop><stop offset=".941" stop-color="#e36001"></stop></linearGradient><path fill="url(#MlhixmXmDM5d549Iq7Hayc_53iFar0HpEW9_gr3)" d="M34.388,33.896L25,24l9.388-9.896 c2.133-2.249,5.701-2.296,7.893-0.104l0,0L33,24l9.281,10l0,0C40.089,36.192,36.521,36.145,34.388,33.896z"></path><linearGradient id="MlhixmXmDM5d549Iq7Hayd_53iFar0HpEW9_gr4" x1="23.991" x2="23.991" y1="25.004" y2="39.566" gradientUnits="userSpaceOnUse"><stop offset="0" stop-color="#41474a"></stop><stop offset="1" stop-color="#323538"></stop></linearGradient><path fill="url(#MlhixmXmDM5d549Iq7Hayd_53iFar0HpEW9_gr4)" d="M35.991,38.004l-12-13l-12,13l0,0 c2.17,2.17,5.719,2.066,7.758-0.228l4.242-4.772l4.242,4.772C30.272,40.07,33.821,40.174,35.991,38.004L35.991,38.004z"></path>
</svg>
