<svg xmlns="http://www.w3.org/2000/svg" width="660" height="480" shape-rendering="geometricPrecision" image-rendering="optimizeQuality" fill-rule="evenodd" xmlns:v="https://vecta.io/nano"><path fill="#e95513" d="M179.5 179.5v60h-120v-180h60v60h60v60z"/><path d="M299.5 119.5h-60v-60h60v60zm120 0h-60v-60h60v60z" fill="#3c3d3c"/><path d="M479.5 239.5v-60-60h60v-60h60v180h-120zm-240-120h60v60h-60v-60zm120 0h60v60h-60v-60z" fill="#e95513"/><path fill="#fe8149" d="M179.5 179.5h60 60 60 60 60v60 60 60h-300v-60-60-60z"/><path d="M179.5 299.5v60 60h-60v-120h60zm300 0h60v120h-60v-60-60z" fill="#e95513"/></svg>