<svg xmlns="http://www.w3.org/2000/svg" width="512" height="512" fill="none"><rect width="512" height="512" fill="#fff" rx="24"/><g fill="#000" clip-path="url(#a)"><mask id="b" width="272" height="335" x="118" y="95" maskUnits="userSpaceOnUse"><path fill="#fff" d="M118 95h272v335H118z"/><path d="M129.5 428.5q-5 0-8-2.5-2.5-2-2.5-5 0-7.5 11-10.5 17-4.5 24-10.5 7.5-6 7.5-22V150.5q0-16-6.5-23t-24.5-11q-6.5-1.5-9-4-2.5-3-2.5-6.5 0-3 3-5 3-2.5 8-2.5 12.5 0 25.5.5t25.5 1.5q12.5.5 24 .5 26 0 55.5-.5t52.5-1q16 0 26.5-1.5 10.5-2 12.5-2 3.5 0 7.5 2.5 4.5 2 5 7 2 18 5 35t3 30q0 4.5-2 7T366 180t-5.5-2q-2.5-2-4-6-5-12.5-9-21.5t-9-14.5q-6-5.5-14.5-10.5t-21.5-5H265q-11 0-19 6-8 5.5-8 16V237q0 6 3.5 9t9 3h44q13 0 18.5-8.5 6-9 10.5-21.5 3.5-9.5 10-9.5 2.5 0 4.5 3 2 2.5 1.5 8-.5 6-1 13l-1 14V274q.5 7 .5 14 .5 7 1 13.5 1 7-.5 10.5-1.5 3-4.5 3-8 0-11.5-13-4.5-15-10-23t-15.5-8h-46.5q-6 0-9.5 3-3 2.5-3 8.5v95q0 15 6.5 21t20 6h43q11 0 21-2.5t17-8.5q8.5-7 15.5-17.5t13-22.5q2-3.5 4-4.5 2.5-1.5 5.5-1.5 2.5 0 3.5 3 1.5 3 1.5 6.5 0 8.5-2.5 19t-6.5 22.5l-7 23q-1 3.5-4.5 5-3 1.5-6.5 1.5-6.5 0-24.5-.5-17.5 0-41.5-.5t-49.5-1h-47.5q-10 0-22 .5t-24.5 1q-12 1-22.5 1"/></mask><path d="M129.5 428.5q-5 0-8-2.5-2.5-2-2.5-5 0-7.5 11-10.5 17-4.5 24-10.5 7.5-6 7.5-22V150.5q0-16-6.5-23t-24.5-11q-6.5-1.5-9-4-2.5-3-2.5-6.5 0-3 3-5 3-2.5 8-2.5 12.5 0 25.5.5t25.5 1.5q12.5.5 24 .5 26 0 55.5-.5t52.5-1q16 0 26.5-1.5 10.5-2 12.5-2 3.5 0 7.5 2.5 4.5 2 5 7 2 18 5 35t3 30q0 4.5-2 7T366 180t-5.5-2q-2.5-2-4-6-5-12.5-9-21.5t-9-14.5q-6-5.5-14.5-10.5t-21.5-5H265q-11 0-19 6-8 5.5-8 16V237q0 6 3.5 9t9 3h44q13 0 18.5-8.5 6-9 10.5-21.5 3.5-9.5 10-9.5 2.5 0 4.5 3 2 2.5 1.5 8-.5 6-1 13l-1 14V274q.5 7 .5 14 .5 7 1 13.5 1 7-.5 10.5-1.5 3-4.5 3-8 0-11.5-13-4.5-15-10-23t-15.5-8h-46.5q-6 0-9.5 3-3 2.5-3 8.5v95q0 15 6.5 21t20 6h43q11 0 21-2.5t17-8.5q8.5-7 15.5-17.5t13-22.5q2-3.5 4-4.5 2.5-1.5 5.5-1.5 2.5 0 3.5 3 1.5 3 1.5 6.5 0 8.5-2.5 19t-6.5 22.5l-7 23q-1 3.5-4.5 5-3 1.5-6.5 1.5-6.5 0-24.5-.5-17.5 0-41.5-.5t-49.5-1h-47.5q-10 0-22 .5t-24.5 1q-12 1-22.5 1"/><path d="m121.5 426 .64-.768-.007-.007-.008-.006zm8.5-15.5-.256-.967-.007.002zm24-10.5-.625-.781-.013.011-.013.011zm1-272.5.733-.68zm-24.5-11-.225.974.008.002zm-9-4-.768.64.029.035.032.032zm.5-11.5.555.832.044-.03.041-.034zm59-.5-.08.997.02.001.02.001zm79.5 0-.017-1zm52.5-1v-1h-.022zm26.5-1.5.141.99.023-.003.023-.005zm20 .5-.53.848.06.037.064.029zm5 7-.995.099.001.011zm5 35 .985-.174zm1 37-.781-.625zm-10 .5-.625.781.034.027.036.024zm-4-6 .936-.351-.003-.01-.005-.01zm-9-21.5.914-.406zm-9-14.5.74-.673-.031-.033-.033-.031zM324 125.5l-.507.862zm-78 1 .567.824.017-.012.016-.012zm67 114-.832-.555-.008.012zm10.5-21.5-.938-.346-.003.007zm14.5-6.5-.832.555.024.036.027.034zm1.5 8-.996-.091-.001.008zm-2 27-.997-.071-.003.035v.036zm0 26.5h-1v.036l.003.035zm.5 14h-1v.036l.003.035zm1 13.5-.997.077.002.032.005.032zm-.5 10.5.894.447.014-.026.011-.027zm-16-10 .966-.26-.004-.014-.004-.013zm-10-23-.824.567zm-71.5-5 .64.768.011-.009zm3.5 124.5.678-.735zm84 3.5-.243-.97zm17-8.5-.636-.772-.007.006-.008.007zM361 376l.832.555zm13-22.5-.868-.496-.014.024-.012.025zm4-4.5.447.894.035-.017.033-.02zm9 1.5-.949.316.023.068.032.063zm-1 25.5.973.232zm-6.5 22.5-.949-.316-.004.012-.004.013zm-7 23-.957-.291-.002.008-.003.008zm-4.5 5-.394-.919-.027.011-.026.014zm-31 1 .028-1H337zm-41.5-.5-.021 1zm-49.5-1 .02-1H246zm-69.5.5-.042-.999zm-24.5 1-.04-.999-.022.001-.021.001zm-22.5 0c-3.166 0-5.585-.789-7.36-2.268l-1.28 1.536c2.225 1.855 5.14 2.732 8.64 2.732zm-7.375-2.281C120.677 424.061 120 422.673 120 421h-2c0 2.327.99 4.272 2.875 5.781zM120 421c0-2.222.802-4.087 2.44-5.652 1.668-1.592 4.243-2.907 7.823-3.883l-.526-1.93c-3.753 1.024-6.679 2.459-8.677 4.367-2.028 1.935-3.06 4.32-3.06 7.098zm10.256-9.533c11.37-3.01 19.551-6.556 24.395-10.708l-1.302-1.518c-4.49 3.848-12.308 7.302-23.605 10.292zm24.369-10.686c5.357-4.286 7.875-12.009 7.875-22.781h-2c0 10.561-2.482 17.505-7.125 21.219zM162.5 378V150.5h-2V378zm0-227.5c0-10.76-2.178-18.738-6.767-23.68l-1.466 1.36c4.078 4.392 6.233 11.747 6.233 22.32zm-6.767-23.68c-4.55-4.9-12.973-8.62-25.016-11.296l-.434 1.952c11.957 2.657 19.868 6.271 23.984 10.704zm-25.008-11.294c-4.288-.99-7.057-2.272-8.518-3.733l-1.414 1.414c1.872 1.872 5.103 3.257 9.482 4.267zm-8.457-3.666c-1.535-1.843-2.268-3.788-2.268-5.86h-2c0 2.595.934 4.983 2.732 7.14zM120 106c0-1.595.768-2.977 2.555-4.168l-1.11-1.664C119.232 101.644 118 103.595 118 106zm2.64-4.232c1.775-1.479 4.194-2.268 7.36-2.268v-2c-3.5 0-6.415.877-8.64 2.732zM130 99.5q12.48 0 25.462.5l.076-2A665 665 0 0 0 130 97.5zm25.462.5q12.98.498 25.458 1.497l.16-1.994a619 619 0 0 0-25.542-1.502zm25.498 1.499Q193.479 102 205 102v-2q-11.478 0-23.96-.5zM205 102q26.01 0 55.517-.5l-.034-2q-29.493.5-55.483.5zm55.517-.5q29.502-.5 52.505-1l-.044-2q-22.996.5-52.495 1zm52.483-1c10.693 0 19.577-.5 26.641-1.51l-.282-1.98C332.423 98 323.641 98.5 313 98.5zm26.687-1.518q5.243-.998 8.346-1.495c2.1-.335 3.394-.487 3.967-.487v-2c-.76 0-2.216.182-4.283.513q-3.147.503-8.404 1.505zM352 97c2.091 0 4.409.747 6.97 2.348l1.06-1.696C357.258 95.919 354.575 95 352 95zm7.094 2.414c2.663 1.184 4.112 3.201 4.411 6.185l1.99-.199c-.368-3.681-2.252-6.33-5.589-7.814zm4.412 6.196q2.003 18.03 5.009 35.064l1.97-.348q-2.994-16.967-4.991-34.936zm5.009 35.064c1.993 11.293 2.985 21.233 2.985 29.826h2c0-8.74-1.008-18.8-3.015-30.174zM371.5 170.5c0 2.863-.637 4.946-1.781 6.375l1.562 1.25c1.523-1.904 2.219-4.488 2.219-7.625zm-1.781 6.375C368.518 178.377 367.281 179 366 179v2c2.052 0 3.816-1.044 5.281-2.875zM366 179c-1.4 0-3.04-.562-4.945-1.832l-1.11 1.664C362.04 180.229 364.067 181 366 181zm-4.875-1.781c-1.487-1.189-2.731-3.017-3.689-5.57l-1.872.702c1.042 2.781 2.464 4.952 4.311 6.43zm-3.697-5.59q-5.004-12.513-9.014-21.535l-1.828.812q3.99 8.977 8.986 21.465zm-9.014-21.535c-2.697-6.068-5.75-11-9.174-14.767l-1.48 1.346c3.243 3.566 6.19 8.301 8.826 14.233zm-9.238-14.831c-4.061-3.723-8.954-7.263-14.669-10.625l-1.014 1.724c5.618 3.305 10.392 6.765 14.331 10.375zm-14.669-10.625c-5.862-3.448-13.217-5.138-22.007-5.138v2c8.544 0 15.521 1.643 20.993 4.862zM302.5 119.5H265v2h37.5zm-37.5 0c-7.527 0-14.076 2.057-19.6 6.2l1.2 1.6c5.143-3.857 11.26-5.8 18.4-5.8zm-19.567 6.176c-5.629 3.87-8.433 9.526-8.433 16.824h2c0-6.702 2.53-11.713 7.567-15.176zM237 142.5V237h2v-94.5zm0 94.5c0 4.198 1.232 7.516 3.849 9.759l1.302-1.518C240.102 243.484 239 240.802 239 237zm3.849 9.759c2.548 2.184 5.794 3.241 9.651 3.241v-2c-3.476 0-6.231-.943-8.349-2.759zM250.5 250h44v-2h-44zm44 0c8.897 0 15.436-2.925 19.34-8.957l-1.68-1.086c-3.43 5.301-9.224 8.043-17.66 8.043zm19.332-8.945c4.054-6.081 7.587-13.323 10.609-21.716l-1.882-.678c-2.978 8.274-6.445 15.365-10.391 21.284zm10.606-21.709c2.282-6.195 5.365-8.846 9.062-8.846v-2c-4.97 0-8.554 3.682-10.938 10.154zm9.062-8.846c1.2 0 2.432.701 3.668 2.555l1.664-1.11c-1.431-2.146-3.198-3.445-5.332-3.445zm3.719 2.625c1.089 1.361 1.611 3.702 1.285 7.284l1.992.182c.341-3.752-.138-6.744-1.715-8.716zm1.284 7.292a1111 1111 0 0 0-1 13.012l1.994.142q.5-6.994 1-12.988zm-1 13.012-1 14 1.994.142 1-14zM336.5 247.5V261h2v-13.5zm0 13.5v13h2v-13zm.003 13.071Q337 281.036 337 288h2q0-7.036-.503-14.071zm.5 14q.5 7.003 1 13.506l1.994-.154a2576 2576 0 0 1-1-13.494zm1.007 13.57c.66 4.618.46 7.891-.429 9.965l1.838.788c1.111-2.593 1.245-6.319.571-11.035zm-.404 9.912c-.441.881-.961 1.482-1.536 1.865-.568.379-1.245.582-2.07.582v2c1.175 0 2.248-.297 3.18-.918.925-.617 1.655-1.516 2.214-2.635zM334 314c-2.354 0-4.381-.94-6.126-2.913-1.773-2.004-3.262-5.089-4.408-9.347l-1.932.52c1.187 4.408 2.782 7.824 4.842 10.153 2.088 2.36 4.645 3.587 7.624 3.587zm-10.542-12.287c-3.014-10.047-6.384-17.825-10.134-23.28l-1.648 1.134c3.583 5.211 6.88 12.767 9.866 22.72zm-10.134-23.28c-3.86-5.614-9.34-8.433-16.324-8.433v2c6.349 0 11.202 2.514 14.676 7.567zM297 270h-46.5v2H297zm-46.5 0c-4.165 0-7.587 1.044-10.151 3.241l1.302 1.518c2.103-1.803 5.014-2.759 8.849-2.759zm-10.14 3.232c-2.328 1.94-3.36 5.132-3.36 9.268h2c0-3.864.968-6.338 2.64-7.732zM237 282.5v95h2v-95zm0 95c0 10.095 2.179 17.449 6.822 21.735l1.356-1.47c-4.023-3.714-6.178-10.36-6.178-20.265zm6.822 21.735c4.594 4.241 11.555 6.265 20.678 6.265v-2c-8.877 0-15.25-1.976-19.322-5.735zM264.5 405.5h43v-2h-43zm43 0q11.115.001 21.243-2.53l-.486-1.94q-9.872 2.469-20.757 2.47zm21.243-2.53c6.799-1.7 12.61-4.598 17.408-8.711l-1.302-1.518c-4.535 3.887-10.057 6.655-16.592 8.289zm17.393-8.698c5.752-4.737 10.983-10.647 15.696-17.717l-1.664-1.11c-4.62 6.93-9.723 12.687-15.304 17.283zm15.696-17.717q7.037-10.555 13.062-22.608l-1.788-.894q-5.975 11.947-12.938 22.392zm13.036-22.559c1.304-2.281 2.515-3.569 3.579-4.102l-.894-1.788c-1.602.801-3.058 2.513-4.421 4.898zm3.647-4.139c1.506-.903 3.161-1.357 4.985-1.357v-2c-2.176 0-4.188.546-6.014 1.642zm4.985-1.357c.616 0 1.088.178 1.474.509.404.346.781.918 1.077 1.807l1.898-.632c-.37-1.111-.91-2.039-1.673-2.693-.781-.669-1.726-.991-2.776-.991zm2.606 2.447c.927 1.855 1.394 3.868 1.394 6.053h2c0-2.482-.533-4.802-1.606-6.947zM387.5 357c0 5.571-.82 11.825-2.473 18.768l1.946.464c1.68-7.057 2.527-13.47 2.527-19.232zm-2.473 18.768q-2.488 10.45-6.476 22.416l1.898.632q4.011-12.034 6.524-22.584zm-6.484 22.441-7 23 1.914.582 7-23zm-7.005 23.016c-.579 2.029-1.86 3.468-3.932 4.356l.788 1.838c2.595-1.112 4.314-3.007 5.068-5.644zm-3.985 4.381c-1.855.927-3.868 1.394-6.053 1.394v2c2.482 0 4.802-.533 6.947-1.606zM361.5 427c-4.317 0-12.471-.166-24.472-.5l-.056 2c11.999.333 20.179.5 24.528.5zm-24.5-.5q-17.487 0-41.479-.5l-.042 2q24.007.5 41.521.5zm-41.479-.5q-24.001-.5-49.501-1l-.04 2q25.5.5 49.499 1zM246 425h-47.5v2H246zm-47.5 0q-10.024 0-22.042.501l.084 1.998q11.982-.5 21.958-.499zm-22.042.501q-11.999.5-24.498 1l.08 1.998q12.5-.5 24.502-1zm-24.541 1.002q-11.964.997-22.417.997v2q10.547 0 22.583-1.003z" mask="url(#b)"/></g><defs><clipPath id="a"><path fill="#fff" d="M0 0h512v512H0z"/></clipPath></defs></svg>