<?xml version="1.0" standalone="no"?>
<!DOCTYPE svg PUBLIC "-//W3C//DTD SVG 20010904//EN"
 "http://www.w3.org/TR/2001/REC-SVG-20010904/DTD/svg10.dtd">
<svg version="1.0" xmlns="http://www.w3.org/2000/svg"
 width="512.000000pt" height="512.000000pt" viewBox="0 0 512.000000 512.000000"
 preserveAspectRatio="xMidYMid meet">

<g transform="translate(0.000000,512.000000) scale(0.100000,-0.100000)"
fill="#000000" stroke="none">
<path d="M2640 4440 l0 -40 -80 0 -80 0 0 -40 0 -40 -120 0 -120 0 0 -40 0
-40 -240 0 -240 0 0 -40 0 -40 -160 0 -160 0 0 -40 0 -40 -120 0 -120 0 0 -40
0 -40 -40 0 -40 0 0 -40 0 -40 -40 0 -40 0 0 -320 0 -320 40 0 40 0 0 -160 0
-160 40 0 40 0 0 -320 0 -320 -40 0 -40 0 0 -240 0 -240 40 0 40 0 0 -120 0
-120 40 0 40 0 0 -40 0 -40 80 0 80 0 0 -120 0 -120 40 0 40 0 0 -240 0 -240
-40 0 -40 0 0 -80 0 -80 -40 0 -40 0 0 -40 0 -40 -40 0 -40 0 0 -40 0 -40
-160 0 -160 0 0 -40 0 -40 -80 0 -80 0 0 -40 0 -40 -40 0 -40 0 0 -40 0 -40
-80 0 -80 0 0 -40 0 -40 -80 0 -80 0 0 -40 0 -40 -80 0 -80 0 0 -40 0 -40
1640 0 1640 0 0 40 0 40 -80 0 -80 0 0 40 0 40 -80 0 -80 0 0 40 0 40 -40 0
-40 0 0 40 0 40 40 0 40 0 0 160 0 160 40 0 40 0 0 40 0 40 40 0 40 0 0 40 0
40 40 0 40 0 0 80 0 80 40 0 40 0 0 80 0 80 40 0 40 0 0 80 0 80 40 0 40 0 0
80 0 80 40 0 40 0 0 40 0 40 40 0 40 0 0 160 0 160 40 0 40 0 0 200 0 200 -80
0 -80 0 0 40 0 40 40 0 40 0 0 200 0 200 40 0 40 0 0 40 0 40 40 0 40 0 0 80
0 80 40 0 40 0 0 80 0 80 -40 0 -40 0 0 200 0 200 -40 0 -40 0 0 160 0 160
-40 0 -40 0 0 40 0 40 -40 0 -40 0 0 80 0 80 -40 0 -40 0 0 40 0 40 -40 0 -40
0 0 40 0 40 -40 0 -40 0 0 40 0 40 -120 0 -120 0 0 40 0 40 -120 0 -120 0 0
40 0 40 -200 0 -200 0 0 -40z m-400 -1040 l0 -40 40 0 40 0 0 -40 0 -40 40 0
40 0 0 -40 0 -40 40 0 40 0 0 -40 0 -40 40 0 40 0 0 40 0 40 160 0 160 0 0
-40 0 -40 80 0 80 0 0 -40 0 -40 40 0 c40 0 40 0 40 -40 l0 -39 123 -3 122 -3
0 -35 0 -35 -125 0 -125 0 -3 32 -3 32 -110 3 c-107 3 -109 3 -110 -19 -3 -57
-11 -63 -88 -63 l-68 0 -6 -232 c-4 -128 -7 -306 -7 -395 l0 -163 40 0 40 0 0
-120 0 -120 -40 0 -40 0 0 -40 0 -40 -80 0 -80 0 0 40 0 40 -80 0 -80 0 0 38
c0 22 -3 94 -7 160 l-6 122 46 0 47 0 0 40 0 40 -45 0 -45 0 2 203 3 202 38 3
37 3 0 73 0 73 -32 -1 -33 -1 -9 77 -8 76 -142 7 c-77 4 -235 5 -351 4 l-210
-4 -3 -37 c-3 -37 -4 -38 -45 -39 -23 -1 -58 -2 -77 -3 -34 -1 -35 0 -38 42
l-3 42 40 0 41 0 0 40 0 40 40 0 40 0 0 40 0 40 240 0 240 0 0 40 0 40 40 0
40 0 0 40 0 40 -40 0 -40 0 0 80 0 80 40 0 40 0 0 -40z m-490 -495 c0 -8 -7
-15 -15 -15 -13 0 -14 3 -3 15 16 18 18 18 18 0z m1757 -82 c-3 -10 -5 -2 -5
17 0 19 2 27 5 18 2 -10 2 -26 0 -35z m-1970 0 c-3 -10 -5 -4 -5 12 0 17 2 24
5 18 2 -7 2 -21 0 -30z m50 0 c-3 -10 -5 -4 -5 12 0 17 2 24 5 18 2 -7 2 -21
0 -30z m590 -155 c-3 -8 -6 -5 -6 6 -1 11 2 17 5 13 3 -3 4 -12 1 -19z m-430
-90 c-3 -8 -6 -5 -6 6 -1 11 2 17 5 13 3 -3 4 -12 1 -19z m-139 -50 c3 -35 6
-38 33 -38 22 0 32 -6 39 -25 5 -14 7 -32 4 -40 -5 -13 31 -15 277 -17 l284
-3 3 -37 c3 -35 5 -37 40 -40 l37 -3 0 -158 c0 -95 -4 -161 -10 -165 -5 -3
-22 -5 -37 -3 l-28 3 0 -76 0 -76 34 0 35 0 3 -92 c2 -51 2 -110 0 -130 l-3
-38 -115 0 -114 0 0 -29 c0 -35 -13 -46 -55 -47 -27 0 -30 -4 -35 -40 -5 -36
-8 -39 -35 -39 -27 0 -30 -3 -35 -40 l-5 -40 -45 0 -45 0 -3 77 -3 77 -37 3
c-35 3 -37 5 -42 43 -5 38 -7 40 -40 40 -33 0 -35 2 -40 41 -5 39 -7 41 -40
40 l-35 0 -3 77 -3 76 -37 3 -37 3 -3 158 -3 157 -34 0 -35 0 0 85 0 85 40 0
40 0 0 80 0 80 -40 0 c-40 0 -40 0 -40 38 0 21 3 42 7 46 4 4 41 5 83 4 l75
-3 3 -37z m1979 -75 c-2 -21 -4 -6 -4 32 0 39 2 55 4 38 2 -18 2 -50 0 -70z
m-1920 55 c-3 -7 -5 -2 -5 12 0 14 2 19 5 13 2 -7 2 -19 0 -25z m1710 -20 c-3
-8 -6 -5 -6 6 -1 11 2 17 5 13 3 -3 4 -12 1 -19z m151 -40 c3 -33 6 -37 35
-40 l32 -3 0 -165 0 -165 -32 -3 -33 -3 0 -228 c0 -163 -3 -230 -12 -239 -7
-7 -27 -12 -45 -12 -18 0 -32 -3 -32 -7 1 -5 1 -23 0 -42 -1 -32 -2 -33 -36
-29 -33 4 -34 3 -37 -37 l-3 -40 -75 -2 c-41 0 -81 4 -87 9 -7 6 -13 25 -13
42 0 31 -2 32 -31 28 -35 -5 -49 8 -49 49 0 24 -5 27 -46 33 -26 3 -59 6 -74
6 l-27 0 -7 355 c-4 195 -5 359 -1 365 4 6 90 10 241 10 l234 0 0 73 c0 41 3
77 7 81 4 4 25 6 48 4 38 -3 40 -5 43 -40z m-2248 -328 l0 -40 40 0 c44 0 43
4 40 -92 l-1 -58 40 0 c37 0 40 -2 46 -32 3 -18 5 -91 3 -163 l-3 -130 -80 0
-80 0 -3 118 -3 117 -39 0 -40 0 0 160 0 160 40 0 40 0 0 -40z m2307 -92 c-3
-7 -5 -2 -5 12 0 14 2 19 5 13 2 -7 2 -19 0 -25z m253 -108 l0 -80 -40 0 -40
0 0 -160 0 -160 -45 0 -45 0 0 200 0 200 45 0 45 0 0 40 0 40 40 0 40 0 0 -80z
m-173 48 c-3 -8 -6 -5 -6 6 -1 11 2 17 5 13 3 -3 4 -12 1 -19z m-1280 -354
c-3 -3 -12 -4 -19 -1 -8 3 -5 6 6 6 11 1 17 -2 13 -5z m320 -61 c-3 -10 -5 -4
-5 12 0 17 2 24 5 18 2 -7 2 -21 0 -30z m-1199 -20 c-10 -2 -28 -2 -40 0 -13
2 -5 4 17 4 22 1 32 -1 23 -4z m29 -185 c-2 -35 -3 -9 -3 57 0 66 1 94 3 63 2
-32 2 -86 0 -120z m2133 132 c0 -25 -4 -30 -22 -29 -17 1 -19 2 -5 6 10 3 17
14 17 29 0 13 2 24 5 24 3 0 5 -13 5 -30z m-1603 -17 c-3 -10 -5 -4 -5 12 0
17 2 24 5 18 2 -7 2 -21 0 -30z m751 -19 c58 -6 61 -8 68 -36 3 -17 2 -34 -2
-38 -5 -5 -135 -10 -289 -11 l-280 -3 -3 23 c-2 13 -1 34 2 47 l6 24 219 0
c120 0 246 -3 279 -6z m-1225 -151 c-7 -2 -19 -2 -25 0 -7 3 -2 5 12 5 14 0
19 -2 13 -5z m1612 -133 l0 -125 -45 -5 c-25 -3 -44 -8 -42 -12 1 -5 2 -39 2
-77 l0 -70 -34 6 -35 5 -3 -43 c-3 -43 -4 -44 -40 -47 -35 -3 -37 -5 -40 -40
-3 -35 -5 -37 -38 -37 -33 0 -35 -2 -40 -40 l-5 -40 -163 -3 c-109 -2 -161 -6
-156 -13 3 -5 3 -21 0 -35 -6 -21 -12 -24 -51 -24 -45 0 -45 0 -45 34 0 33 -2
35 -37 38 -36 3 -38 5 -43 43 -5 38 -7 40 -40 40 -33 0 -35 2 -38 37 -3 35 -5
37 -40 40 -36 3 -37 4 -40 46 -3 42 -3 43 -40 40 -36 -3 -37 -2 -40 34 -3 35
-5 37 -40 40 l-37 3 -5 80 -5 80 -35 0 c-35 0 -35 0 -35 45 l0 45 443 3 442 2
0 -40 c0 -39 1 -40 34 -40 33 0 35 2 38 38 3 35 5 37 41 40 35 3 37 5 37 36 0
18 3 36 7 40 4 4 43 5 88 4 l80 -3 0 -125z m305 45 l0 -75 -37 2 c-37 1 -37 1
-5 5 l32 4 0 70 c0 38 2 69 5 69 3 0 5 -34 5 -75z m-1893 13 c-2 -13 -4 -5 -4
17 -1 22 1 32 4 23 2 -10 2 -28 0 -40z m0 -60 c-3 -7 -5 -2 -5 12 0 14 2 19 5
13 2 -7 2 -19 0 -25z m1810 -90 c-2 -13 -4 -5 -4 17 -1 22 1 32 4 23 2 -10 2
-28 0 -40z m-1674 -95 c-7 -2 -19 -2 -25 0 -7 3 -2 5 12 5 14 0 19 -2 13 -5z
m1594 -65 c-2 -13 -4 -5 -4 17 -1 22 1 32 4 23 2 -10 2 -28 0 -40z m-1730 -70
c-2 -18 -4 -4 -4 32 0 36 2 50 4 33 2 -18 2 -48 0 -65z m50 70 c-3 -8 -6 -5
-6 6 -1 11 2 17 5 13 3 -3 4 -12 1 -19z m80 -95 c-3 -10 -5 -4 -5 12 0 17 2
24 5 18 2 -7 2 -21 0 -30z m-210 -135 c-2 -18 -4 -4 -4 32 0 36 2 50 4 33 2
-18 2 -48 0 -65z m-160 -180 c-2 -13 -4 -5 -4 17 -1 22 1 32 4 23 2 -10 2 -28
0 -40z m1096 -5 c-13 -2 -33 -2 -45 0 -13 2 -3 4 22 4 25 0 35 -2 23 -4z m445
0 c-21 -2 -57 -2 -80 0 -24 2 -7 4 37 4 44 0 63 -2 43 -4z m-1621 -75 c-3 -8
-6 -5 -6 6 -1 11 2 17 5 13 3 -3 4 -12 1 -19z m1813 -58 c0 -28 -2 -30 -37
-28 -37 1 -37 1 -5 5 26 4 32 9 32 29 0 13 2 24 5 24 3 0 5 -13 5 -30z m-1762
-27 c-10 -2 -28 -2 -40 0 -13 2 -5 4 17 4 22 1 32 -1 23 -4z m1679 -75 c-2
-13 -4 -3 -4 22 0 25 2 35 4 23 2 -13 2 -33 0 -45z m-1650 20 c-3 -8 -6 -5 -6
6 -1 11 2 17 5 13 3 -3 4 -12 1 -19z m56 -25 c-7 -2 -21 -2 -30 0 -10 3 -4 5
12 5 17 0 24 -2 18 -5z m240 -160 c-13 -2 -33 -2 -45 0 -13 2 -3 4 22 4 25 0
35 -2 23 -4z"/>
<path d="M2490 1115 c-1 0 -2 -33 -3 -73 l-2 -72 36 0 c33 0 37 -3 43 -31 3
-17 3 -35 0 -40 -3 -5 45 -9 110 -9 l116 0 0 110 0 110 -120 1 c-66 1 -133 2
-150 3 -16 0 -30 1 -30 1z"/>
</g>
</svg>
