<svg class="gridItem__media" version="1.1" id="Layer_1" xmlns="http://www.w3.org/2000/svg" x="0px" y="0px" width="1600" height="1200" viewBox="0 0 1600 1200" style="clip-rule: nonzero; color: rgb(61, 61, 61); color-interpolation: srgb; color-interpolation-filters: linearrgb; cursor: auto; direction: ltr; display: block; fill: none; fill-opacity: 1; fill-rule: nonzero; font: 16px / 18.4px lato, sans-serif; image-rendering: auto; letter-spacing: normal; marker: none; overflow: hidden; paint-order: normal; pointer-events: auto; shape-rendering: auto; stroke: none; stroke-dasharray: none; stroke-dashoffset: 0px; stroke-linecap: butt; stroke-linejoin: miter; stroke-miterlimit: 4; stroke-opacity: 1; stroke-width: 1px; text-anchor: start; text-decoration: rgb(61, 61, 61); text-rendering: auto; visibility: visible; word-spacing: 0px; writing-mode: horizontal-tb;" fill="none" xmlns:xlink="http://www.w3.org/1999/xlink">
<path d="M179.08 603.06L285.89 1070H1325.42L1397.93 683.91C1398.97 675.543 1398.38 667.052 1396.19 658.91L1270.39 287.77C1267.09 275.868 1260.41 265.177 1251.16 256.994C1241.91 248.81 1230.49 243.483 1218.27 241.66L564.27 150.15C553.18 148.508 541.852 149.829 531.438 153.979C521.023 158.129 511.891 164.961 504.97 173.78L191.13 549.42C185.249 556.897 181.115 565.594 179.03 574.875C176.945 584.156 176.962 593.786 179.08 603.06Z" fill="#F4F4F4" style="fill: rgb(244, 244, 244); paint-order: normal; text-decoration: rgb(61, 61, 61);"></path>
<path d="M950.34 761.17H934.31L982.55 1068.12H988.77L950.34 761.17Z" fill="#61656D" style="fill: rgb(97, 101, 109); paint-order: normal; text-decoration: rgb(61, 61, 61);"></path>
<path opacity="0.2" d="M988.77 1068.12H986.15L969.97 945.78L965 942.88L935 765.87L934.31 761.17H950.34L988.77 1068.12Z" fill="black" style="fill: rgb(0, 0, 0); opacity: 0.2; paint-order: normal; text-decoration: rgb(61, 61, 61);"></path>
<path d="M972.58 837.33H1140.24C1144.29 837.33 1148.17 838.938 1151.03 841.8C1153.89 844.661 1155.5 848.543 1155.5 852.59V855.49H957.32V852.59C957.32 848.543 958.928 844.661 961.79 841.8C964.652 838.938 968.533 837.33 972.58 837.33V837.33Z" class="change-color-in-svg" fill="#4D61FC" style="fill: rgb(173, 174, 185); paint-order: normal; text-decoration: rgb(61, 61, 61);"></path>
<path d="M1179.36 658.675L1177.22 658.366C1173.47 657.826 1169.99 660.428 1169.45 664.178L1156.95 750.922C1156.41 754.672 1159.01 758.15 1162.76 758.69L1164.9 758.998C1168.65 759.539 1172.13 756.937 1172.67 753.187L1185.17 666.443C1185.71 662.693 1183.11 659.215 1179.36 658.675Z" class="change-color-in-svg" fill="#4D61FC" style="fill: rgb(173, 174, 185); paint-order: normal; text-decoration: rgb(61, 61, 61);"></path>
<path d="M1136.84 859.66H1126.37L1157.87 1067.04H1161.94L1136.84 859.66Z" fill="#61656D" style="fill: rgb(97, 101, 109); paint-order: normal; text-decoration: rgb(61, 61, 61);"></path>
<path opacity="0.2" d="M1161.94 1067.04H1160.22L1149.66 980.2L1146.41 978.31L1126.82 862.73L1126.37 859.66H1136.84L1161.94 1067.04Z" fill="black" style="fill: rgb(0, 0, 0); opacity: 0.2; paint-order: normal; text-decoration: rgb(61, 61, 61);"></path>
<path d="M992.62 859.66H1003.09L971.59 1067.04H967.52L992.62 859.66Z" fill="#61656D" style="fill: rgb(97, 101, 109); paint-order: normal; text-decoration: rgb(61, 61, 61);"></path>
<path opacity="0.2" d="M972.08 1067.04H970.36L980.98 980.2L977.73 978.31L992.94 862.73L992.49 859.66H1002.96L972.08 1067.04Z" fill="black" style="fill: rgb(0, 0, 0); opacity: 0.2; paint-order: normal; text-decoration: rgb(61, 61, 61);"></path>
<path d="M1159.05 855.49H957.56C955.759 855.49 954.3 856.95 954.3 858.75V859.79C954.3 861.59 955.759 863.05 957.56 863.05H1159.05C1160.85 863.05 1162.31 861.59 1162.31 859.79V858.75C1162.31 856.95 1160.85 855.49 1159.05 855.49Z" fill="#61656D" style="fill: rgb(97, 101, 109); paint-order: normal; text-decoration: rgb(61, 61, 61);"></path>
<path d="M1156.13 858.76L1185.2 662.24C1185.27 661.752 1185.44 661.283 1185.69 660.861C1185.95 660.438 1186.28 660.069 1186.68 659.777C1187.08 659.484 1187.53 659.273 1188.01 659.155C1188.49 659.037 1188.98 659.015 1189.47 659.09H1189.64C1190.62 659.241 1191.5 659.772 1192.08 660.569C1192.67 661.365 1192.92 662.362 1192.77 663.34L1163.54 859.84C1163.41 860.727 1162.96 861.537 1162.28 862.123C1161.6 862.708 1160.74 863.03 1159.84 863.03V863.03C1159.3 863.03 1158.77 862.914 1158.29 862.691C1157.8 862.469 1157.36 862.144 1157.01 861.74C1156.66 861.335 1156.4 860.86 1156.25 860.346C1156.1 859.832 1156.06 859.291 1156.13 858.76Z" fill="#61656D" style="fill: rgb(97, 101, 109); paint-order: normal; text-decoration: rgb(61, 61, 61);"></path>
<path d="M1102.52 863.2L1134.02 1067.42H1138.08L1112.99 863.2H1102.52Z" fill="#61656D" style="fill: rgb(97, 101, 109); paint-order: normal; text-decoration: rgb(61, 61, 61);"></path>
<path d="M967.48 863.2L942.38 1067.42H946.45L977.95 863.2H967.48Z" fill="#61656D" style="fill: rgb(97, 101, 109); paint-order: normal; text-decoration: rgb(61, 61, 61);"></path>
<path opacity="0.2" d="M1138.08 1067.42H1136.28L1109.28 869.42C1109.21 868.652 1108.85 867.939 1108.28 867.42C1107.74 866.898 1107.03 866.586 1106.28 866.54L1102.85 866.19L1102.49 863.19H1113L1138.08 1067.42Z" fill="black" style="fill: rgb(0, 0, 0); opacity: 0.2; paint-order: normal; text-decoration: rgb(61, 61, 61);"></path>
<path opacity="0.2" d="M945 1067.42L973.08 869.68C973.161 868.899 972.951 868.116 972.49 867.48C972.018 866.838 971.329 866.39 970.55 866.22L967.21 865.6L967.48 863.2H978L946.59 1067.42H945Z" fill="black" style="fill: rgb(0, 0, 0); opacity: 0.2; paint-order: normal; text-decoration: rgb(61, 61, 61);"></path>
<path opacity="0.2" d="M1154.37 851.33H957.7V855.11H1154.37V851.33Z" fill="black" style="fill: rgb(0, 0, 0); opacity: 0.2; paint-order: normal; text-decoration: rgb(61, 61, 61);"></path>
<path opacity="0.2" d="M1180.07 658.52L1165.01 759.29L1171.06 756.05L1184.71 662.19L1180.07 658.52Z" fill="black" style="fill: rgb(0, 0, 0); opacity: 0.2; paint-order: normal; text-decoration: rgb(61, 61, 61);"></path>
<path d="M1419.34 1068.24H216.8C216.338 1068.24 215.896 1068.42 215.569 1068.75C215.243 1069.08 215.06 1069.52 215.06 1069.98C215.06 1070.44 215.243 1070.88 215.569 1071.21C215.896 1071.54 216.338 1071.72 216.8 1071.72H1419.34C1419.8 1071.72 1420.24 1071.54 1420.57 1071.21C1420.9 1070.88 1421.08 1070.44 1421.08 1069.98C1421.08 1069.52 1420.9 1069.08 1420.57 1068.75C1420.24 1068.42 1419.8 1068.24 1419.34 1068.24V1068.24Z" fill="#B2B6BB" style="fill: rgb(178, 182, 187); paint-order: normal; text-decoration: rgb(61, 61, 61);"></path>
<path d="M220.07 782.79H257.64V775.56H218.41L220.07 782.79Z" fill="#868A91" style="fill: rgb(134, 138, 145); paint-order: normal; text-decoration: rgb(61, 61, 61);"></path>
<path d="M267.54 990.36V779.28H219.26L267.54 990.36Z" fill="#868A91" style="fill: rgb(134, 138, 145); paint-order: normal; text-decoration: rgb(61, 61, 61);"></path>
<path d="M270.07 1001.43H485.96V779.28H265.31V980.6L270.07 1001.43Z" fill="#B2B6BB" style="fill: rgb(178, 182, 187); paint-order: normal; text-decoration: rgb(61, 61, 61);"></path>
<path d="M276.5 810.39L475.63 810.18V984.48H276.5V810.39ZM474 812H278.09V982.9H474V812Z" fill="#868A91" style="fill: rgb(134, 138, 145); paint-order: normal; text-decoration: rgb(61, 61, 61);"></path>
<path d="M494.16 782.79H257.53C257.054 782.795 256.582 782.706 256.141 782.526C255.7 782.347 255.299 782.081 254.962 781.745C254.625 781.409 254.359 781.009 254.178 780.569C253.997 780.128 253.906 779.656 253.91 779.18V779.18C253.905 778.703 253.995 778.23 254.175 777.788C254.355 777.347 254.621 776.946 254.959 776.608C255.296 776.271 255.697 776.005 256.139 775.825C256.58 775.645 257.054 775.555 257.53 775.56H494.16C494.637 775.555 495.11 775.645 495.552 775.825C495.994 776.005 496.395 776.271 496.732 776.608C497.069 776.946 497.336 777.347 497.516 777.788C497.696 778.23 497.786 778.703 497.78 779.18V779.18C497.753 780.13 497.362 781.034 496.689 781.705C496.016 782.377 495.111 782.765 494.16 782.79V782.79Z" fill="#B2B6BB" style="fill: rgb(178, 182, 187); paint-order: normal; text-decoration: rgb(61, 61, 61);"></path>
<path d="M475.64 896.26H276.5V897.85H475.64V896.26Z" fill="#868A91" style="fill: rgb(134, 138, 145); paint-order: normal; text-decoration: rgb(61, 61, 61);"></path>
<path d="M384.64 838.2C387.699 838.2 390.18 835.72 390.18 832.66C390.18 829.6 387.699 827.12 384.64 827.12C381.58 827.12 379.1 829.6 379.1 832.66C379.1 835.72 381.58 838.2 384.64 838.2Z" fill="#868A91" style="fill: rgb(134, 138, 145); paint-order: normal; text-decoration: rgb(61, 61, 61);"></path>
<path opacity="0.15" d="M382.62 832.66C382.622 831.51 382.982 830.389 383.651 829.454C384.32 828.518 385.263 827.814 386.35 827.44C385.768 827.224 385.151 827.115 384.53 827.12C383.722 827.115 382.922 827.287 382.187 827.624C381.451 827.961 380.799 828.455 380.275 829.071C379.751 829.687 379.368 830.41 379.154 831.19C378.939 831.969 378.898 832.786 379.033 833.584C379.168 834.381 379.475 835.139 379.934 835.805C380.394 836.471 380.993 837.028 381.69 837.437C382.388 837.847 383.166 838.099 383.971 838.175C384.776 838.252 385.588 838.151 386.35 837.88C385.263 837.506 384.32 836.802 383.651 835.866C382.982 834.931 382.622 833.81 382.62 832.66V832.66Z" fill="black" style="fill: rgb(0, 0, 0); opacity: 0.15; paint-order: normal; text-decoration: rgb(61, 61, 61);"></path>
<path d="M384.64 923.96C387.699 923.96 390.18 921.48 390.18 918.42C390.18 915.36 387.699 912.88 384.64 912.88C381.58 912.88 379.1 915.36 379.1 918.42C379.1 921.48 381.58 923.96 384.64 923.96Z" fill="#868A91" style="fill: rgb(134, 138, 145); paint-order: normal; text-decoration: rgb(61, 61, 61);"></path>
<path opacity="0.15" d="M382.62 918.42C382.622 917.27 382.982 916.149 383.651 915.214C384.32 914.278 385.263 913.574 386.35 913.2C385.768 912.984 385.151 912.875 384.53 912.88C383.722 912.875 382.922 913.047 382.187 913.384C381.451 913.721 380.799 914.215 380.275 914.831C379.751 915.447 379.368 916.17 379.154 916.95C378.939 917.729 378.898 918.546 379.033 919.344C379.168 920.141 379.475 920.899 379.934 921.565C380.394 922.231 380.993 922.788 381.69 923.197C382.388 923.607 383.166 923.859 383.971 923.935C384.776 924.012 385.588 923.911 386.35 923.64C385.262 923.267 384.318 922.563 383.649 921.628C382.98 920.692 382.621 919.57 382.62 918.42V918.42Z" fill="black" style="fill: rgb(0, 0, 0); opacity: 0.15; paint-order: normal; text-decoration: rgb(61, 61, 61);"></path>
<path d="M253.91 790.25L265.31 782.79H485.96V786.2L253.91 790.25Z" fill="#868A91" style="fill: rgb(134, 138, 145); paint-order: normal; text-decoration: rgb(61, 61, 61);"></path>
<path d="M279.43 1042.35L289.82 1001.43H272.35L271.7 1008.55L279.43 1042.35Z" fill="#B2B6BB" style="fill: rgb(178, 182, 187); paint-order: normal; text-decoration: rgb(61, 61, 61);"></path>
<path d="M289.92 1001.43H272.45L271.78 1008.88L275.54 1025.31L278.2 1008.24L288.21 1006.32L289.92 1001.43Z" fill="#868A91" style="fill: rgb(134, 138, 145); paint-order: normal; text-decoration: rgb(61, 61, 61);"></path>
<path d="M410.64 1001.43L416.17 1062.9C416.272 1063.42 416.259 1063.96 416.131 1064.48C416.003 1065 415.763 1065.48 415.429 1065.9C415.095 1066.32 414.674 1066.65 414.196 1066.89C413.718 1067.13 413.194 1067.26 412.66 1067.27V1067.27C411.909 1067.26 411.178 1067.02 410.568 1066.58C409.957 1066.15 409.497 1065.53 409.25 1064.82L393.16 1001.43H410.64Z" fill="#B2B6BB" style="fill: rgb(178, 182, 187); paint-order: normal; text-decoration: rgb(61, 61, 61);"></path>
<path d="M407.54 1034.13L413.54 1032.65L410.67 1001.43H393.17L409.25 1064.82C409.498 1065.53 409.959 1066.14 410.569 1066.58C411.179 1067.02 411.909 1067.26 412.66 1067.27H412.87L407.54 1034.13Z" fill="#868A91" style="fill: rgb(134, 138, 145); paint-order: normal; text-decoration: rgb(61, 61, 61);"></path>
<path d="M475.1 1001.43L480.64 1062.9C480.742 1063.42 480.728 1063.97 480.6 1064.48C480.471 1065 480.231 1065.49 479.896 1065.9C479.56 1066.32 479.138 1066.66 478.659 1066.89C478.179 1067.13 477.654 1067.26 477.12 1067.27V1067.27C476.369 1067.26 475.638 1067.03 475.029 1066.59C474.42 1066.15 473.963 1065.53 473.72 1064.82L457.63 1001.43H475.1Z" fill="#B2B6BB" style="fill: rgb(178, 182, 187); paint-order: normal; text-decoration: rgb(61, 61, 61);"></path>
<path d="M468.27 1006.75L475.95 1005.37L475.1 1001.43H457.63L473.71 1064.82C473.958 1065.53 474.419 1066.14 475.029 1066.58C475.639 1067.02 476.369 1067.26 477.12 1067.27H477.33L468.27 1006.75Z" fill="#868A91" style="fill: rgb(134, 138, 145); paint-order: normal; text-decoration: rgb(61, 61, 61);"></path>
<path d="M378.82 757.83H310V775.83H378.79C381.177 775.83 383.466 774.882 385.154 773.194C386.842 771.506 387.79 769.217 387.79 766.83C387.79 764.443 386.842 762.154 385.154 760.466C383.466 758.778 381.177 757.83 378.79 757.83" class="change-color-in-svg" fill="#4D61FC" style="fill: rgb(173, 174, 185); paint-order: normal; text-decoration: rgb(61, 61, 61);"></path>
<path opacity="0.2" d="M378.82 757.83H310V775.83H378.79C381.177 775.83 383.466 774.882 385.154 773.194C386.842 771.506 387.79 769.217 387.79 766.83C387.79 764.443 386.842 762.154 385.154 760.466C383.466 758.778 381.177 757.83 378.79 757.83" fill="white" style="fill: rgb(255, 255, 255); opacity: 0.2; paint-order: normal; text-decoration: rgb(61, 61, 61);"></path>
<path d="M315.76 775.82H281V773.25H291.77V760.5H281V757.83H315.79C318.177 757.83 320.466 758.778 322.154 760.466C323.842 762.154 324.79 764.443 324.79 766.83C324.79 769.217 323.842 771.506 322.154 773.194C320.466 774.882 318.177 775.83 315.79 775.83" class="change-color-in-svg" fill="#4D61FC" style="fill: rgb(173, 174, 185); paint-order: normal; text-decoration: rgb(61, 61, 61);"></path>
<path d="M283.54 773.15H315.66C316.512 773.184 317.362 773.045 318.159 772.743C318.955 772.44 319.683 771.98 320.298 771.389C320.912 770.798 321.401 770.09 321.735 769.305C322.069 768.521 322.242 767.677 322.242 766.825C322.242 765.973 322.069 765.129 321.735 764.345C321.401 763.56 320.912 762.852 320.298 762.261C319.683 761.67 318.955 761.21 318.159 760.907C317.362 760.605 316.512 760.466 315.66 760.5H283.54V773.15Z" fill="white" style="fill: rgb(255, 255, 255); paint-order: normal; text-decoration: rgb(61, 61, 61);"></path>
<path d="M389.1 744H331.67V757.83H389.1C389.412 757.831 389.72 757.771 390.008 757.652C390.297 757.534 390.558 757.359 390.779 757.139C390.999 756.918 391.174 756.657 391.292 756.369C391.411 756.08 391.471 755.772 391.47 755.46V746.37C391.471 746.058 391.411 745.75 391.292 745.462C391.174 745.173 390.999 744.912 390.779 744.691C390.558 744.471 390.297 744.296 390.008 744.178C389.72 744.059 389.412 743.999 389.1 744" class="change-color-in-svg" fill="#4D61FC" style="fill: rgb(173, 174, 185); paint-order: normal; text-decoration: rgb(61, 61, 61);"></path>
<path opacity="0.2" d="M356.48 748.64H376.25C376.516 748.64 376.77 748.745 376.958 748.933C377.145 749.12 377.25 749.375 377.25 749.64V752.64C377.25 752.905 377.145 753.16 376.958 753.347C376.77 753.535 376.516 753.64 376.25 753.64H356.48C356.215 753.64 355.961 753.535 355.773 753.347C355.586 753.16 355.48 752.905 355.48 752.64V749.64C355.48 749.375 355.586 749.12 355.773 748.933C355.961 748.745 356.215 748.64 356.48 748.64Z" fill="black" style="fill: rgb(0, 0, 0); opacity: 0.2; paint-order: normal; text-decoration: rgb(61, 61, 61);"></path>
<path d="M309.44 757.83H340.67C340.982 757.831 341.291 757.771 341.579 757.652C341.867 757.534 342.129 757.359 342.349 757.139C342.57 756.918 342.744 756.657 342.863 756.369C342.981 756.08 343.042 755.772 343.04 755.46V746.37C343.042 746.058 342.981 745.75 342.863 745.462C342.744 745.173 342.57 744.912 342.349 744.691C342.129 744.471 341.867 744.296 341.579 744.178C341.291 744.059 340.982 743.999 340.67 744H309.44V757.83Z" class="change-color-in-svg" fill="#4D61FC" style="fill: rgb(173, 174, 185); paint-order: normal; text-decoration: rgb(61, 61, 61);"></path>
<path opacity="0.2" d="M309.44 757.83H340.67C340.982 757.831 341.291 757.771 341.579 757.652C341.867 757.534 342.129 757.359 342.349 757.139C342.57 756.918 342.744 756.657 342.863 756.369C342.981 756.08 343.042 755.772 343.04 755.46V746.37C343.042 746.058 342.981 745.75 342.863 745.462C342.744 745.173 342.57 744.912 342.349 744.691C342.129 744.471 341.867 744.296 341.579 744.178C341.291 744.059 340.982 743.999 340.67 744H309.44V757.83Z" fill="black" style="fill: rgb(0, 0, 0); opacity: 0.2; paint-order: normal; text-decoration: rgb(61, 61, 61);"></path>
<path d="M309.44 755.76H339.78C340.095 755.757 340.397 755.631 340.62 755.41C340.73 755.299 340.816 755.168 340.874 755.024C340.933 754.88 340.962 754.726 340.96 754.57V747.16C340.962 747.004 340.933 746.85 340.874 746.706C340.816 746.562 340.73 746.431 340.62 746.32C340.397 746.098 340.095 745.973 339.78 745.97H309.44V755.76Z" fill="white" style="fill: rgb(255, 255, 255); paint-order: normal; text-decoration: rgb(61, 61, 61);"></path>
<path d="M1001.68 345.32C1001.68 330.523 996.223 316.245 986.351 305.222C976.48 294.199 962.888 287.205 948.18 285.58V285.17H941.54C925.723 285.374 910.623 291.8 899.51 303.058C888.397 314.315 882.166 329.497 882.166 345.315C882.166 361.133 888.397 376.315 899.51 387.572C910.623 398.83 925.723 405.256 941.54 405.46L948.18 405.06C962.887 403.431 976.475 396.436 986.346 385.413C996.217 374.391 1001.68 360.116 1001.68 345.32V345.32Z" fill="#B0B4B9" style="fill: rgb(176, 180, 185); paint-order: normal; text-decoration: rgb(61, 61, 61);"></path>
<path d="M997.078 352.141C1002.39 319.258 980.044 288.294 947.161 282.98C914.279 277.665 883.315 300.013 878 332.896C872.686 365.778 895.034 396.742 927.917 402.057C960.799 407.371 991.763 385.023 997.078 352.141Z" fill="#84888F" style="fill: rgb(132, 136, 143); paint-order: normal; text-decoration: rgb(61, 61, 61);"></path>
<path d="M936.7 398.82C966.247 398.82 990.2 374.867 990.2 345.32C990.2 315.773 966.247 291.82 936.7 291.82C907.153 291.82 883.2 315.773 883.2 345.32C883.2 374.867 907.153 398.82 936.7 398.82Z" fill="white" style="fill: rgb(255, 255, 255); paint-order: normal; text-decoration: rgb(61, 61, 61);"></path>
<path d="M936.7 398.82C966.247 398.82 990.2 374.867 990.2 345.32C990.2 315.773 966.247 291.82 936.7 291.82C907.153 291.82 883.2 315.773 883.2 345.32C883.2 374.867 907.153 398.82 936.7 398.82Z" fill="#84888F" style="fill: rgb(132, 136, 143); paint-order: normal; text-decoration: rgb(61, 61, 61);"></path>
<path opacity="0.9" d="M936.7 398.82C966.247 398.82 990.2 374.867 990.2 345.32C990.2 315.773 966.247 291.82 936.7 291.82C907.153 291.82 883.2 315.773 883.2 345.32C883.2 374.867 907.153 398.82 936.7 398.82Z" fill="white" style="fill: rgb(255, 255, 255); opacity: 0.9; paint-order: normal; text-decoration: rgb(61, 61, 61);"></path>
<path d="M936.71 291.81C937.685 291.791 938.66 291.835 939.63 291.94C925.966 292.665 913.1 298.603 903.685 308.532C894.269 318.46 889.02 331.622 889.02 345.305C889.02 358.988 894.269 372.15 903.685 382.079C913.1 392.007 925.966 397.945 939.63 398.67C938.71 398.67 937.77 398.8 936.71 398.8C922.521 398.8 908.913 393.163 898.88 383.13C888.847 373.097 883.21 359.489 883.21 345.3C883.21 331.111 888.847 317.503 898.88 307.47C908.913 297.437 922.521 291.8 936.71 291.8V291.81Z" fill="#B0B4B9" style="fill: rgb(176, 180, 185); paint-order: normal; text-decoration: rgb(61, 61, 61);"></path>
<path d="M938.21 349.68L936.7 310.17C936.694 309.453 936.965 308.762 937.457 308.241C937.949 307.72 938.624 307.41 939.34 307.377C940.056 307.343 940.757 307.588 941.296 308.061C941.835 308.533 942.17 309.196 942.23 309.91L943.48 343.91L966.09 343.29C966.83 343.278 967.545 343.561 968.076 344.075C968.608 344.59 968.913 345.295 968.925 346.035C968.937 346.775 968.655 347.489 968.14 348.021C967.625 348.553 966.92 348.858 966.18 348.87L938.21 349.68Z" class="change-color-in-svg" fill="#4D61FC" style="fill: rgb(173, 174, 185); paint-order: normal; text-decoration: rgb(61, 61, 61);"></path>
<path opacity="0.7" fill-rule="evenodd" clip-rule="evenodd" d="M906.25 306L983.88 370.53C983.88 370.53 985.96 366.21 986.54 364.77C987.04 363.54 988.2 359.85 988.2 359.85L941.4 291.91C941.4 291.91 924.28 289.68 906.25 306Z" fill="white" style="clip-rule: evenodd; fill: rgb(255, 255, 255); fill-rule: evenodd; opacity: 0.7; paint-order: normal; text-decoration: rgb(61, 61, 61);"></path>
<path opacity="0.7" fill-rule="evenodd" clip-rule="evenodd" d="M895.28 370.54L950 397.16C946.052 398.441 941.885 398.911 937.75 398.54C925.78 397.73 907.61 391.85 895.28 370.54Z" fill="white" style="clip-rule: evenodd; fill: rgb(255, 255, 255); fill-rule: evenodd; opacity: 0.7; paint-order: normal; text-decoration: rgb(61, 61, 61);"></path>
<path d="M550.38 362.46H450.27V500.97H550.38V362.46Z" fill="white" style="fill: rgb(255, 255, 255); paint-order: normal; text-decoration: rgb(61, 61, 61);"></path>
<path d="M537.02 375.28H463.64V488.15H537.02V375.28Z" fill="#DDDDDD" style="fill: rgb(221, 221, 221); paint-order: normal; text-decoration: rgb(61, 61, 61);"></path>
<path d="M553.38 362.39H550.47V500.9H553.38V362.39Z" fill="#DADDDF" style="fill: rgb(218, 221, 223); paint-order: normal; text-decoration: rgb(61, 61, 61);"></path>
<path d="M522.15 394.84H487.78V468.58H522.15V394.84Z" fill="#B1B5BA" style="fill: rgb(177, 181, 186); paint-order: normal; text-decoration: rgb(61, 61, 61);"></path>
<path d="M477.13 448.5H497.16V428.47H477.13V448.5Z" class="change-color-in-svg" fill="#4D61FC" style="fill: rgb(173, 174, 185); paint-order: normal; text-decoration: rgb(61, 61, 61);"></path>
<path d="M855.65 1046.66L855.5 1053.97C855.396 1056.61 854.301 1059.12 852.433 1060.99C850.565 1062.86 848.061 1063.95 845.42 1064.06H845.27L826.27 1064.35H772.77C771.89 1062.74 769.4 1057.92 772.47 1056.89L808.87 1042.25C815.3 1040.06 817.99 1037.6 821.79 1032.78C822.567 1031.74 823.209 1030.61 823.7 1029.41L850.44 965.1L874.3 981.91L871.5 1008.91" fill="#FC9D9D" style="fill: rgb(252, 157, 157); paint-order: normal; text-decoration: rgb(61, 61, 61);"></path>
<path opacity="0.15" d="M855.94 1046.81L855.79 1054.12C855.712 1056.77 854.625 1059.29 852.752 1061.16C850.878 1063.04 848.359 1064.12 845.71 1064.2H845.56L826.41 1064.5H772.91C772.62 1063.91 772.18 1063.03 771.74 1062.01H774.67C774.67 1062.01 774.67 1053.01 803.9 1052.01C821.77 1051.29 832.37 1046.01 837.9 1042.07C840.473 1040.21 842.411 1037.6 843.45 1034.6C843.98 1033.07 844.51 1031.6 845.16 1030.08L858 1001L870.74 1010L872 1007.76L868 1019L855.94 1046.81Z" fill="black" style="fill: rgb(0, 0, 0); opacity: 0.15; paint-order: normal; text-decoration: rgb(61, 61, 61);"></path>
<path d="M788.15 1063.73C785.081 1060.36 783.005 1056.21 782.15 1051.73C782.107 1051.52 782.141 1051.31 782.246 1051.12C782.351 1050.94 782.52 1050.8 782.72 1050.73L806.28 1042.29C806.573 1042.18 806.886 1042.13 807.199 1042.14C807.512 1042.15 807.819 1042.23 808.101 1042.37C808.382 1042.51 808.632 1042.7 808.835 1042.94C809.038 1043.18 809.19 1043.46 809.28 1043.76C810.54 1047.99 813.71 1057.05 819.93 1063.49L857.73 1063.37C858.99 1063.37 858.04 1064.37 858.04 1065.69C858.035 1066.3 857.79 1066.89 857.358 1067.32C856.926 1067.75 856.341 1067.99 855.73 1068L767.19 1068.12C766.578 1068.11 765.993 1067.87 765.559 1067.44C765.125 1067.01 764.878 1066.42 764.87 1065.81V1063.65L788.15 1063.73Z" fill="#21252B" style="fill: rgb(33, 37, 43); paint-order: normal; text-decoration: rgb(61, 61, 61);"></path>
<path d="M922.36 724.16L912.81 728.07C912.81 728.07 902.13 738.46 905.87 739.37L922.36 724.16Z" fill="#FC9D9D" style="fill: rgb(252, 157, 157); paint-order: normal; text-decoration: rgb(61, 61, 61);"></path>
<path d="M926 806C926 806 902.61 810.32 896.35 830.25C893.88 838.13 891.35 846.01 888.35 853.71L831 1002L871.1 1019.06L917 911L926 806Z" fill="#21252B" style="fill: rgb(33, 37, 43); paint-order: normal; text-decoration: rgb(61, 61, 61);"></path>
<path opacity="0.3" d="M925 807C925 807 903 809.4 900 835L899 899L853 1012L871 1019L917 910L925 807Z" fill="black" style="fill: rgb(0, 0, 0); opacity: 0.3; paint-order: normal; text-decoration: rgb(61, 61, 61);"></path>
<path opacity="0.1" d="M925.69 723.05L912.81 728.05C912.81 728.05 902.13 738.44 905.87 739.35L925.69 723.05Z" fill="black" style="fill: rgb(0, 0, 0); opacity: 0.1; paint-order: normal; text-decoration: rgb(61, 61, 61);"></path>
<path d="M957 736L987.94 731.2L987.88 731.12L1043.6 721.21C1046.43 720.259 1048.96 718.594 1050.96 716.377C1052.96 714.159 1054.35 711.463 1055 708.55L1065.54 667.4L1056.82 644.53L1024.82 693.79L967.12 716.3L967.21 716.4L948.33 721.4" fill="#FC9D9D" style="fill: rgb(252, 157, 157); paint-order: normal; text-decoration: rgb(61, 61, 61);"></path>
<path d="M951.12 721L927.82 722C925.816 722.1 923.899 722.851 922.36 724.14L904.74 738.83C904.387 739.109 904.115 739.476 903.95 739.894C903.785 740.312 903.733 740.766 903.8 741.21C903.98 742.21 904.8 743.07 907.43 742.38C907.689 742.309 907.936 742.198 908.16 742.05L917.96 735.84L927.53 731.37L934.25 731.8C934.25 731.8 936.46 735.12 929.25 737.27C929.25 737.27 922.08 738.44 922.08 743.98L942 740.07L959.67 735.17" fill="#FC9D9D" style="fill: rgb(252, 157, 157); paint-order: normal; text-decoration: rgb(61, 61, 61);"></path>
<path d="M1070 672L1080 609L1043 653" class="change-color-in-svg" fill="#4D61FC" style="fill: rgb(173, 174, 185); paint-order: normal; text-decoration: rgb(61, 61, 61);"></path>
<path opacity="0.15" d="M1031.83 717.2L1046.29 704L1085 622L1077 612L1027 691C1027 691 1027.8 695 1033.67 695.84C1034.32 695.925 1034.93 696.234 1035.38 696.713C1035.84 697.192 1036.11 697.812 1036.16 698.47L1037 711L981 727L956 732L940 738L923.08 743.08L926.54 743.3L941 740.45L956 736L988 731L1039 722.11" fill="black" style="fill: rgb(0, 0, 0); opacity: 0.15; paint-order: normal; text-decoration: rgb(61, 61, 61);"></path>
<path d="M1079.87 605.19C1079.87 605.19 1075 618 1071 633L1126.75 593.29L1097.75 583.19L1081.75 588.84L1079.87 605.19Z" class="change-color-in-svg" fill="#4D61FC" style="fill: rgb(173, 174, 185); paint-order: normal; text-decoration: rgb(61, 61, 61);"></path>
<path d="M958.65 1046.66L958.5 1053.97C958.21 1059.53 951.82 1063.91 946.42 1064.06H946.27L927.27 1064.35H873.77C872.89 1062.74 870.4 1057.92 873.47 1056.89L909.87 1042.25C916.3 1040.06 919.99 1037.6 923.79 1032.78C924.567 1031.74 925.209 1030.61 925.7 1029.41L922.44 965.1L962.3 981.91L959.5 1008.91" fill="#FC9D9D" style="fill: rgb(252, 157, 157); paint-order: normal; text-decoration: rgb(61, 61, 61);"></path>
<path opacity="0.15" d="M958.94 1046.81L958.79 1054.12C958.65 1059.53 952.26 1064.06 946.71 1064.2H946.56L927.41 1064.5H873.91C873.62 1063.91 873.18 1063.03 872.74 1062.01H875.67L904.9 1061.01C934.14 1059.84 943.9 1046.54 943.9 1046.54L950.22 1009.1L958.71 1009.99L959.97 1007.75L958.97 1022.46L958.94 1046.81Z" fill="black" style="fill: rgb(0, 0, 0); opacity: 0.15; paint-order: normal; text-decoration: rgb(61, 61, 61);"></path>
<path d="M889.15 1063.73C886.081 1060.36 884.005 1056.21 883.15 1051.73C883.107 1051.52 883.141 1051.31 883.246 1051.12C883.351 1050.94 883.52 1050.8 883.72 1050.73L907.28 1042.29C907.573 1042.18 907.886 1042.13 908.199 1042.14C908.512 1042.15 908.819 1042.23 909.101 1042.37C909.382 1042.51 909.632 1042.7 909.835 1042.94C910.038 1043.18 910.19 1043.46 910.28 1043.76C911.54 1047.99 914.71 1057.05 920.93 1063.49L958.73 1063.37C959.99 1063.37 959.04 1064.37 959.04 1065.69C959.035 1066.3 958.79 1066.89 958.358 1067.32C957.926 1067.75 957.341 1067.99 956.73 1068L868.19 1068.12C867.578 1068.11 866.993 1067.87 866.559 1067.44C866.125 1067.01 865.878 1066.42 865.87 1065.81V1063.65L889.15 1063.73Z" fill="#21252B" style="fill: rgb(33, 37, 43); paint-order: normal; text-decoration: rgb(61, 61, 61);"></path>
<path d="M963.39 1021.73L919.8 1023.58L906.5 837.14C905.63 827.38 907 807 930.09 804.48C930.427 804.412 930.761 804.325 931.09 804.22L1082.51 771.77L1131.39 769.49L1153.88 783.94C1153.88 783.94 1157.6 820.94 1122.44 836.83C1115.58 839.864 1108.24 841.678 1100.76 842.19L957.89 855.86L963.39 1021.73Z" fill="#21252B" style="fill: rgb(33, 37, 43); paint-order: normal; text-decoration: rgb(61, 61, 61);"></path>
<path opacity="0.3" d="M956.89 855.86L1100.81 842.19C1108.29 841.678 1115.63 839.864 1122.49 836.83C1157.65 820.97 1153.93 783.94 1153.93 783.94L1150.01 777.94L1140 780C1140 780 1132.53 819.4 1098.71 824.78L943.44 841L949.3 1021.16L963.3 1022.16L956.89 855.86Z" fill="black" style="fill: rgb(0, 0, 0); opacity: 0.3; paint-order: normal; text-decoration: rgb(61, 61, 61);"></path>
<path d="M1072.26 776.77C1072.26 776.77 1056.75 723.25 1059 704C1064 661.34 1071 633 1071 633C1077.33 619.968 1085.86 608.127 1096.22 598L1126.75 580C1126.75 580 1153.75 610 1154.5 638.42L1152.89 722.42C1152.5 743 1154 772 1154 792" class="change-color-in-svg" fill="#4D61FC" style="fill: rgb(173, 174, 185); paint-order: normal; text-decoration: rgb(61, 61, 61);"></path>
<path opacity="0.2" d="M1077.13 653.15C1077.13 653.15 1081.79 674.89 1067.57 686.83C1067.57 686.83 1078.13 714.12 1076.97 728.02L1071.18 738.44L1053.25 682.55L1077.13 653.15Z" fill="black" style="fill: rgb(0, 0, 0); opacity: 0.2; paint-order: normal; text-decoration: rgb(61, 61, 61);"></path>
<path d="M1037.36 692.36L1037.21 701.03L1047.2 699.49L1061.04 691.96L1060.17 683.65L1037.36 692.36Z" fill="#FC9D9D" style="fill: rgb(252, 157, 157); paint-order: normal; text-decoration: rgb(61, 61, 61);"></path>
<path opacity="0.15" d="M1037.59 696.06C1037.59 696.06 1047.2 691.8 1046.44 690.27L1037.35 693.13L1037.59 696.06Z" fill="black" style="fill: rgb(0, 0, 0); opacity: 0.15; paint-order: normal; text-decoration: rgb(61, 61, 61);"></path>
<path opacity="0.2" d="M1082.47 590.84L1081.95 590.62L1081.73 590.84L1079.87 605.19L1081.87 595.34C1081.87 595.292 1081.89 595.246 1081.92 595.213C1081.96 595.179 1082 595.16 1082.05 595.16C1082.1 595.16 1082.14 595.179 1082.18 595.213C1082.21 595.246 1082.23 595.292 1082.23 595.34L1083.33 607.5L1128 582L1124 576L1082.47 590.84Z" fill="black" style="fill: rgb(0, 0, 0); opacity: 0.2; paint-order: normal; text-decoration: rgb(61, 61, 61);"></path>
<path d="M1108.37 515.34L1113.64 549.89L1124 576L1085.51 602.86L1080.31 577.56L1070.31 580.72C1069.97 580.85 1069.63 580.96 1069.31 581.06C1062.78 582.93 1058.8 583.11 1055.17 572.86L1051.57 560.28L1047.18 559.21C1047.09 559.195 1047.01 559.168 1046.93 559.13C1046.34 558.905 1045.85 558.455 1045.59 557.876C1045.32 557.297 1045.3 556.637 1045.52 556.04L1049.81 544.72L1049.73 544.1L1049.04 542.68C1046.18 536.689 1045.03 530.023 1045.72 523.42L1046.41 516.95L1108.37 515.34Z" fill="#FC9D9D" style="fill: rgb(252, 157, 157); paint-order: normal; text-decoration: rgb(61, 61, 61);"></path>
<path d="M1048.67 525L1064.33 522.69C1072.99 525.12 1064.74 536.35 1082.81 534.01C1083.81 535.79 1083.87 544.11 1087.28 543.47C1090.01 543.18 1089.05 539.77 1088.84 538L1099.2 537.79C1101.77 549.79 1107.04 551.41 1114.27 551.79C1118.27 533.16 1126.74 492.28 1097.27 496.04C1094.65 497.12 1092.69 494.49 1091.59 493.75C1086.86 488.1 1073.68 487.88 1066.75 493.53C1064.61 496.198 1061.85 498.31 1058.72 499.687C1055.58 501.064 1052.17 501.665 1048.75 501.44C1031.62 501 1031.05 525.94 1048.67 525Z" fill="black" style="fill: rgb(0, 0, 0); paint-order: normal; text-decoration: rgb(61, 61, 61);"></path>
<path d="M1090.89 554.92L1088.82 538.63C1088.61 536.897 1089.09 535.152 1090.16 533.772C1091.23 532.392 1092.8 531.49 1094.53 531.26C1096.26 531.047 1098.01 531.528 1099.39 532.598C1100.77 533.667 1101.67 535.239 1101.9 536.97L1102.31 540.18C1102.53 541.898 1102.41 543.642 1101.95 545.312C1101.5 546.983 1100.71 548.547 1099.65 549.916C1098.59 551.285 1097.27 552.432 1095.77 553.29C1094.27 554.149 1092.61 554.703 1090.89 554.92V554.92Z" fill="#FC9D9D" style="fill: rgb(252, 157, 157); paint-order: normal; text-decoration: rgb(61, 61, 61);"></path>
<g opacity="0.3" style="opacity: 0.3; paint-order: normal; text-decoration: rgb(61, 61, 61);">
<path opacity="0.3" d="M1091.74 541.77L1091.39 539.05C1091.26 537.908 1091.58 536.76 1092.28 535.852C1092.99 534.944 1094.02 534.347 1095.16 534.19C1095.79 534.091 1096.43 534.135 1097.04 534.319C1097.65 534.502 1098.21 534.821 1098.68 535.25L1098.78 535.34C1098.9 535.536 1098.94 535.766 1098.91 535.992C1098.87 536.217 1098.77 536.424 1098.6 536.579C1098.43 536.734 1098.22 536.828 1097.99 536.844C1097.76 536.861 1097.54 536.799 1097.35 536.67C1097.09 536.409 1096.78 536.215 1096.43 536.105C1096.08 535.996 1095.71 535.973 1095.35 536.04C1094.69 536.122 1094.1 536.462 1093.69 536.983C1093.29 537.504 1093.11 538.165 1093.19 538.82L1093.54 541.54C1093.55 541.798 1093.48 542.052 1093.32 542.256C1093.16 542.46 1092.93 542.6 1092.68 542.65C1092.56 542.675 1092.43 542.67 1092.31 542.636C1092.19 542.602 1092.08 542.539 1091.98 542.453C1091.89 542.366 1091.82 542.26 1091.78 542.141C1091.74 542.022 1091.72 541.895 1091.74 541.77Z" fill="#21252B" style="fill: rgb(33, 37, 43); opacity: 0.3; paint-order: normal; text-decoration: rgb(61, 61, 61);"></path>
</g>
<path opacity="0.15" d="M1081.9 586.4L1089.48 576.4C1089.62 576.175 1089.7 575.916 1089.72 575.65C1089.73 575.384 1089.68 575.119 1089.56 574.88C1089.47 574.692 1089.34 574.525 1089.19 574.386C1089.03 574.248 1088.85 574.143 1088.65 574.076C1088.45 574.009 1088.25 573.982 1088.04 573.996C1087.83 574.011 1087.63 574.066 1087.44 574.16L1080.33 577.4L1081.9 586.4Z" fill="black" style="fill: rgb(0, 0, 0); opacity: 0.15; paint-order: normal; text-decoration: rgb(61, 61, 61);"></path>
<path d="M1080.56 577.74L1087.44 574.2C1099.89 569.39 1088.82 538.63 1088.82 538.63L1083.82 538.4C1087.65 551.8 1085.01 559.1 1085.01 559.1C1082.01 568.54 1075.87 568.85 1071.37 567.54C1068.68 566.76 1065.9 564.05 1063.98 562C1058.22 555.84 1051.88 561.5 1051.88 561.5L1055.13 572.86C1058.76 583.11 1062.74 582.93 1069.27 581.06C1069.61 580.96 1069.95 580.85 1070.27 580.72" fill="black" style="fill: rgb(0, 0, 0); paint-order: normal; text-decoration: rgb(61, 61, 61);"></path>
<path opacity="0.15" d="M1108.43 550.94H1098.9C1100.02 549.44 1100.95 547.804 1101.66 546.07C1102.4 547.299 1103.38 548.364 1104.54 549.201C1105.71 550.038 1107.03 550.63 1108.43 550.94V550.94Z" fill="black" style="fill: rgb(0, 0, 0); opacity: 0.15; paint-order: normal; text-decoration: rgb(61, 61, 61);"></path>
<path d="M1055.71 547.185C1057.07 547.013 1058.02 545.656 1057.83 544.155C1057.64 542.653 1056.38 541.576 1055.02 541.749C1053.66 541.922 1052.72 543.278 1052.91 544.78C1053.1 546.281 1054.36 547.358 1055.71 547.185Z" fill="black" style="fill: rgb(0, 0, 0); paint-order: normal; text-decoration: rgb(61, 61, 61);"></path>
<path d="M1053.85 543.94C1054.05 543.94 1054.22 543.774 1054.22 543.57C1054.22 543.366 1054.05 543.2 1053.85 543.2C1053.65 543.2 1053.48 543.366 1053.48 543.57C1053.48 543.774 1053.65 543.94 1053.85 543.94Z" fill="white" style="fill: rgb(255, 255, 255); paint-order: normal; text-decoration: rgb(61, 61, 61);"></path>
<path d="M1052.78 565.17C1054.88 564.734 1056.9 563.982 1058.78 562.94C1058.88 562.886 1058.99 562.865 1059.1 562.881C1059.21 562.897 1059.31 562.948 1059.39 563.028C1059.47 563.107 1059.52 563.21 1059.53 563.321C1059.55 563.431 1059.53 563.543 1059.47 563.64C1058.13 565.872 1056.2 567.684 1053.88 568.87L1052.78 565.17Z" fill="white" style="fill: rgb(255, 255, 255); paint-order: normal; text-decoration: rgb(61, 61, 61);"></path>
<path d="M1048.61 537.11C1048.96 537.58 1051.39 536.82 1054.36 536.49C1057.33 536.16 1059.82 536.29 1060.11 535.74C1060.24 535.48 1059.73 535.08 1058.67 534.74C1057.22 534.365 1055.72 534.274 1054.24 534.47C1052.73 534.635 1051.26 535.079 1049.91 535.78C1048.9 536.36 1048.45 536.88 1048.61 537.11Z" fill="black" style="fill: rgb(0, 0, 0); paint-order: normal; text-decoration: rgb(61, 61, 61);"></path>
<path d="M1126.75 580L1124.05 570.56L1079.87 588.92V605.19L1081.59 593.31C1081.76 592.45 1082.53 592.19 1082.59 593.06C1082.59 594.69 1083.18 597.73 1084.87 604.73L1126.75 580Z" class="change-color-in-svg" fill="#4D61FC" style="fill: rgb(173, 174, 185); paint-order: normal; text-decoration: rgb(61, 61, 61);"></path>
<path d="M1021.69 662.35L1022.52 665.85C1022.79 666.977 1023.26 668.049 1023.89 669.02C1024.28 669.59 1024.52 670.251 1024.59 670.941C1024.66 671.63 1024.55 672.325 1024.27 672.96L1021.69 676.78C1021.69 676.78 1019.53 680.27 1024.61 681.02C1025.34 683.939 1026.24 686.817 1027.28 689.64C1027.73 690.784 1028.48 691.779 1029.47 692.511C1030.45 693.243 1031.63 693.683 1032.85 693.78C1035.93 694.03 1040.85 691.78 1046.44 690.27L1060.27 686.42L1054.8 644.53L1021.4 651.14L1021.69 662.35Z" fill="#FC9D9D" style="fill: rgb(252, 157, 157); paint-order: normal; text-decoration: rgb(61, 61, 61);"></path>
<path d="M994.17 874.73C990.99 874.46 986.45 872.16 984.17 871.66C982.033 871.125 979.815 870.993 977.63 871.27C961.11 870.89 965.34 865.89 965.34 865.89L985.34 858.98C982.27 795.98 989.18 790.57 989.18 790.57L1033.54 767.27L1072.43 765.76C1072.43 765.76 1080.62 788.24 1052.57 795.57C1052.57 795.57 1039.91 802.87 1013.78 809.02C1013.78 809.02 1011.98 833.5 1003.02 855.9C1002.14 858.1 1001.57 859.9 1002.22 861.73C1002.59 862.653 1002.82 863.622 1002.92 864.61C1003.14 868.18 1004.26 875.6 994.17 874.73Z" fill="#FC9D9D" style="fill: rgb(252, 157, 157); paint-order: normal; text-decoration: rgb(61, 61, 61);"></path>
<path d="M1072.42 765.76L1029.69 767.27L991.48 786C989.464 787.327 987.978 789.32 987.28 791.63C986 795.96 984.45 808.54 984 825.94L1011.19 830.36C1013.39 819.42 1014.54 809.81 1014.54 809.81C1040.29 801.74 1053.33 796.37 1053.33 796.37C1081.38 789 1072.42 765.76 1072.42 765.76Z" class="change-color-in-svg" fill="#4D61FC" style="fill: rgb(173, 174, 185); paint-order: normal; text-decoration: rgb(61, 61, 61);"></path>
<path opacity="0.2" d="M1072.42 765.76L1064.55 766.01C1065.3 768.51 1069.91 779.8 1048.12 787.43L1009.54 805L1005.87 829.49L1011.19 830.35C1013.39 819.41 1014.54 809.8 1014.54 809.8C1040.29 802.5 1053.33 796.36 1053.33 796.36C1081.38 789 1072.42 765.76 1072.42 765.76Z" fill="black" style="fill: rgb(0, 0, 0); opacity: 0.2; paint-order: normal; text-decoration: rgb(61, 61, 61);"></path>
<path opacity="0.15" d="M1010.59 830.08L1005.87 829.47L998 857.82C997.548 859.456 997.548 861.184 998 862.82C998 862.82 1001.76 877.28 985.15 871.91C987.58 872.7 991.39 874.47 994.15 874.71C1004.24 875.58 1003.15 868.16 1002.89 864.59C1002.79 863.602 1002.56 862.633 1002.19 861.71C1001.54 859.9 1002.11 858.08 1002.99 855.88C1006.26 847.514 1008.8 838.882 1010.59 830.08V830.08Z" fill="black" style="fill: rgb(0, 0, 0); opacity: 0.15; paint-order: normal; text-decoration: rgb(61, 61, 61);"></path>
<path opacity="0.2" d="M1111.71 615.15C1111.71 615.15 1094.09 618.5 1090.01 640.56L1080 689L1093 691L1111.71 615.15Z" fill="black" style="fill: rgb(0, 0, 0); opacity: 0.2; paint-order: normal; text-decoration: rgb(61, 61, 61);"></path>
<path d="M1057.39 677.3C1060.27 690.07 1062.74 685.12 1062.74 685.12C1064.47 683.12 1066.25 681.2 1067.84 679.59C1072.89 674.506 1076.15 667.912 1077.11 660.81C1079.86 638.95 1059.86 633.36 1059.86 633.36C1034.32 625.94 1020.48 647.56 1020.48 647.56C1011.7 655.94 1022.68 663.89 1022.68 663.89C1021.86 662.066 1021.46 660.077 1021.54 658.077C1021.61 656.077 1022.14 654.121 1023.09 652.36C1023.09 652.36 1023.09 661.01 1032.56 661.83C1030.92 661.256 1029.45 660.276 1028.29 658.98C1027.12 657.684 1026.31 656.115 1025.92 654.42C1025.92 654.42 1028.14 661.01 1042.56 662.25C1042.56 662.25 1036.27 658.13 1034.21 654.01C1035.87 656.107 1037.95 657.845 1040.3 659.119C1042.66 660.392 1045.24 661.175 1047.91 661.42C1044.32 658.738 1041.66 654.99 1040.33 650.71C1040.33 650.71 1038.85 655.19 1055.33 665.9L1057.39 677.3Z" fill="black" style="fill: rgb(0, 0, 0); paint-order: normal; text-decoration: rgb(61, 61, 61);"></path>
<path opacity="0.2" d="M1124 614.34C1124 614.34 1152.76 617.65 1139.57 665.89L1129 700L1117 697L1124 614.34Z" fill="black" style="fill: rgb(0, 0, 0); opacity: 0.2; paint-order: normal; text-decoration: rgb(61, 61, 61);"></path>
<path opacity="0.15" d="M1053.6 673.85L1056.12 673.55L1056.84 676.44L1053.6 673.85Z" fill="black" style="fill: rgb(0, 0, 0); opacity: 0.15; paint-order: normal; text-decoration: rgb(61, 61, 61);"></path>
<path d="M1053 673.93L1052 667.83C1051.75 666.446 1052.03 665.018 1052.78 663.83C1055.47 659.77 1062.07 661.53 1060.89 667.65C1059.5 674.85 1053.34 673.77 1053.34 673.77L1053 673.93Z" fill="#FC9D9D" style="fill: rgb(252, 157, 157); paint-order: normal; text-decoration: rgb(61, 61, 61);"></path>
<path opacity="0.3" d="M1054.37 667.46C1054.34 667.616 1054.37 667.778 1054.46 667.912C1054.54 668.046 1054.68 668.142 1054.83 668.18C1054.97 668.193 1055.12 668.152 1055.23 668.065C1055.35 667.979 1055.43 667.852 1055.46 667.71C1055.55 667.057 1055.74 666.421 1056.01 665.82C1056.23 665.391 1056.58 665.042 1057.01 664.82C1057.4 664.69 1057.75 664.82 1058.27 665.19C1058.32 665.232 1058.38 665.256 1058.45 665.256C1058.52 665.256 1058.58 665.232 1058.63 665.19C1058.73 665.19 1058.83 665.12 1058.95 664.95C1059.02 664.824 1059.05 664.675 1059.02 664.532C1058.98 664.389 1058.9 664.263 1058.78 664.18C1058.49 663.954 1058.15 663.795 1057.79 663.712C1057.43 663.629 1057.05 663.625 1056.69 663.7C1056.33 663.832 1056 664.038 1055.72 664.305C1055.44 664.571 1055.22 664.893 1055.07 665.25C1054.7 665.936 1054.46 666.686 1054.37 667.46Z" fill="black" style="fill: rgb(0, 0, 0); opacity: 0.3; paint-order: normal; text-decoration: rgb(61, 61, 61);"></path>
<path d="M1026.2 670.46C1026.03 670.048 1026.03 669.588 1026.2 669.177C1026.37 668.765 1026.69 668.436 1027.1 668.26C1027.31 668.206 1027.53 668.194 1027.74 668.225C1027.96 668.255 1028.16 668.328 1028.35 668.439C1028.53 668.549 1028.7 668.696 1028.83 668.869C1028.95 669.043 1029.05 669.24 1029.1 669.45C1029.26 669.862 1029.26 670.321 1029.09 670.73C1028.92 671.139 1028.6 671.465 1028.19 671.64C1027.98 671.7 1027.76 671.716 1027.55 671.689C1027.33 671.661 1027.13 671.59 1026.94 671.479C1026.75 671.369 1026.59 671.221 1026.47 671.046C1026.34 670.871 1026.25 670.671 1026.2 670.46Z" fill="black" style="fill: rgb(0, 0, 0); paint-order: normal; text-decoration: rgb(61, 61, 61);"></path>
<path d="M1026.4 669.85C1026.4 669.762 1026.42 669.676 1026.48 669.608C1026.54 669.54 1026.61 669.495 1026.7 669.48C1026.74 669.476 1026.79 669.481 1026.83 669.494C1026.87 669.508 1026.91 669.53 1026.95 669.558C1026.98 669.587 1027.01 669.622 1027.03 669.662C1027.05 669.702 1027.07 669.745 1027.07 669.79C1027.07 669.835 1027.07 669.88 1027.06 669.922C1027.04 669.965 1027.02 670.005 1026.99 670.039C1026.96 670.074 1026.93 670.102 1026.89 670.123C1026.85 670.143 1026.8 670.156 1026.76 670.16C1026.67 670.161 1026.59 670.13 1026.52 670.073C1026.46 670.016 1026.41 669.937 1026.4 669.85V669.85Z" fill="white" style="fill: rgb(255, 255, 255); paint-order: normal; text-decoration: rgb(61, 61, 61);"></path>
<path d="M1024.24 665.36C1024.42 665.57 1025.54 665.16 1026.92 664.93C1028.3 664.7 1029.46 664.7 1029.59 664.44C1029.72 664.18 1029.39 664.14 1028.89 664.02C1028.2 663.882 1027.5 663.882 1026.81 664.02C1026.11 664.131 1025.43 664.372 1024.81 664.73C1024.36 665 1024.17 665.26 1024.24 665.36Z" fill="black" style="fill: rgb(0, 0, 0); paint-order: normal; text-decoration: rgb(61, 61, 61);"></path>
<path d="M1061.42 688.34C1061.42 688.34 1049.51 697.18 1037.21 699.49L1036.65 699.86C1031.39 703.49 1028.76 707.94 1025.94 715.05C1022.31 724.19 1017 757.57 1018.75 766.36C1020.29 774.04 1073.31 767.13 1073.31 767.13C1073.31 767.13 1078 701.8 1061.42 688.34Z" fill="#21252B" style="fill: rgb(33, 37, 43); paint-order: normal; text-decoration: rgb(61, 61, 61);"></path>
<path opacity="0.3" d="M1073.32 767.13L1074.12 754.44L1063.35 758.67L1060.27 768.81L1073.32 767.13Z" fill="black" style="fill: rgb(0, 0, 0); opacity: 0.3; paint-order: normal; text-decoration: rgb(61, 61, 61);"></path>
<path opacity="0.3" d="M1066.8 706.79H1067.92L1072.34 721.07L1073.5 731.49L1066.8 706.79Z" fill="black" style="fill: rgb(0, 0, 0); opacity: 0.3; paint-order: normal; text-decoration: rgb(61, 61, 61);"></path>
<path opacity="0.3" d="M1043.86 714.73C1043.68 714.731 1043.5 714.775 1043.34 714.856C1043.18 714.938 1043.05 715.056 1042.94 715.201C1042.83 715.346 1042.76 715.513 1042.73 715.69C1042.7 715.867 1042.72 716.049 1042.77 716.22L1052.13 749.37L1059.13 745.52L1043.86 714.73Z" fill="black" style="fill: rgb(0, 0, 0); opacity: 0.3; paint-order: normal; text-decoration: rgb(61, 61, 61);"></path>
<path d="M1103 755.84C1091.23 760.04 1059.74 770.84 1017.58 781.99L1000 773L1076.49 733.42L1087 681L1127 687L1109.45 748.89C1109 750.477 1108.19 751.936 1107.06 753.145C1105.94 754.353 1104.55 755.277 1103 755.84V755.84Z" fill="#FC9D9D" style="fill: rgb(252, 157, 157); paint-order: normal; text-decoration: rgb(61, 61, 61);"></path>
<path opacity="0.15" d="M1046.83 764.55C1046.83 764.55 1033.88 767.68 1035.94 769.34L1045.33 767.84L1046.83 764.55Z" fill="black" style="fill: rgb(0, 0, 0); opacity: 0.15; paint-order: normal; text-decoration: rgb(61, 61, 61);"></path>
<path d="M1025.52 779L1022.95 780.89C1020.85 782.521 1018.43 783.693 1015.84 784.328C1013.26 784.964 1010.57 785.05 1007.95 784.58H1007.83L1007.65 784.64C1006.55 784.43 1005.36 783.9 1004.5 784.53L995.5 791.53C995.277 791.713 995.006 791.829 994.719 791.864C994.433 791.899 994.142 791.853 993.88 791.73C993.64 791.626 993.426 791.47 993.254 791.273C993.082 791.076 992.955 790.843 992.885 790.591C992.814 790.339 992.8 790.075 992.844 789.817C992.888 789.559 992.99 789.314 993.14 789.1L999.14 781.36L990.14 792.65C989.937 792.906 989.674 793.108 989.374 793.239C989.074 793.37 988.747 793.425 988.42 793.4C988.107 793.369 987.806 793.26 987.545 793.083C987.284 792.905 987.072 792.665 986.929 792.384C986.786 792.103 986.715 791.791 986.724 791.475C986.733 791.16 986.821 790.852 986.98 790.58L992.771 780.43L985.14 793.67C984.949 794 984.662 794.265 984.318 794.431C983.974 794.597 983.588 794.656 983.211 794.6C982.885 794.573 982.57 794.469 982.292 794.296C982.015 794.123 981.783 793.887 981.614 793.606C981.446 793.326 981.348 793.009 981.326 792.683C981.304 792.357 981.361 792.03 981.49 791.73L986.77 780.18L977.17 792.43C977.013 792.648 976.814 792.832 976.584 792.971C976.354 793.111 976.099 793.202 975.833 793.24C975.567 793.279 975.296 793.263 975.036 793.194C974.776 793.125 974.533 793.005 974.32 792.84C973.74 792.62 973.32 791.3 974.01 790.35L983.61 775.35C984.551 773.745 986.05 772.542 987.82 771.97L1012.61 767.77L1025.52 779Z" fill="#FC9D9D" style="fill: rgb(252, 157, 157); paint-order: normal; text-decoration: rgb(61, 61, 61);"></path>
<path opacity="0.15" d="M993.48 789.7C993.6 789.7 993.6 789.7 993.69 789.51L999.18 782.42C999.26 782.26 999.32 781.99 999.18 781.9C999.04 781.81 998.76 781.77 998.67 781.9L993.16 789C993.07 789.15 993.02 789.43 993.16 789.51L993.48 789.7Z" fill="black" style="fill: rgb(0, 0, 0); opacity: 0.15; paint-order: normal; text-decoration: rgb(61, 61, 61);"></path>
<path opacity="0.15" d="M987.55 791.1C987.67 791.1 987.79 791.04 987.76 790.92L993.21 781.38C993.25 781.298 993.258 781.205 993.232 781.117C993.206 781.03 993.148 780.956 993.07 780.91C992.99 780.869 992.897 780.859 992.81 780.883C992.722 780.907 992.648 780.963 992.6 781.04L987.15 790.57C987.11 790.652 987.102 790.746 987.126 790.834C987.149 790.922 987.204 790.999 987.28 791.05C987.31 791.17 987.43 791.14 987.55 791.1Z" fill="black" style="fill: rgb(0, 0, 0); opacity: 0.15; paint-order: normal; text-decoration: rgb(61, 61, 61);"></path>
<path opacity="0.15" d="M1002.21 784C1000.27 785.83 996.86 788.85 995.78 790.06C994.17 791.67 993.17 790.41 993.17 790.41C993.199 790.733 993.313 791.042 993.501 791.305C993.689 791.569 993.944 791.778 994.24 791.91C994.507 792.001 994.791 792.032 995.071 791.999C995.352 791.966 995.621 791.871 995.86 791.72L1004.86 784.72C1005.72 784.1 1006.86 784.62 1008 784.83L1005.63 783.34C1005.05 783.143 1004.43 783.1 1003.83 783.216C1003.23 783.332 1002.67 783.602 1002.21 784Z" fill="black" style="fill: rgb(0, 0, 0); opacity: 0.15; paint-order: normal; text-decoration: rgb(61, 61, 61);"></path>
<path opacity="0.15" d="M1123.78 698.34L1112.87 695.8L1101 744.13C1100.71 745.327 1100.13 746.436 1099.32 747.364C1098.51 748.292 1097.49 749.011 1096.34 749.46L1024 778C1024 778 1010.78 783.33 1008 785C1009.8 784.52 1013.74 787.07 1023 781L1070.55 766.44L1100.29 756.76L1102.93 755.83C1104.49 755.269 1105.9 754.34 1107.03 753.122C1108.16 751.904 1108.99 750.432 1109.43 748.83L1123.78 698.34Z" fill="black" style="fill: rgb(0, 0, 0); opacity: 0.15; paint-order: normal; text-decoration: rgb(61, 61, 61);"></path>
<path d="M1126 699L1136.44 659.4C1140.86 643.93 1139.13 632.67 1137 626C1134.23 617.33 1124.45 612.2 1115.53 614C1109.11 615.36 1103.39 618.984 1099.42 624.21C1096.38 628.474 1094.39 633.393 1093.6 638.57L1083 689L1126 699Z" class="change-color-in-svg" fill="#4D61FC" style="fill: rgb(173, 174, 185); paint-order: normal; text-decoration: rgb(61, 61, 61);"></path>
<path d="M1043.86 714.73L1055.16 741.16L1046.05 766.74L1058.35 774.43L1068.83 757.48C1071.57 752.403 1073.74 747.037 1075.29 741.48L1075.48 740.8C1075.84 739.541 1075.78 738.202 1075.31 736.98L1066.8 706.8L1043.86 714.73Z" fill="#21252B" style="fill: rgb(33, 37, 43); paint-order: normal; text-decoration: rgb(61, 61, 61);"></path>
<path d="M1042.4 767L1035.93 768.61C1035.93 768.61 1035.28 771.52 1039.93 771.04L1043.8 771.29C1044.88 769.765 1045.7 768.077 1046.24 766.29C1046.26 766.235 1046.26 766.177 1046.24 766.122C1046.22 766.067 1046.2 766.017 1046.15 765.978C1046.11 765.938 1046.06 765.91 1046.01 765.896C1045.95 765.882 1045.89 765.884 1045.84 765.9L1042.4 767Z" fill="#FC9D9D" style="fill: rgb(252, 157, 157); paint-order: normal; text-decoration: rgb(61, 61, 61);"></path>
<path d="M1045 768.63L1043.17 773.07L1041.69 777.21C1041.57 777.524 1041.54 777.863 1041.59 778.195C1041.64 778.526 1041.78 778.838 1041.99 779.1C1042.39 779.56 1042.99 779.76 1043.99 778.7L1047.17 773.85L1043.85 781.03C1043.85 781.03 1043.3 782.83 1044.85 782.91C1045.18 782.915 1045.51 782.842 1045.81 782.696C1046.12 782.55 1046.38 782.336 1046.58 782.07L1046.81 781.79C1046.81 781.79 1047.33 784.79 1049.61 783.1L1051.74 780.81L1050.74 782.74C1050.74 782.74 1049.97 785.24 1052.63 784L1056.32 780.27C1056.32 780.27 1057.91 777.46 1058.87 775.35C1059.12 774.816 1059.22 774.228 1059.18 773.641C1059.13 773.055 1058.93 772.49 1058.61 772C1057.31 769.945 1055.47 768.289 1053.29 767.217C1051.11 766.146 1048.68 765.7 1046.26 765.93L1045 768.63Z" fill="#FC9D9D" style="fill: rgb(252, 157, 157); paint-order: normal; text-decoration: rgb(61, 61, 61);"></path>
<path opacity="0.15" d="M1035.94 769.34C1036.12 770.16 1036.94 771.34 1039.94 770.99L1043.81 771.24V771.18L1044.52 769.42C1036.69 771.25 1035.94 769.34 1035.94 769.34Z" fill="black" style="fill: rgb(0, 0, 0); opacity: 0.15; paint-order: normal; text-decoration: rgb(61, 61, 61);"></path>
<path opacity="0.15" d="M1047.43 773.48L1048.64 771.49" stroke="black" stroke-width="0.44" stroke-miterlimit="10" style="opacity: 0.15; paint-order: normal; stroke: rgb(0, 0, 0); stroke-miterlimit: 10; stroke-width: 0.44px; text-decoration: rgb(61, 61, 61);"></path>
<path opacity="0.15" d="M1047.25 781.09L1049.88 777.47L1052.51 773.35" stroke="black" stroke-width="0.44" stroke-miterlimit="10" style="opacity: 0.15; paint-order: normal; stroke: rgb(0, 0, 0); stroke-miterlimit: 10; stroke-width: 0.44px; text-decoration: rgb(61, 61, 61);"></path>
<path opacity="0.15" d="M1051.45 780.96L1053.21 778.71L1054.2 776.78" stroke="black" stroke-width="0.44" stroke-miterlimit="10" style="opacity: 0.15; paint-order: normal; stroke: rgb(0, 0, 0); stroke-miterlimit: 10; stroke-width: 0.44px; text-decoration: rgb(61, 61, 61);"></path>
<path opacity="0.3" d="M1049.71 742.78L1019 761.96V763.28L1050.78 746.21L1049.71 742.78Z" fill="black" style="fill: rgb(0, 0, 0); opacity: 0.3; paint-order: normal; text-decoration: rgb(61, 61, 61);"></path>
<path d="M1028.32 726.86C1028.96 726.86 1029.48 726.341 1029.48 725.7C1029.48 725.059 1028.96 724.54 1028.32 724.54C1027.68 724.54 1027.16 725.059 1027.16 725.7C1027.16 726.341 1027.68 726.86 1028.32 726.86Z" fill="white" style="fill: rgb(255, 255, 255); paint-order: normal; text-decoration: rgb(61, 61, 61);"></path>
<path d="M1039.9 718.75C1040.54 718.75 1041.06 718.231 1041.06 717.59C1041.06 716.949 1040.54 716.43 1039.9 716.43C1039.26 716.43 1038.74 716.949 1038.74 717.59C1038.74 718.231 1039.26 718.75 1039.9 718.75Z" fill="white" style="fill: rgb(255, 255, 255); paint-order: normal; text-decoration: rgb(61, 61, 61);"></path>
<path d="M1066.55 719.91C1067.19 719.91 1067.71 719.391 1067.71 718.75C1067.71 718.109 1067.19 717.59 1066.55 717.59C1065.91 717.59 1065.39 718.109 1065.39 718.75C1065.39 719.391 1065.91 719.91 1066.55 719.91Z" fill="white" style="fill: rgb(255, 255, 255); paint-order: normal; text-decoration: rgb(61, 61, 61);"></path>
<path d="M1060.75 737.29C1061.39 737.29 1061.91 736.771 1061.91 736.13C1061.91 735.489 1061.39 734.97 1060.75 734.97C1060.11 734.97 1059.59 735.489 1059.59 736.13C1059.59 736.771 1060.11 737.29 1060.75 737.29Z" fill="white" style="fill: rgb(255, 255, 255); paint-order: normal; text-decoration: rgb(61, 61, 61);"></path>
<path d="M1066.55 750.03C1067.19 750.03 1067.71 749.511 1067.71 748.87C1067.71 748.229 1067.19 747.71 1066.55 747.71C1065.91 747.71 1065.39 748.229 1065.39 748.87C1065.39 749.511 1065.91 750.03 1066.55 750.03Z" fill="white" style="fill: rgb(255, 255, 255); paint-order: normal; text-decoration: rgb(61, 61, 61);"></path>
<path d="M1054.96 756.98C1055.6 756.98 1056.12 756.461 1056.12 755.82C1056.12 755.179 1055.6 754.66 1054.96 754.66C1054.32 754.66 1053.8 755.179 1053.8 755.82C1053.8 756.461 1054.32 756.98 1054.96 756.98Z" fill="white" style="fill: rgb(255, 255, 255); paint-order: normal; text-decoration: rgb(61, 61, 61);"></path>
<path d="M1054.96 709.49C1055.6 709.49 1056.12 708.971 1056.12 708.33C1056.12 707.689 1055.6 707.17 1054.96 707.17C1054.32 707.17 1053.8 707.689 1053.8 708.33C1053.8 708.971 1054.32 709.49 1054.96 709.49Z" fill="white" style="fill: rgb(255, 255, 255); paint-order: normal; text-decoration: rgb(61, 61, 61);"></path>
<path d="M1035.27 706.01C1035.91 706.01 1036.43 705.491 1036.43 704.85C1036.43 704.209 1035.91 703.69 1035.27 703.69C1034.63 703.69 1034.11 704.209 1034.11 704.85C1034.11 705.491 1034.63 706.01 1035.27 706.01Z" fill="white" style="fill: rgb(255, 255, 255); paint-order: normal; text-decoration: rgb(61, 61, 61);"></path>
<path d="M1039.9 738.45C1040.54 738.45 1041.06 737.931 1041.06 737.29C1041.06 736.649 1040.54 736.13 1039.9 736.13C1039.26 736.13 1038.74 736.649 1038.74 737.29C1038.74 737.931 1039.26 738.45 1039.9 738.45Z" fill="white" style="fill: rgb(255, 255, 255); paint-order: normal; text-decoration: rgb(61, 61, 61);"></path>
<path d="M1050.33 745.4C1050.97 745.4 1051.49 744.881 1051.49 744.24C1051.49 743.599 1050.97 743.08 1050.33 743.08C1049.69 743.08 1049.17 743.599 1049.17 744.24C1049.17 744.881 1049.69 745.4 1050.33 745.4Z" fill="white" style="fill: rgb(255, 255, 255); paint-order: normal; text-decoration: rgb(61, 61, 61);"></path>
<path d="M1034.11 751.19C1034.75 751.19 1035.27 750.671 1035.27 750.03C1035.27 749.389 1034.75 748.87 1034.11 748.87C1033.47 748.87 1032.95 749.389 1032.95 750.03C1032.95 750.671 1033.47 751.19 1034.11 751.19Z" fill="white" style="fill: rgb(255, 255, 255); paint-order: normal; text-decoration: rgb(61, 61, 61);"></path>
<path d="M1023.69 743.08C1024.33 743.08 1024.85 742.561 1024.85 741.92C1024.85 741.279 1024.33 740.76 1023.69 740.76C1023.05 740.76 1022.53 741.279 1022.53 741.92C1022.53 742.561 1023.05 743.08 1023.69 743.08Z" fill="white" style="fill: rgb(255, 255, 255); paint-order: normal; text-decoration: rgb(61, 61, 61);"></path>
<path d="M1021.53 759.93C1022.17 759.93 1022.69 759.411 1022.69 758.77C1022.69 758.129 1022.17 757.61 1021.53 757.61C1020.89 757.61 1020.37 758.129 1020.37 758.77C1020.37 759.411 1020.89 759.93 1021.53 759.93Z" fill="white" style="fill: rgb(255, 255, 255); paint-order: normal; text-decoration: rgb(61, 61, 61);"></path>
<path opacity="0.15" d="M1025.88 685.89C1027.55 685.757 1029.12 685.022 1030.29 683.82" stroke="black" stroke-width="1.16" stroke-miterlimit="10" stroke-linecap="round" style="opacity: 0.15; paint-order: normal; stroke: rgb(0, 0, 0); stroke-linecap: round; stroke-miterlimit: 10; stroke-width: 1.16px; text-decoration: rgb(61, 61, 61);"></path>
<path opacity="0.2" d="M1137.22 788.87L1154 792C1154 772 1152.5 743 1152.89 722.38L1154.5 638.38C1154.34 633.984 1153.67 629.621 1152.5 625.38L1151.87 623.16C1151.82 623 1151.78 622.85 1151.73 622.7C1151.73 623.16 1153 723 1137.22 788.87Z" fill="black" style="fill: rgb(0, 0, 0); opacity: 0.2; paint-order: normal; text-decoration: rgb(61, 61, 61);"></path>
<path d="M433.64 470.03H333.53V582.52H433.64V470.03Z" fill="white" style="fill: rgb(255, 255, 255); paint-order: normal; text-decoration: rgb(61, 61, 61);"></path>
<path d="M420.28 483H346.9V569.56H420.28V483Z" fill="#DDDDDD" style="fill: rgb(221, 221, 221); paint-order: normal; text-decoration: rgb(61, 61, 61);"></path>
<path d="M436.65 469.98H433.74V582.47H436.65V469.98Z" fill="#DADDDF" style="fill: rgb(218, 221, 223); paint-order: normal; text-decoration: rgb(61, 61, 61);"></path>
<path d="M398.29 500.66H368.89V551.89H398.29V500.66Z" fill="#B1B5BA" style="fill: rgb(177, 181, 186); paint-order: normal; text-decoration: rgb(61, 61, 61);"></path>
<path d="M398.41 537.06C404.491 537.06 409.42 532.131 409.42 526.05C409.42 519.969 404.491 515.04 398.41 515.04C392.33 515.04 387.4 519.969 387.4 526.05C387.4 532.131 392.33 537.06 398.41 537.06Z" class="change-color-in-svg" fill="#4D61FC" style="fill: rgb(173, 174, 185); paint-order: normal; text-decoration: rgb(61, 61, 61);"></path>
<path d="M861.79 761.17L910.04 1068.12H916.26L877.83 761.17H861.79Z" fill="#61656D" style="fill: rgb(97, 101, 109); paint-order: normal; text-decoration: rgb(61, 61, 61);"></path>
<path d="M597.07 761.17L558.64 1068.12H564.86L613.11 761.17H597.07Z" fill="#61656D" style="fill: rgb(97, 101, 109); paint-order: normal; text-decoration: rgb(61, 61, 61);"></path>
<path opacity="0.2" d="M916.26 1068.12H913.49L872.16 770.85C872.065 769.686 871.55 768.596 870.711 767.783C869.872 766.97 868.767 766.489 867.6 766.43L862.35 765.87L861.79 761.17H877.79L916.26 1068.12Z" fill="black" style="fill: rgb(0, 0, 0); opacity: 0.2; paint-order: normal; text-decoration: rgb(61, 61, 61);"></path>
<path opacity="0.2" d="M562.65 1068.12L605.65 771.26C605.776 770.044 605.451 768.824 604.738 767.831C604.025 766.837 602.973 766.14 601.78 765.87L596.67 764.87L597.08 761.13H613.08L565 1068.12H562.65Z" fill="black" style="fill: rgb(0, 0, 0); opacity: 0.2; paint-order: normal; text-decoration: rgb(61, 61, 61);"></path>
<path d="M642.74 1068.12H649.1L697.35 761.17H681.31L642.74 1068.12Z" fill="#61656D" style="fill: rgb(97, 101, 109); paint-order: normal; text-decoration: rgb(61, 61, 61);"></path>
<path opacity="0.2" d="M646.75 1068.12L662.37 946.75L656.71 942.88L681.31 761.17H697.35L649.1 1068.12H646.75Z" fill="black" style="fill: rgb(0, 0, 0); opacity: 0.2; paint-order: normal; text-decoration: rgb(61, 61, 61);"></path>
<path d="M605 755C605.011 755.824 605.195 756.637 605.54 757.387C605.884 758.136 606.382 758.804 607 759.35C608.317 760.54 610.025 761.205 611.8 761.22H979.57C981.173 761.022 982.661 760.285 983.79 759.13C984.86 758.05 985.46 756.59 985.46 755.07C985.46 753.549 984.86 752.09 983.79 751.01C982.661 749.855 981.173 749.118 979.57 748.92H611.8C610.92 748.92 610.046 749.076 609.22 749.38C608.412 749.681 607.666 750.128 607.02 750.7C606.403 751.266 605.901 751.945 605.54 752.7C605.197 753.419 605.013 754.203 605 755" fill="#61656D" style="fill: rgb(97, 101, 109); paint-order: normal; text-decoration: rgb(61, 61, 61);"></path>
<path opacity="0.2" d="M605 755C605.011 755.824 605.195 756.637 605.54 757.387C605.884 758.136 606.382 758.804 607 759.35C608.317 760.54 610.025 761.205 611.8 761.22H979.57C981.173 761.022 982.661 760.285 983.79 759.13C984.86 758.05 985.46 756.59 985.46 755.07C985.46 753.549 984.86 752.09 983.79 751.01C982.661 749.855 981.173 749.118 979.57 748.92H611.8C610.92 748.92 610.046 749.076 609.22 749.38C608.412 749.681 607.666 750.128 607.02 750.7C606.403 751.266 605.901 751.945 605.54 752.7C605.197 753.419 605.013 754.203 605 755" fill="black" style="fill: rgb(0, 0, 0); opacity: 0.2; paint-order: normal; text-decoration: rgb(61, 61, 61);"></path>
<path d="M551.55 755C551.553 755.813 551.719 756.616 552.039 757.364C552.358 758.111 552.824 758.786 553.41 759.35C554.63 760.528 556.254 761.197 557.95 761.22H833.42C834.959 761.02 836.377 760.279 837.42 759.13C838.437 758.023 839.002 756.574 839.002 755.07C839.002 753.566 838.437 752.117 837.42 751.01C836.377 749.861 834.959 749.12 833.42 748.92H558C556.32 748.911 554.702 749.548 553.48 750.7C552.889 751.25 552.417 751.915 552.094 752.655C551.771 753.395 551.602 754.193 551.6 755" fill="#61656D" style="fill: rgb(97, 101, 109); paint-order: normal; text-decoration: rgb(61, 61, 61);"></path>
<path d="M722.1 703.01L735.31 637.87L734.91 637.8L721.7 702.93L722.1 703.01Z" fill="#3F4249" style="fill: rgb(63, 66, 73); paint-order: normal; text-decoration: rgb(61, 61, 61);"></path>
<path d="M718.377 615.994L717.967 616.003L719.696 700.655L720.106 700.647L718.377 615.994Z" fill="#3F4249" style="fill: rgb(63, 66, 73); paint-order: normal; text-decoration: rgb(61, 61, 61);"></path>
<path d="M695.614 631.832L695.294 632.087L715.388 657.366L715.708 657.112L695.614 631.832Z" fill="#3F4249" style="fill: rgb(63, 66, 73); paint-order: normal; text-decoration: rgb(61, 61, 61);"></path>
<path d="M708 716.9L711.4 713.9C714.8 710.9 716.55 707.34 716.55 703.69V696.48H729.55V703.69C729.55 707.34 731.32 710.9 734.7 713.9L738.1 716.9C745.16 723.22 747.34 731.08 744.21 738.45L740.42 747.36H705.74L701.94 738.45C698.82 731.08 701.12 723.22 708 716.9Z" fill="#858990" style="fill: rgb(133, 137, 144); paint-order: normal; text-decoration: rgb(61, 61, 61);"></path>
<path d="M707.18 716.9L710.18 713.9C713.18 710.9 717.07 707.34 717.07 703.69V696.48H720.44V703C720.44 707 718.62 711 715.38 714.42C710.31 720.66 710.31 727.79 712.13 733.62C713.347 737.286 715.362 740.637 718.03 743.43L720.32 745.94C720.833 746.426 721.438 746.805 722.099 747.055C722.76 747.306 723.464 747.423 724.17 747.4H705L701.63 738.48C699 731.08 701 723.22 707.18 716.9Z" fill="#61656D" style="fill: rgb(97, 101, 109); paint-order: normal; text-decoration: rgb(61, 61, 61);"></path>
<path d="M703.208 657.632L702.946 657.948L726.955 677.873L727.217 677.557L703.208 657.632Z" fill="#3F4249" style="fill: rgb(63, 66, 73); paint-order: normal; text-decoration: rgb(61, 61, 61);"></path>
<path d="M724.05 693.29L745.28 673.2L745.03 672.96L723.8 692.97L724.05 693.29Z" fill="#3F4249" style="fill: rgb(63, 66, 73); paint-order: normal; text-decoration: rgb(61, 61, 61);"></path>
<path d="M710.92 646.7L707.6 632.12C707.317 630.93 706.739 629.831 705.918 628.924C705.097 628.017 704.061 627.333 702.904 626.934C701.748 626.535 700.51 626.434 699.305 626.642C698.099 626.849 696.966 627.357 696.01 628.12V628.12C695.06 628.886 694.318 629.879 693.854 631.008C693.39 632.136 693.219 633.364 693.355 634.576C693.492 635.789 693.932 636.947 694.636 637.944C695.339 638.941 696.283 639.745 697.38 640.28L710.92 646.7Z" class="change-color-in-svg" fill="#4D61FC" style="fill: rgb(173, 174, 185); paint-order: normal; text-decoration: rgb(61, 61, 61);"></path>
<path opacity="0.3" d="M710.92 646.7L707.6 632.12C707.317 630.93 706.739 629.831 705.918 628.924C705.097 628.017 704.061 627.333 702.904 626.934C701.748 626.535 700.51 626.434 699.305 626.642C698.099 626.849 696.966 627.357 696.01 628.12V628.12C695.06 628.886 694.318 629.879 693.854 631.008C693.39 632.136 693.219 633.364 693.355 634.576C693.492 635.789 693.932 636.947 694.636 637.944C695.339 638.941 696.283 639.745 697.38 640.28L710.92 646.7Z" fill="white" style="fill: rgb(255, 255, 255); opacity: 0.3; paint-order: normal; text-decoration: rgb(61, 61, 61);"></path>
<path d="M693.34 633.82C693.335 635.173 693.723 636.499 694.456 637.637C695.189 638.774 696.236 639.675 697.47 640.23L711 646.71L696.09 628.08C695.199 628.741 694.483 629.609 694.003 630.609C693.524 631.609 693.297 632.712 693.34 633.82V633.82Z" class="change-color-in-svg" fill="#4D61FC" style="fill: rgb(173, 174, 185); paint-order: normal; text-decoration: rgb(61, 61, 61);"></path>
<path d="M718.62 640.23L728.18 620.46C728.965 618.842 729.326 617.051 729.229 615.255C729.131 613.459 728.578 611.718 727.622 610.195C726.666 608.671 725.338 607.416 723.763 606.548C722.188 605.679 720.418 605.226 718.62 605.23V605.23C716.824 605.235 715.06 605.694 713.489 606.565C711.919 607.435 710.595 608.689 709.64 610.209C708.685 611.729 708.13 613.466 708.026 615.259C707.923 617.051 708.275 618.84 709.05 620.46L718.62 640.23Z" class="change-color-in-svg" fill="#4D61FC" style="fill: rgb(173, 174, 185); paint-order: normal; text-decoration: rgb(61, 61, 61);"></path>
<path opacity="0.3" d="M718.62 640.23L728.18 620.46C728.965 618.842 729.326 617.051 729.229 615.255C729.131 613.459 728.578 611.718 727.622 610.195C726.666 608.671 725.338 607.416 723.763 606.548C722.188 605.679 720.418 605.226 718.62 605.23V605.23C716.824 605.235 715.06 605.694 713.489 606.565C711.919 607.435 710.595 608.689 709.64 610.209C708.685 611.729 708.13 613.466 708.026 615.259C707.923 617.051 708.275 618.84 709.05 620.46L718.62 640.23Z" fill="white" style="fill: rgb(255, 255, 255); opacity: 0.3; paint-order: normal; text-decoration: rgb(61, 61, 61);"></path>
<path opacity="0.3" d="M718.13 605.3L718.62 640.23L709.05 620.46C708.287 618.882 707.929 617.139 708.008 615.388C708.086 613.637 708.599 611.933 709.499 610.43C710.4 608.926 711.66 607.67 713.167 606.775C714.673 605.879 716.379 605.373 718.13 605.3V605.3Z" fill="white" style="fill: rgb(255, 255, 255); opacity: 0.3; paint-order: normal; text-decoration: rgb(61, 61, 61);"></path>
<path d="M729.23 666.55L743.09 650C744.228 648.645 745.004 647.024 745.344 645.288C745.684 643.551 745.578 641.757 745.035 640.073C744.492 638.389 743.531 636.871 742.241 635.66C740.951 634.449 739.375 633.585 737.66 633.15V633.15C735.946 632.722 734.151 632.734 732.442 633.187C730.734 633.639 729.168 634.517 727.89 635.738C726.613 636.959 725.665 638.483 725.135 640.169C724.605 641.855 724.511 643.648 724.86 645.38L729.23 666.55Z" class="change-color-in-svg" fill="#4D61FC" style="fill: rgb(173, 174, 185); paint-order: normal; text-decoration: rgb(61, 61, 61);"></path>
<path opacity="0.3" d="M724.86 645.41C724.511 643.678 724.605 641.885 725.135 640.199C725.665 638.513 726.613 636.989 727.89 635.768C729.168 634.547 730.734 633.669 732.442 633.217C734.151 632.764 735.946 632.752 737.66 633.18L729.15 666.47L724.86 645.41Z" fill="white" style="fill: rgb(255, 255, 255); opacity: 0.3; paint-order: normal; text-decoration: rgb(61, 61, 61);"></path>
<path d="M731.18 686.25L737.5 670.45C738.013 669.157 738.847 668.015 739.923 667.132C740.999 666.25 742.281 665.655 743.65 665.404C745.018 665.153 746.428 665.254 747.747 665.698C749.066 666.141 750.251 666.913 751.19 667.94C752.133 668.968 752.799 670.219 753.125 671.576C753.451 672.933 753.426 674.35 753.053 675.695C752.68 677.039 751.97 678.266 750.992 679.261C750.013 680.256 748.798 680.985 747.46 681.38L731.18 686.25Z" class="change-color-in-svg" fill="#4D61FC" style="fill: rgb(173, 174, 185); paint-order: normal; text-decoration: rgb(61, 61, 61);"></path>
<path opacity="0.3" d="M731.18 686.25L737.5 670.45C738.013 669.157 738.847 668.015 739.923 667.132C740.999 666.25 742.281 665.655 743.65 665.404C745.018 665.153 746.428 665.254 747.747 665.698C749.066 666.141 750.251 666.913 751.19 667.94C752.133 668.968 752.799 670.219 753.125 671.576C753.451 672.933 753.426 674.35 753.053 675.695C752.68 677.039 751.97 678.266 750.992 679.261C750.013 680.256 748.798 680.985 747.46 681.38L731.18 686.25Z" fill="white" style="fill: rgb(255, 255, 255); opacity: 0.3; paint-order: normal; text-decoration: rgb(61, 61, 61);"></path>
<path opacity="0.3" d="M751 667.61L731.23 686.24L737.55 670.44C738.06 669.181 738.871 668.067 739.912 667.195C740.953 666.324 742.193 665.722 743.522 665.442C744.85 665.162 746.228 665.214 747.532 665.592C748.836 665.97 750.027 666.663 751 667.61Z" fill="white" style="fill: rgb(255, 255, 255); opacity: 0.3; paint-order: normal; text-decoration: rgb(61, 61, 61);"></path>
<path d="M720.64 672.39L713.76 655.7C713.194 654.336 712.293 653.137 711.139 652.215C709.985 651.293 708.617 650.678 707.162 650.428C705.706 650.177 704.211 650.299 702.815 650.782C701.42 651.265 700.169 652.094 699.18 653.19V653.19C698.191 654.29 697.5 655.624 697.171 657.066C696.842 658.507 696.886 660.009 697.3 661.429C697.713 662.849 698.482 664.14 699.534 665.179C700.586 666.219 701.886 666.973 703.31 667.37L720.64 672.39Z" class="change-color-in-svg" fill="#4D61FC" style="fill: rgb(173, 174, 185); paint-order: normal; text-decoration: rgb(61, 61, 61);"></path>
<path opacity="0.3" d="M720.64 672.39L713.76 655.7C713.194 654.336 712.293 653.137 711.139 652.215C709.985 651.293 708.617 650.678 707.162 650.428C705.706 650.177 704.211 650.299 702.815 650.782C701.42 651.265 700.169 652.094 699.18 653.19V653.19C698.191 654.29 697.5 655.624 697.171 657.066C696.842 658.507 696.886 660.009 697.3 661.429C697.713 662.849 698.482 664.14 699.534 665.179C700.586 666.219 701.886 666.973 703.31 667.37L720.64 672.39Z" fill="white" style="fill: rgb(255, 255, 255); opacity: 0.3; paint-order: normal; text-decoration: rgb(61, 61, 61);"></path>
<path d="M719.84 692.89L720.08 692.56L687.18 674.58L687.02 674.9L719.84 692.89Z" fill="#3F4249" style="fill: rgb(63, 66, 73); paint-order: normal; text-decoration: rgb(61, 61, 61);"></path>
<path d="M714.57 689.73L702.66 673.45C701.692 672.115 700.4 671.048 698.906 670.35C697.412 669.652 695.764 669.345 694.119 669.459C692.474 669.573 690.884 670.104 689.501 671.001C688.117 671.899 686.985 673.134 686.21 674.59C685.44 676.046 685.05 677.672 685.076 679.319C685.103 680.965 685.546 682.578 686.363 684.008C687.18 685.438 688.345 686.638 689.75 687.497C691.156 688.355 692.755 688.845 694.4 688.92L714.57 689.73Z" class="change-color-in-svg" fill="#4D61FC" style="fill: rgb(173, 174, 185); paint-order: normal; text-decoration: rgb(61, 61, 61);"></path>
<path opacity="0.3" d="M714.57 689.73L702.66 673.45C701.692 672.115 700.4 671.048 698.906 670.35C697.412 669.652 695.764 669.345 694.119 669.459C692.474 669.573 690.884 670.104 689.501 671.001C688.117 671.899 686.985 673.134 686.21 674.59C685.44 676.046 685.05 677.672 685.076 679.319C685.103 680.965 685.546 682.578 686.363 684.008C687.18 685.438 688.345 686.638 689.75 687.497C691.156 688.355 692.755 688.845 694.4 688.92L714.57 689.73Z" fill="white" style="fill: rgb(255, 255, 255); opacity: 0.3; paint-order: normal; text-decoration: rgb(61, 61, 61);"></path>
<path d="M685.88 683.16C686.622 684.816 687.812 686.232 689.316 687.248C690.819 688.264 692.577 688.84 694.39 688.91L714.57 689.72L686.21 674.58C685.505 675.891 685.109 677.345 685.052 678.832C684.995 680.319 685.278 681.799 685.88 683.16V683.16Z" class="change-color-in-svg" fill="#4D61FC" style="fill: rgb(173, 174, 185); paint-order: normal; text-decoration: rgb(61, 61, 61);"></path>
<path opacity="0.3" d="M713.76 655.7L720.64 672.39L699.18 653.19C700.175 652.106 701.427 651.289 702.82 650.814C704.213 650.339 705.703 650.22 707.154 650.47C708.605 650.72 709.969 651.329 711.123 652.243C712.277 653.157 713.184 654.345 713.76 655.7V655.7Z" fill="white" style="fill: rgb(255, 255, 255); opacity: 0.3; paint-order: normal; text-decoration: rgb(61, 61, 61);"></path>
<path d="M852.37 743.08L812.05 644.08C811.878 643.642 811.621 643.242 811.293 642.904C810.966 642.565 810.575 642.296 810.142 642.11C809.71 641.924 809.245 641.825 808.774 641.82C808.303 641.815 807.836 641.903 807.4 642.08L805.34 642.92L848.61 749.12L849.93 748.58V748.79H958.82C960.355 748.79 961.828 748.18 962.914 747.094C964 746.008 964.61 744.536 964.61 743L852.37 743.08Z" class="change-color-in-svg" fill="#4D61FC" style="fill: rgb(173, 174, 185); paint-order: normal; text-decoration: rgb(61, 61, 61);"></path>
<path opacity="0.3" d="M852.37 743.08L812.05 644.08C811.878 643.642 811.621 643.242 811.293 642.904C810.966 642.565 810.575 642.296 810.142 642.11C809.71 641.924 809.245 641.825 808.774 641.82C808.303 641.815 807.836 641.903 807.4 642.08L805.34 642.92L848.61 749.12L849.93 748.58V748.79H958.82C960.355 748.79 961.828 748.18 962.914 747.094C964 746.008 964.61 744.536 964.61 743L852.37 743.08Z" fill="black" style="fill: rgb(0, 0, 0); opacity: 0.3; paint-order: normal; text-decoration: rgb(61, 61, 61);"></path>
<path d="M1332.89 1009.7C1332.89 1009.7 1341.57 940.41 1361.49 902.56" stroke="#868A91" stroke-width="0.79" stroke-miterlimit="10" style="paint-order: normal; stroke: rgb(134, 138, 145); stroke-miterlimit: 10; stroke-width: 0.79px; text-decoration: rgb(61, 61, 61);"></path>
<path d="M1318.23 890.61C1318.23 890.61 1331.75 946.38 1329.62 984.94" stroke="#868A91" stroke-width="0.79" stroke-miterlimit="10" style="paint-order: normal; stroke: rgb(134, 138, 145); stroke-miterlimit: 10; stroke-width: 0.79px; text-decoration: rgb(61, 61, 61);"></path>
<path d="M1359.64 906C1359.64 906 1359.78 868.58 1392.5 866.44C1392.5 866.3 1395.21 899.17 1359.64 906Z" class="change-color-in-svg" fill="#4D61FC" style="fill: rgb(173, 174, 185); paint-order: normal; text-decoration: rgb(61, 61, 61);"></path>
<path d="M1281.24 897.87C1281.24 897.87 1272.42 862.3 1233.72 872.4C1233.72 872.4 1241.12 898.4 1281.24 897.87Z" class="change-color-in-svg" fill="#4D61FC" style="fill: rgb(173, 174, 185); paint-order: normal; text-decoration: rgb(61, 61, 61);"></path>
<path d="M1323.21 912.52C1323.21 912.52 1334.74 882.22 1307.99 866.42C1307.99 866.28 1296.18 896.16 1323.21 912.52Z" class="change-color-in-svg" fill="#4D61FC" style="fill: rgb(173, 174, 185); paint-order: normal; text-decoration: rgb(61, 61, 61);"></path>
<path d="M1281.24 897.87C1281.24 897.87 1316.81 938.56 1316.81 1009.7" stroke="#868A91" stroke-width="0.79" stroke-miterlimit="10" style="paint-order: normal; stroke: rgb(134, 138, 145); stroke-miterlimit: 10; stroke-width: 0.79px; text-decoration: rgb(61, 61, 61);"></path>
<path d="M1343.84 892.32C1336.02 923.62 1332.6 930.45 1328.05 1009.7" stroke="#868A91" stroke-width="0.79" stroke-miterlimit="10" style="paint-order: normal; stroke: rgb(134, 138, 145); stroke-miterlimit: 10; stroke-width: 0.79px; text-decoration: rgb(61, 61, 61);"></path>
<path d="M1251.79 848.92C1267.44 856.04 1316.79 907.83 1308.56 1008.42" stroke="#868A91" stroke-width="0.79" stroke-miterlimit="10" style="paint-order: normal; stroke: rgb(134, 138, 145); stroke-miterlimit: 10; stroke-width: 0.79px; text-decoration: rgb(61, 61, 61);"></path>
<path d="M1302.58 1008.42C1302.58 1008.42 1312.83 938.7 1269.71 915.51" stroke="#868A91" stroke-width="0.79" stroke-miterlimit="10" style="paint-order: normal; stroke: rgb(134, 138, 145); stroke-miterlimit: 10; stroke-width: 0.79px; text-decoration: rgb(61, 61, 61);"></path>
<path d="M1334.31 999.17C1334.31 999.17 1338.01 988.07 1349.96 978.82" stroke="#868A91" stroke-width="0.79" stroke-miterlimit="10" style="paint-order: normal; stroke: rgb(134, 138, 145); stroke-miterlimit: 10; stroke-width: 0.79px; text-decoration: rgb(61, 61, 61);"></path>
<path d="M1338.15 977.54C1338.15 977.54 1362.48 956.06 1374.72 952.54" stroke="#868A91" stroke-width="0.79" stroke-miterlimit="10" style="paint-order: normal; stroke: rgb(134, 138, 145); stroke-miterlimit: 10; stroke-width: 0.79px; text-decoration: rgb(61, 61, 61);"></path>
<path d="M1289.07 933.15C1289.07 933.15 1279.53 896.59 1241.4 905.15C1241.4 905.15 1247.95 936.31 1289.07 933.15Z" class="change-color-in-svg" fill="#4D61FC" style="fill: rgb(173, 174, 185); paint-order: normal; text-decoration: rgb(61, 61, 61);"></path>
<g opacity="0.4" style="opacity: 0.4; paint-order: normal; text-decoration: rgb(61, 61, 61);">
<g opacity="0.4" style="opacity: 0.4; paint-order: normal; text-decoration: rgb(61, 61, 61);">
<path opacity="0.4" d="M1289.07 933.15C1289.07 933.15 1279.53 896.59 1241.4 905.15C1241.4 905.15 1247.95 936.31 1289.07 933.15Z" fill="white" style="fill: rgb(255, 255, 255); opacity: 0.4; paint-order: normal; text-decoration: rgb(61, 61, 61);"></path>
</g>
</g>
<path d="M1308.56 970.71C1308.56 970.71 1302.01 944.71 1267.16 953.36C1267.3 953.21 1278.68 979.25 1308.56 970.71Z" class="change-color-in-svg" fill="#4D61FC" style="fill: rgb(173, 174, 185); paint-order: normal; text-decoration: rgb(61, 61, 61);"></path>
<path d="M1332.32 953.78C1332.32 953.78 1335.59 912.95 1378.13 907.97C1377.99 907.97 1380.13 947.97 1332.32 953.78Z" class="change-color-in-svg" fill="#4D61FC" style="fill: rgb(173, 174, 185); paint-order: normal; text-decoration: rgb(61, 61, 61);"></path>
<path d="M1322.5 829.43C1322.5 829.43 1320.79 980.43 1320.5 1009.7" stroke="#868A91" stroke-width="0.79" stroke-miterlimit="10" style="paint-order: normal; stroke: rgb(134, 138, 145); stroke-miterlimit: 10; stroke-width: 0.79px; text-decoration: rgb(61, 61, 61);"></path>
<path d="M1328.76 943C1328.76 943 1292.48 944.85 1292.48 904.73C1292.48 904.73 1327.62 905.15 1328.76 943Z" class="change-color-in-svg" fill="#4D61FC" style="fill: rgb(173, 174, 185); paint-order: normal; text-decoration: rgb(61, 61, 61);"></path>
<g opacity="0.4" style="opacity: 0.4; paint-order: normal; text-decoration: rgb(61, 61, 61);">
<g opacity="0.4" style="opacity: 0.4; paint-order: normal; text-decoration: rgb(61, 61, 61);">
<path opacity="0.4" d="M1328.76 943C1328.76 943 1292.48 944.85 1292.48 904.73C1292.48 904.73 1327.62 905.15 1328.76 943Z" fill="white" style="fill: rgb(255, 255, 255); opacity: 0.4; paint-order: normal; text-decoration: rgb(61, 61, 61);"></path>
</g>
</g>
<path d="M1363.19 958.48C1363.19 958.48 1373.01 930.88 1404.31 937.85C1404.17 937.85 1399.05 961.18 1363.19 958.48Z" class="change-color-in-svg" fill="#4D61FC" style="fill: rgb(173, 174, 185); paint-order: normal; text-decoration: rgb(61, 61, 61);"></path>
<g opacity="0.4" style="opacity: 0.4; paint-order: normal; text-decoration: rgb(61, 61, 61);">
<g opacity="0.4" style="opacity: 0.4; paint-order: normal; text-decoration: rgb(61, 61, 61);">
<path opacity="0.4" d="M1363.19 958.48C1363.19 958.48 1373.01 930.88 1404.31 937.85C1404.17 937.85 1399.05 961.18 1363.19 958.48Z" fill="white" style="fill: rgb(255, 255, 255); opacity: 0.4; paint-order: normal; text-decoration: rgb(61, 61, 61);"></path>
</g>
</g>
<path d="M1348.68 1008.99H1284.37V1017.1H1348.68V1008.99Z" fill="#868A91" style="fill: rgb(134, 138, 145); paint-order: normal; text-decoration: rgb(61, 61, 61);"></path>
<path d="M1340.57 1069.74H1292.48L1288.92 1016.96H1344.13L1340.57 1069.74Z" fill="#868A91" style="fill: rgb(134, 138, 145); paint-order: normal; text-decoration: rgb(61, 61, 61);"></path>
<path d="M1340.57 1069.74H1292.48L1288.92 1016.96H1344.13L1340.57 1069.74Z" fill="#868A91" style="fill: rgb(134, 138, 145); paint-order: normal; text-decoration: rgb(61, 61, 61);"></path>
<path d="M1348.68 1008.99H1338.29V1016.96H1328.62H1288.92L1289.06 1019.23H1328.62L1328.76 1069.74H1340.57L1344.13 1016.96H1348.68V1008.99Z" fill="#61656D" style="fill: rgb(97, 101, 109); paint-order: normal; text-decoration: rgb(61, 61, 61);"></path>
<path d="M1322.07 860.59C1322.07 860.59 1304.29 833.7 1327.48 807.95C1327.34 807.95 1342.7 834.13 1322.07 860.59Z" class="change-color-in-svg" fill="#4D61FC" style="fill: rgb(173, 174, 185); paint-order: normal; text-decoration: rgb(61, 61, 61);"></path>
<g opacity="0.4" style="opacity: 0.4; paint-order: normal; text-decoration: rgb(61, 61, 61);">
<g opacity="0.4" style="opacity: 0.4; paint-order: normal; text-decoration: rgb(61, 61, 61);">
<path opacity="0.4" d="M1322.07 860.59C1322.07 860.59 1304.29 833.7 1327.48 807.95C1327.34 807.95 1342.7 834.13 1322.07 860.59Z" fill="white" style="fill: rgb(255, 255, 255); opacity: 0.4; paint-order: normal; text-decoration: rgb(61, 61, 61);"></path>
</g>
</g>
<path d="M1338.15 914.66C1338.15 914.66 1318.66 872.97 1353.52 847.36C1353.52 847.36 1377.52 885.06 1338.15 914.66Z" class="change-color-in-svg" fill="#4D61FC" style="fill: rgb(173, 174, 185); paint-order: normal; text-decoration: rgb(61, 61, 61);"></path>
<g opacity="0.4" style="opacity: 0.4; paint-order: normal; text-decoration: rgb(61, 61, 61);">
<g opacity="0.4" style="opacity: 0.4; paint-order: normal; text-decoration: rgb(61, 61, 61);">
<path opacity="0.4" d="M1338.15 914.66C1338.15 914.66 1318.66 872.97 1353.52 847.36C1353.52 847.36 1377.52 885.06 1338.15 914.66Z" fill="white" style="fill: rgb(255, 255, 255); opacity: 0.4; paint-order: normal; text-decoration: rgb(61, 61, 61);"></path>
</g>
</g>
<path d="M1342.85 985.94C1342.85 985.94 1347.54 967.73 1372.44 971.57C1372.44 971.57 1368.32 990.06 1342.85 985.94Z" class="change-color-in-svg" fill="#4D61FC" style="fill: rgb(173, 174, 185); paint-order: normal; text-decoration: rgb(61, 61, 61);"></path>
<path d="M1309 994.19C1309 994.19 1303.6 959.05 1335.75 954.92C1335.75 954.92 1343.44 985.51 1309 994.19Z" class="change-color-in-svg" fill="#4D61FC" style="fill: rgb(173, 174, 185); paint-order: normal; text-decoration: rgb(61, 61, 61);"></path>
<g opacity="0.4" style="opacity: 0.4; paint-order: normal; text-decoration: rgb(61, 61, 61);">
<g opacity="0.4" style="opacity: 0.4; paint-order: normal; text-decoration: rgb(61, 61, 61);">
<path opacity="0.4" d="M1309 994.19C1309 994.19 1303.6 959.05 1335.75 954.92C1335.75 954.92 1343.44 985.51 1309 994.19Z" fill="white" style="fill: rgb(255, 255, 255); opacity: 0.4; paint-order: normal; text-decoration: rgb(61, 61, 61);"></path>
</g>
</g>
<path d="M1243 843.52C1243 843.52 1262.35 841.52 1266 860.16C1266.14 860.02 1248.64 862.16 1243 843.52Z" class="change-color-in-svg" fill="#4D61FC" style="fill: rgb(173, 174, 185); paint-order: normal; text-decoration: rgb(61, 61, 61);"></path>
<g opacity="0.3" style="opacity: 0.3; paint-order: normal; text-decoration: rgb(61, 61, 61);">
<g opacity="0.3" style="opacity: 0.3; paint-order: normal; text-decoration: rgb(61, 61, 61);">
<path opacity="0.3" d="M1243 843.52C1243 843.52 1262.35 841.52 1266 860.16C1266.14 860.02 1248.64 862.16 1243 843.52Z" fill="white" style="fill: rgb(255, 255, 255); opacity: 0.3; paint-order: normal; text-decoration: rgb(61, 61, 61);"></path>
</g>
</g>
<path d="M1290.2 841.52C1290.2 841.52 1266.2 866.57 1289.63 893.88C1289.63 893.88 1313.4 867.13 1290.2 841.52Z" class="change-color-in-svg" fill="#4D61FC" style="fill: rgb(173, 174, 185); paint-order: normal; text-decoration: rgb(61, 61, 61);"></path>
<g opacity="0.4" style="opacity: 0.4; paint-order: normal; text-decoration: rgb(61, 61, 61);">
<g opacity="0.4" style="opacity: 0.4; paint-order: normal; text-decoration: rgb(61, 61, 61);">
<path opacity="0.4" d="M1290.2 841.52C1290.2 841.52 1266.2 866.57 1289.63 893.88C1289.63 893.88 1313.4 867.13 1290.2 841.52Z" fill="white" style="fill: rgb(255, 255, 255); opacity: 0.4; paint-order: normal; text-decoration: rgb(61, 61, 61);"></path>
</g>
</g>
</svg>